{
.appVersion = "3133";
.formatVersion = 3;
axes = (
{
default = 400;
name = Weight;
tag = wght;
}
);
classes = (
{
code = "zero one two three four five six seven eight nine";
name = Numbers;
},
{
code = "oneoldstyle zerooldstyle twooldstyle threeoldstyle fouroldstyle fiveoldstyle sixoldstyle sevenoldstyle eightoldstyle nineoldstyle";
name = Oldstyle;
},
{
code = "a b c d e f g h i j k l m n o p q r s t u v w x y z";
name = Lowercase;
},
{
code = "Asmall Bsmall Csmall Dsmall Esmall Fsmall Gsmall Hsmall Ismall Jsmall Ksmall Lsmall Msmall Nsmall Osmall Psmall Qsmall Rsmall Ssmall Tsmall Usmall Vsmall Wsmall Xsmall Ysmall Zsmall";
name = Small_Caps;
},
{
code = "zero.inferior one.inferior two.inferior three.inferior four.inferior five.inferior six.inferior seven.inferior eight.inferior nine.inferior";
name = Subscript;
},
{
code = "zero.superior onesuperior twosuperior threesuperior four.superior five.superior six.superior seven.superior eight.superior nine.superior";
name = Superscript;
},
{
code = "denozero denoone denotwo denothree denofour denofive denosix denoseven denoeight denonine";
name = Denominator;
},
{
code = "numzero numone numtwo numthree numfour numfive numsix numseven numeight numnine";
name = Numerator;
},
{
code = "tabularzero tabularone tabulartwo tabularthree tabularfour tabularfive tabularsix tabularseven tabulareight tabularnine";
name = Tabular;
},
{
code = "tabularoldzero tabularoldone tabularoldtwo tabularoldthree tabularoldfour tabularoldfive tabularoldsix tabularoldseven tabularoldeight tabularoldnine";
name = Tabular_Old;
},
{

glyphs = (
{
glyphname = .notdef;
layers = (
{
layerId = master01;
shapes = (
{
closed = 1;
nodes = (
(518,0,l),
(518,698,l),
(0,698,l),
(0,0,l)
);
},
{
closed = 1;
nodes = (
(113,635,l),
(406,635,l),
(259,417,l)
);
},
{
closed = 1;
nodes = (
(440,553,l),
(440,145,l),
(304,349,l)
);
},
{
closed = 1;
nodes = (
(259,282,l),
(406,63,l),
(113,63,l)
);
},
{
closed = 1;
nodes = (
(215,349,l),
(78,145,l),
(78,553,l)
);
}
);
vertWidth = 1130;
width = 518;
},
{
layerId = master02;
shapes = (
{
closed = 1;
nodes = (
(524,0,l),
(524,698,l),
(0,698,l),
(0,0,l)
);
},
{
closed = 1;
nodes = (
(124,630,l),
(401,630,l),
(262,424,l)
);
},
{
closed = 1;
nodes = (
(437,536,l),
(437,162,l),
(312,349,l)
);
},
{
closed = 1;
nodes = (
(262,274,l),
(401,68,l),
(124,68,l)
);
},
{
closed = 1;
nodes = (
(213,349,l),
(88,162,l),
(88,536,l)
);
}
);
vertWidth = 1130;
width = 524;
},
{
layerId = master03;
shapes = (
{
closed = 1;
nodes = (
(480,0,l),
(480,700,l),
(0,700,l),
(0,0,l)
);
},
{
closed = 1;
nodes = (
(60,660,l),
(420,660,l),
(240,385,l)
);
},
{
closed = 1;
nodes = (
(440,615,l),
(440,85,l),
(265,350,l)
);
},
{
closed = 1;
nodes = (
(240,315,l),
(420,40,l),
(60,40,l)
);
},
{
closed = 1;
nodes = (
(215,350,l),
(40,85,l),
(40,615,l)
);
}
);
vertWidth = 814;
width = 480;
},
{
layerId = master04;
shapes = (
{
closed = 1;
nodes = (
(490,0,l),
(490,700,l),
(0,700,l),
(0,0,l)
);
},
{
closed = 1;
nodes = (
(70,655,l),
(420,655,l),
(245,390,l)
);
},
{
closed = 1;
nodes = (
(445,610,l),
(445,90,l),
(272,350,l)
);
},
{
closed = 1;
nodes = (
(245,310,l),
(420,45,l),
(70,45,l)
);
},
{
closed = 1;
nodes = (
(217,350,l),
(45,90,l),
(45,610,l)
);
}
);
vertWidth = 1130;
width = 490;
},
{
layerId = master05;
shapes = (
{
closed = 1;
nodes = (
(506,0,l),
(506,699,l),
(0,699,l),
(0,0,l)
);
},
{
closed = 1;
nodes = (
(91,645,l),
(415,645,l),
(253,402,l)
);
},
{
closed = 1;
nodes = (
(447,588,l),
(447,112,l),
(288,350,l)
);
},
{
closed = 1;
nodes = (
(253,297,l),
(415,54,l),
(91,54,l)
);
},
{
closed = 1;
nodes = (
(218,350,l),
(59,112,l),
(59,588,l)
);
}
);
vertWidth = 1130;
width = 506;
},
{
layerId = master06;
shapes = (
{
closed = 1;
nodes = (
(500,0,l),
(500,700,l),
(0,700,l),
(0,0,l)
);
},
{
closed = 1;
nodes = (
(80,650,l),
(420,650,l),
(250,395,l)
);
},
{
closed = 1;
nodes = (
(450,605,l),
(450,95,l),
(280,350,l)
);
},
{
closed = 1;
nodes = (
(250,305,l),
(420,50,l),
(80,50,l)
);
},
{
closed = 1;
nodes = (
(220,350,l),
(50,95,l),
(50,605,l)
);
}
);
width = 500;
},
{
layerId = master07;
shapes = (
{
closed = 1;
nodes = (
(512,0,l),
(512,699,l),
(0,699,l),
(0,0,l)
);
},
{
closed = 1;
nodes = (
(102,640,l),
(410,640,l),
(256,409,l)
);
},
{
closed = 1;
nodes = (
(443,570,l),
(443,128,l),
(296,349,l)
);
},
{
closed = 1;
nodes = (
(256,289,l),
(410,59,l),
(102,59,l)
);
},
{
closed = 1;
nodes = (
(216,349,l),
(69,128,l),
(69,570,l)
);
}
);
vertWidth = 1130;
width = 512;
}
);
},
{
glyphname = exclam;
layers = (
{
layerId = master01;
shapes = (
{
closed = 1;
nodes = (
(174,213,l),
(191,674,l),
(59,674,l),
(74,213,l)
);
},
{
closed = 1;
nodes = (
(52,19,o),
(86,-10,o),
(124,-10,cs),
(163,-10,o),
(196,19,o),
(196,64,cs),
(196,105,o),
(163,136,o),
(124,136,cs),
(86,136,o),
(52,105,o),
(52,64,cs)
);
}
);
vertWidth = 1130;
width = 249;
},
{
layerId = master02;
shapes = (
{
closed = 1;
nodes = (
(181,218,l),
(200,674,l),
(54,674,l),
(71,218,l)
);
},
{
closed = 1;
nodes = (
(50,21,o),
(86,-10,o),
(127,-10,cs),
(168,-10,o),
(203,21,o),
(203,67,cs),
(203,111,o),
(168,144,o),
(127,144,cs),
(86,144,o),
(50,111,o),
(50,67,cs)
);
}
);
vertWidth = 1130;
width = 254;
},
{
layerId = master03;
shapes = (
{
closed = 1;
nodes = (
(116,175,l),
(125,659,l),
(72,659,l),
(77,175,l)
);
},
{
closed = 1;
nodes = (
(59,7,o),
(74,-7,o),
(97,-7,cs),
(118,-7,o),
(135,7,o),
(135,34,cs),
(135,60,o),
(118,76,o),
(97,76,cs),
(74,76,o),
(59,60,o),
(59,34,cs)
);
}
);
vertWidth = 814;
width = 193;
},
{
layerId = master04;
shapes = (
{
closed = 1;
nodes = (
(131,185,l),
(141,660,l),
(73,660,l),
(79,185,l)
);
},
{
closed = 1;
nodes = (
(59,11,o),
(80,-8,o),
(106,-8,cs),
(131,-8,o),
(153,11,o),
(153,42,cs),
(153,70,o),
(131,91,o),
(106,91,cs),
(80,91,o),
(59,70,o),
(59,42,cs)
);
}
);
vertWidth = 1130;
width = 211;
},
{
layerId = master05;
shapes = (
{
closed = 1;
nodes = (
(155,199,l),
(168,660,l),
(67,660,l),
(78,199,l)
);
},
{
closed = 1;
nodes = (
(56,16,o),
(85,-9,o),
(117,-9,cs),
(151,-9,o),
(178,16,o),
(178,54,cs),
(178,89,o),
(151,116,o),
(117,116,cs),
(85,116,o),
(56,89,o),
(56,54,cs)
);
}
);
vertWidth = 1130;
width = 234;
},
{
layerId = master06;
shapes = (
{
closed = 1;
nodes = (
(148,194,l),
(159,660,l),
(72,660,l),
(81,194,l)
);
},
{
closed = 1;
nodes = (
(59,15,o),
(85,-8,o),
(115,-8,cs),
(146,-8,o),
(171,15,o),
(171,50,cs),
(171,83,o),
(146,108,o),
(115,108,cs),
(85,108,o),
(59,83,o),
(59,50,cs)
);
}
);
width = 230;
},
{
layerId = master07;
shapes = (
{
closed = 1;
nodes = (
(164,206,l),
(180,667,l),
(63,667,l),
(76,206,l)
);
},
{
closed = 1;
nodes = (
(55,18,o),
(86,-9,o),
(121,-9,cs),
(157,-9,o),
(187,18,o),
(187,58,cs),
(187,97,o),
(157,126,o),
(121,126,cs),
(86,126,o),
(55,97,o),
(55,58,cs)
);
}
);
vertWidth = 1130;
width = 242;
}
);
unicode = 33;
},
{
glyphname = quotedbl;
layers = (
{
layerId = master01;
shapes = (
{
closed = 1;
nodes = (
(306,414,l),
(322,646,l),
(209,646,l),
(224,414,l)
);
},
{
closed = 1;
nodes = (
(141,414,l),
(156,646,l),
(43,646,l),
(59,414,l)
);
}
);
vertWidth = 1130;
width = 365;
},
{
layerId = master02;
shapes = (
{
closed = 1;
nodes = (
(322,410,l),
(338,647,l),
(215,647,l),
(230,410,l)
);
},
{
closed = 1;
nodes = (
(149,410,l),
(164,647,l),
(41,647,l),
(57,410,l)
);
}
);
vertWidth = 1130;
width = 379;
},
{
layerId = master03;
shapes = (
{
closed = 1;
nodes = (
(232,428,l),
(243,645,l),
(190,645,l),
(200,428,l)
);
},
{
closed = 1;
nodes = (
(94,428,l),
(104,645,l),
(51,645,l),
(62,428,l)
);
}
);
vertWidth = 814;
width = 294;
},
{
layerId = master04;
shapes = (
{
closed = 1;
nodes = (
(244,428,l),
(258,645,l),
(190,645,l),
(202,428,l)
);
},
{
closed = 1;
nodes = (
(106,428,l),
(119,645,l),
(51,645,l),
(64,428,l)
);
}
);
vertWidth = 1130;
width = 309;
},
{
layerId = master05;
shapes = (
{
closed = 1;
nodes = (
(273,423,l),
(289,645,l),
(196,645,l),
(211,423,l)
);
},
{
closed = 1;
nodes = (
(126,423,l),
(141,645,l),
(48,645,l),
(64,423,l)
);
}
);
vertWidth = 1130;
width = 338;
},
{
layerId = master06;
shapes = (
{
closed = 1;
nodes = (
(257,428,l),
(273,645,l),
(190,645,l),
(205,428,l)
);
},
{
closed = 1;
nodes = (
(119,428,l),
(134,645,l),
(51,645,l),
(67,428,l)
);
}
);
width = 324;
},
{
layerId = master07;
shapes = (
{
closed = 1;
nodes = (
(289,419,l),
(305,646,l),
(202,646,l),
(217,419,l)
);
},
{
closed = 1;
nodes = (
(134,419,l),
(149,646,l),
(46,646,l),
(62,419,l)
);
}
);
vertWidth = 1130;
width = 351;
}
);
unicode = 34;
},
{
glyphname = numbersign;
lastChange = "2022-06-08 14:45:15 +0000";
layers = (
{
layerId = master01;
shapes = (
{
closed = 1;
nodes = (
(176,0,l),
(209,203,l),
(332,203,l),
(300,0,l),
(379,0,l),
(412,203,l),
(524,203,l),
(524,282,l),
(423,282,l),
(447,431,l),
(557,431,l),
(557,510,l),
(460,510,l),
(491,703,l),
(413,703,l),
(383,509,l),
(258,509,l),
(289,703,l),
(211,703,l),
(181,510,l),
(66,510,l),
(66,431,l),
(167,431,l),
(143,282,l),
(33,282,l),
(33,203,l),
(129,203,l),
(98,0,l)
);
},
{
closed = 1;
nodes = (
(245,431,l),
(369,431,l),
(345,282,l),
(221,282,l)
);
}
);
vertWidth = 1130;
width = 587;
},
{
layerId = master02;
shapes = (
{
closed = 1;
nodes = (
(176,0,l),
(209,203,l),
(328,203,l),
(295,0,l),
(379,0,l),
(412,203,l),
(524,203,l),
(524,287,l),
(424,287,l),
(447,427,l),
(557,427,l),
(557,510,l),
(460,510,l),
(491,703,l),
(409,703,l),
(378,509,l),
(258,509,l),
(289,703,l),
(206,703,l),
(177,510,l),
(66,510,l),
(66,427,l),
(162,427,l),
(140,287,l),
(33,287,l),
(33,203,l),
(124,203,l),
(93,0,l)
);
},
{
closed = 1;
nodes = (
(245,427,l),
(363,427,l),
(341,287,l),
(222,287,l)
);
}
);
vertWidth = 1130;
width = 586;
},
{
layerId = master03;
shapes = (
{
closed = 1;
nodes = (
(156,0,l),
(191,207,l),
(358,207,l),
(323,0,l),
(364,0,l),
(399,207,l),
(512,207,l),
(512,247,l),
(405,247,l),
(440,453,l),
(544,453,l),
(544,490,l),
(445,490,l),
(479,687,l),
(438,687,l),
(404,489,l),
(238,489,l),
(270,687,l),
(231,687,l),
(197,490,l),
(64,490,l),
(64,453,l),
(192,453,l),
(157,247,l),
(32,247,l),
(32,207,l),
(151,207,l),
(115,0,l)
);
},
{
closed = 1;
nodes = (
(233,453,l),
(399,453,l),
(363,247,l),
(197,247,l)
);
}
);
vertWidth = 814;
width = 577;
},
{
layerId = master04;
shapes = (
{
closed = 1;
nodes = (
(164,0,l),
(197,204,l),
(350,204,l),
(316,0,l),
(367,0,l),
(401,204,l),
(513,204,l),
(513,254,l),
(408,254,l),
(440,445,l),
(545,445,l),
(545,495,l),
(447,495,l),
(480,688,l),
(429,688,l),
(397,494,l),
(245,494,l),
(276,688,l),
(226,688,l),
(194,495,l),
(65,495,l),
(65,445,l),
(186,445,l),
(154,254,l),
(33,254,l),
(33,204,l),
(146,204,l),
(113,0,l)
);
},
{
closed = 1;
nodes = (
(236,445,l),
(389,445,l),
(357,254,l),
(205,254,l)
);
}
);
vertWidth = 1130;
width = 577;
},
{
layerId = master05;
shapes = (
{
closed = 1;
nodes = (
(172,0,l),
(205,199,l),
(335,199,l),
(303,0,l),
(371,0,l),
(404,199,l),
(513,199,l),
(513,267,l),
(413,267,l),
(440,432,l),
(545,432,l),
(545,499,l),
(450,499,l),
(481,688,l),
(414,688,l),
(384,498,l),
(252,498,l),
(283,688,l),
(216,688,l),
(186,499,l),
(65,499,l),
(65,432,l),
(174,432,l),
(148,267,l),
(33,267,l),
(33,199,l),
(136,199,l),
(105,0,l)
);
},
{
closed = 1;
nodes = (
(241,432,l),
(372,432,l),
(346,267,l),
(215,267,l)
);
}
);
vertWidth = 1130;
width = 576;
},
{
layerId = master06;
shapes = (
{
closed = 1;
nodes = (
(172,0,l),
(205,199,l),
(339,199,l),
(308,0,l),
(371,0,l),
(404,199,l),
(513,199,l),
(513,262,l),
(412,262,l),
(441,436,l),
(545,436,l),
(545,499,l),
(450,499,l),
(481,688,l),
(418,688,l),
(389,498,l),
(252,498,l),
(283,688,l),
(220,688,l),
(191,499,l),
(65,499,l),
(65,436,l),
(179,436,l),
(152,262,l),
(33,262,l),
(33,199,l),
(140,199,l),
(110,0,l)
);
},
{
closed = 1;
nodes = (
(242,436,l),
(378,436,l),
(350,262,l),
(214,262,l)
);
}
);
width = 577;
},
{
layerId = master07;
shapes = (
{
closed = 1;
nodes = (
(174,0,l),
(207,201,l),
(334,201,l),
(302,0,l),
(375,0,l),
(408,201,l),
(519,201,l),
(519,274,l),
(417,274,l),
(444,431,l),
(551,431,l),
(551,505,l),
(455,505,l),
(486,696,l),
(414,696,l),
(384,504,l),
(255,504,l),
(286,696,l),
(213,696,l),
(183,505,l),
(66,505,l),
(66,431,l),
(171,431,l),
(146,274,l),
(33,274,l),
(33,201,l),
(133,201,l),
(102,0,l)
);
},
{
closed = 1;
nodes = (
(243,431,l),
(370,431,l),
(345,274,l),
(218,274,l)
);
}
);
vertWidth = 1130;
width = 581;
}
);
unicode = 35;
},
{
glyphname = percent;
layers = (
{
layerId = master01;
shapes = (
{
closed = 1;
nodes = (
(601,674,l),
(524,674,l),
(130,0,l),
(207,0,l)
);
},
{
closed = 1;
nodes = (
(697,255,o),
(641,334,o),
(544,334,cs),
(445,334,o),
(386,255,o),
(386,163,cs),
(386,70,o),
(442,-10,o),
(541,-10,cs),
(643,-10,o),
(697,70,o),
(697,163,cs)
);
},
{
closed = 1;
nodes = (
(601,105,o),
(583,61,o),
(541,61,cs),
(498,61,o),
(482,108,o),
(482,163,cs),
(482,217,o),
(501,264,o),
(544,264,cs),
(588,264,o),
(601,214,o),
(601,163,cs)
);
},
{
closed = 1;
nodes = (
(334,595,o),
(279,674,o),
(180,674,cs),
(83,674,o),
(25,595,o),
(25,503,cs),
(25,411,o),
(80,330,o),
(178,330,cs),
(279,330,o),
(334,411,o),
(334,503,cs)
);
},
{
closed = 1;
nodes = (
(240,445,o),
(220,402,o),
(178,402,cs),
(135,402,o),
(121,448,o),
(121,503,cs),
(121,553,o),
(137,598,o),
(180,598,cs),
(225,598,o),
(240,550,o),
(240,503,cs)
);
}
);
vertWidth = 1130;
width = 726;
},
{
layerId = master02;
shapes = (
{
closed = 1;
nodes = (
(600,674,l),
(518,674,l),
(124,0,l),
(206,0,l)
);
},
{
closed = 1;
nodes = (
(693,256,o),
(637,336,o),
(538,336,cs),
(439,336,o),
(379,256,o),
(379,164,cs),
(379,71,o),
(435,-10,o),
(535,-10,cs),
(638,-10,o),
(693,71,o),
(693,164,cs)
);
},
{
closed = 1;
nodes = (
(590,109,o),
(573,67,o),
(535,67,cs),
(496,67,o),
(483,113,o),
(483,164,cs),
(483,214,o),
(499,259,o),
(538,259,cs),
(577,259,o),
(590,211,o),
(590,164,cs)
);
},
{
closed = 1;
nodes = (
(338,594,o),
(281,674,o),
(182,674,cs),
(83,674,o),
(24,594,o),
(24,502,cs),
(24,410,o),
(80,329,o),
(180,329,cs),
(283,329,o),
(338,410,o),
(338,502,cs)
);
},
{
closed = 1;
nodes = (
(235,447,o),
(218,407,o),
(180,407,cs),
(141,407,o),
(127,451,o),
(127,502,cs),
(127,547,o),
(143,589,o),
(182,589,cs),
(222,589,o),
(235,545,o),
(235,502,cs)
);
}
);
vertWidth = 1130;
width = 721;
},
{
layerId = master03;
shapes = (
{
closed = 1;
nodes = (
(565,646,l),
(521,646,l),
(143,0,l),
(187,0,l)
);
},
{
closed = 1;
nodes = (
(671,243,o),
(625,316,o),
(535,316,cs),
(445,316,o),
(396,243,o),
(396,155,cs),
(396,67,o),
(442,-7,o),
(533,-7,cs),
(626,-7,o),
(671,67,o),
(671,155,cs)
);
},
{
closed = 1;
nodes = (
(628,74,o),
(594,28,o),
(533,28,cs),
(470,28,o),
(439,81,o),
(439,155,cs),
(439,228,o),
(471,283,o),
(533,283,cs),
(601,283,o),
(628,227,o),
(628,155,cs)
);
},
{
closed = 1;
nodes = (
(301,573,o),
(254,646,o),
(165,646,cs),
(74,646,o),
(25,573,o),
(25,486,cs),
(25,398,o),
(71,323,o),
(162,323,cs),
(255,323,o),
(301,398,o),
(301,486,cs)
);
},
{
closed = 1;
nodes = (
(257,405,o),
(225,358,o),
(162,358,cs),
(100,358,o),
(69,411,o),
(69,486,cs),
(69,557,o),
(101,613,o),
(163,613,cs),
(234,613,o),
(257,544,o),
(257,486,cs)
);
}
);
vertWidth = 814;
width = 700;
},
{
layerId = master04;
shapes = (
{
closed = 1;
nodes = (
(571,646,l),
(519,646,l),
(140,0,l),
(193,0,l)
);
},
{
closed = 1;
nodes = (
(676,242,o),
(627,316,o),
(536,316,cs),
(447,316,o),
(396,242,o),
(396,155,cs),
(396,66,o),
(443,-7,o),
(535,-7,cs),
(628,-7,o),
(676,66,o),
(676,155,cs)
);
},
{
closed = 1;
nodes = (
(621,80,o),
(592,35,o),
(535,35,cs),
(475,35,o),
(451,87,o),
(451,155,cs),
(451,222,o),
(474,275,o),
(536,275,cs),
(599,275,o),
(621,219,o),
(621,155,cs)
);
},
{
closed = 1;
nodes = (
(305,573,o),
(256,646,o),
(166,646,cs),
(76,646,o),
(25,573,o),
(25,486,cs),
(25,398,o),
(73,323,o),
(164,323,cs),
(257,323,o),
(305,398,o),
(305,486,cs)
);
},
{
closed = 1;
nodes = (
(250,411,o),
(222,366,o),
(164,366,cs),
(106,366,o),
(80,417,o),
(80,486,cs),
(80,552,o),
(104,606,o),
(166,606,cs),
(229,606,o),
(250,549,o),
(250,486,cs)
);
}
);
vertWidth = 1130;
width = 705;
},
{
layerId = master05;
shapes = (
{
closed = 1;
nodes = (
(577,647,l),
(511,647,l),
(134,0,l),
(199,0,l)
);
},
{
closed = 1;
nodes = (
(676,243,o),
(624,317,o),
(534,317,cs),
(442,317,o),
(387,243,o),
(387,155,cs),
(387,67,o),
(438,-8,o),
(531,-8,cs),
(626,-8,o),
(676,67,o),
(676,155,cs)
);
},
{
closed = 1;
nodes = (
(601,91,o),
(581,47,o),
(531,47,cs),
(480,47,o),
(462,96,o),
(462,155,cs),
(462,213,o),
(483,263,o),
(534,263,cs),
(585,263,o),
(601,210,o),
(601,155,cs)
);
},
{
closed = 1;
nodes = (
(313,573,o),
(261,647,o),
(170,647,cs),
(79,647,o),
(24,573,o),
(24,485,cs),
(24,397,o),
(75,321,o),
(167,321,cs),
(262,321,o),
(313,397,o),
(313,485,cs)
);
},
{
closed = 1;
nodes = (
(238,421,o),
(217,377,o),
(167,377,cs),
(117,377,o),
(99,425,o),
(99,485,cs),
(99,542,o),
(119,590,o),
(170,590,cs),
(222,590,o),
(238,539,o),
(238,485,cs)
);
}
);
vertWidth = 1130;
width = 705;
},
{
layerId = master06;
shapes = (
{
closed = 1;
nodes = (
(578,646,l),
(517,646,l),
(138,0,l),
(200,0,l)
);
},
{
closed = 1;
nodes = (
(681,242,o),
(629,316,o),
(539,316,cs),
(449,316,o),
(396,242,o),
(396,155,cs),
(396,66,o),
(446,-7,o),
(536,-7,cs),
(630,-7,o),
(681,66,o),
(681,155,cs)
);
},
{
closed = 1;
nodes = (
(614,87,o),
(590,41,o),
(536,41,cs),
(482,41,o),
(462,93,o),
(462,155,cs),
(462,215,o),
(484,268,o),
(539,268,cs),
(595,268,o),
(614,213,o),
(614,155,cs)
);
},
{
closed = 1;
nodes = (
(310,573,o),
(259,646,o),
(168,646,cs),
(79,646,o),
(25,573,o),
(25,486,cs),
(25,398,o),
(75,323,o),
(166,323,cs),
(259,323,o),
(310,398,o),
(310,486,cs)
);
},
{
closed = 1;
nodes = (
(243,417,o),
(220,372,o),
(166,372,cs),
(112,372,o),
(91,424,o),
(91,486,cs),
(91,546,o),
(115,599,o),
(168,599,cs),
(226,599,o),
(243,544,o),
(243,486,cs)
);
}
);
width = 710;
},
{
layerId = master07;
shapes = (
{
closed = 1;
nodes = (
(588,661,l),
(518,661,l),
(131,0,l),
(202,0,l)
);
},
{
closed = 1;
nodes = (
(687,248,o),
(633,326,o),
(538,326,cs),
(444,326,o),
(387,248,o),
(387,159,cs),
(387,68,o),
(441,-8,o),
(536,-8,cs),
(634,-8,o),
(687,68,o),
(687,159,cs)
);
},
{
closed = 1;
nodes = (
(602,98,o),
(582,55,o),
(536,55,cs),
(489,55,o),
(473,103,o),
(473,159,cs),
(473,214,o),
(492,264,o),
(538,264,cs),
(587,264,o),
(602,212,o),
(602,159,cs)
);
},
{
closed = 1;
nodes = (
(323,583,o),
(270,661,o),
(175,661,cs),
(81,661,o),
(23,583,o),
(23,493,cs),
(23,403,o),
(77,326,o),
(172,326,cs),
(272,326,o),
(323,403,o),
(323,493,cs)
);
},
{
closed = 1;
nodes = (
(239,432,o),
(219,389,o),
(172,389,cs),
(126,389,o),
(109,437,o),
(109,493,cs),
(109,547,o),
(128,594,o),
(175,594,cs),
(224,594,o),
(239,544,o),
(239,493,cs)
);
}
);
vertWidth = 1130;
width = 714;
}
);
unicode = 37;
},
{
glyphname = ampersand;
lastChange = "2022-06-07 15:02:57 +0000";
layers = (
{
layerId = master01;
shapes = (
{
closed = 1;
nodes = (
(364,-10,o),
(432,26,o),
(469,65,c),
(533,0,l),
(687,0,l),
(544,147,l),
(566,180,o),
(598,241,o),
(618,297,c),
(519,337,l),
(507,297,o),
(486,253,o),
(470,222,c),
(311,385,ls),
(260,438,o),
(235,473,o),
(235,517,cs),
(235,554,o),
(256,581,o),
(300,581,cs),
(336,581,o),
(365,553,o),
(365,517,cs),
(365,483,o),
(346,457,o),
(321,442,c),
(384,377,l),
(437,404,o),
(482,451,o),
(482,517,cs),
(482,606,o),
(403,670,o),
(302,670,cs),
(187,670,o),
(114,609,o),
(114,512,cs),
(114,460,o),
(143,411,o),
(174,379,c),
(70,331,o),
(28,268,o),
(28,187,cs),
(28,67,o),
(118,-10,o),
(266,-10,cs)
);
},
{
closed = 1;
nodes = (
(207,88,o),
(155,123,o),
(155,192,cs),
(155,251,o),
(192,287,o),
(234,307,c),
(400,136,l),
(380,112,o),
(337,88,o),
(282,88,cs)
);
}
);
vertWidth = 1130;
width = 682;
},
{
layerId = master02;
shapes = (
{
closed = 1;
nodes = (
(355,-11,o),
(420,26,o),
(456,61,c),
(516,0,l),
(685,0,l),
(539,151,l),
(561,183,o),
(592,243,o),
(612,300,c),
(505,343,l),
(493,305,o),
(475,263,o),
(458,233,c),
(303,393,ls),
(254,444,o),
(234,476,o),
(234,513,cs),
(234,550,o),
(255,574,o),
(293,574,cs),
(326,574,o),
(354,549,o),
(354,514,cs),
(354,482,o),
(336,459,o),
(314,445,c),
(384,375,l),
(435,398,o),
(482,450,o),
(482,513,cs),
(482,598,o),
(407,670,o),
(295,670,cs),
(173,670,o),
(100,606,o),
(100,506,cs),
(100,455,o),
(129,410,o),
(158,379,c),
(85,349,o),
(15,289,o),
(15,188,cs),
(15,76,o),
(98,-11,o),
(257,-11,cs)
);
},
{
closed = 1;
nodes = (
(203,97,o),
(156,134,o),
(156,193,cs),
(156,251,o),
(191,283,o),
(225,299,c),
(380,139,l),
(366,122,o),
(327,97,o),
(275,97,cs)
);
}
);
vertWidth = 1130;
width = 675;
},
{
layerId = master03;
shapes = (
{
closed = 1;
nodes = (
(362,-8,o),
(429,31,o),
(482,90,c),
(570,0,l),
(632,0,l),
(508,128,l),
(535,169,o),
(566,232,o),
(586,294,c),
(544,311,l),
(526,252,o),
(496,188,o),
(477,159,c),
(255,387,ls),
(213,431,o),
(176,470,o),
(176,534,cs),
(176,583,o),
(205,628,o),
(277,628,cs),
(343,628,o),
(380,585,o),
(380,529,cs),
(380,474,o),
(349,439,o),
(297,414,c),
(324,382,l),
(399,418,o),
(434,468,o),
(434,533,cs),
(434,616,o),
(371,670,o),
(280,670,cs),
(197,670,o),
(122,621,o),
(122,533,cs),
(122,469,o),
(160,421,o),
(202,378,c),
(89,336,o),
(30,283,o),
(30,180,cs),
(30,74,o),
(124,-8,o),
(255,-8,cs)
);
},
{
closed = 1;
nodes = (
(157,34,o),
(84,93,o),
(84,182,cs),
(84,259,o),
(131,309,o),
(234,346,c),
(451,122,l),
(424,87,o),
(357,34,o),
(262,34,cs)
);
}
);
vertWidth = 814;
width = 622;
},
{
layerId = master04;
shapes = (
{
closed = 1;
nodes = (
(364,-8,o),
(432,33,o),
(478,84,c),
(560,0,l),
(645,0,l),
(515,132,l),
(542,172,o),
(572,231,o),
(592,291,c),
(535,314,l),
(519,264,o),
(493,207,o),
(473,175,c),
(280,371,ls),
(227,425,o),
(190,468,o),
(190,531,cs),
(190,578,o),
(219,616,o),
(280,616,cs),
(337,616,o),
(372,578,o),
(372,527,cs),
(372,479,o),
(345,446,o),
(302,424,c),
(336,383,l),
(402,416,o),
(440,464,o),
(440,531,cs),
(440,614,o),
(374,670,o),
(283,670,cs),
(196,670,o),
(121,619,o),
(121,531,cs),
(121,469,o),
(155,420,o),
(193,379,c),
(94,340,o),
(30,283,o),
(30,183,cs),
(30,74,o),
(122,-8,o),
(256,-8,cs)
);
},
{
closed = 1;
nodes = (
(167,47,o),
(100,99,o),
(100,185,cs),
(100,257,o),
(149,305,o),
(230,338,c),
(437,126,l),
(408,88,o),
(340,47,o),
(265,47,cs)
);
}
);
vertWidth = 1130;
width = 640;
},
{
layerId = master05;
shapes = (
{
closed = 1;
nodes = (
(364,-9,o),
(436,31,o),
(473,74,c),
(545,0,l),
(669,0,l),
(531,140,l),
(556,177,o),
(585,233,o),
(606,292,c),
(525,324,l),
(511,284,o),
(490,234,o),
(470,201,c),
(305,369,ls),
(247,428,o),
(215,470,o),
(215,524,cs),
(215,568,o),
(242,596,o),
(290,596,cs),
(334,596,o),
(365,565,o),
(365,522,cs),
(365,484,o),
(344,453,o),
(313,437,c),
(361,382,l),
(417,409,o),
(459,456,o),
(459,526,cs),
(459,610,o),
(389,670,o),
(292,670,cs),
(193,670,o),
(119,614,o),
(119,523,cs),
(119,467,o),
(149,414,o),
(182,380,c),
(90,340,o),
(30,279,o),
(30,186,cs),
(30,69,o),
(122,-9,o),
(262,-9,cs)
);
},
{
closed = 1;
nodes = (
(186,69,o),
(130,110,o),
(130,189,cs),
(130,255,o),
(176,296,o),
(230,322,c),
(418,131,l),
(389,95,o),
(334,69,o),
(274,69,cs)
);
}
);
vertWidth = 1130;
width = 669;
},
{
layerId = master06;
shapes = (
{
closed = 1;
nodes = (
(366,-8,o),
(436,36,o),
(474,78,c),
(550,0,l),
(658,0,l),
(523,136,l),
(550,176,o),
(578,230,o),
(599,289,c),
(527,318,l),
(513,276,o),
(491,226,o),
(469,191,c),
(301,361,ls),
(239,423,o),
(204,469,o),
(204,528,cs),
(204,573,o),
(233,604,o),
(284,604,cs),
(331,604,o),
(364,572,o),
(364,525,cs),
(364,484,o),
(342,453,o),
(307,434,c),
(348,385,l),
(406,414,o),
(446,460,o),
(446,530,cs),
(446,613,o),
(378,670,o),
(286,670,cs),
(195,670,o),
(120,617,o),
(120,529,cs),
(120,469,o),
(151,419,o),
(185,380,c),
(100,345,o),
(30,284,o),
(30,186,cs),
(30,74,o),
(120,-8,o),
(258,-8,cs)
);
},
{
closed = 1;
nodes = (
(177,60,o),
(116,105,o),
(116,188,cs),
(116,255,o),
(168,302,o),
(227,330,c),
(423,131,l),
(392,89,o),
(324,60,o),
(268,60,cs)
);
}
);
width = 658;
},
{
layerId = master07;
shapes = (
{
closed = 1;
nodes = (
(363,-10,o),
(434,29,o),
(471,69,c),
(539,0,l),
(677,0,l),
(537,143,l),
(560,178,o),
(591,237,o),
(611,294,c),
(522,330,l),
(508,290,o),
(488,243,o),
(469,212,c),
(308,377,ls),
(253,433,o),
(225,471,o),
(225,520,cs),
(225,561,o),
(248,589,o),
(294,589,cs),
(335,589,o),
(365,559,o),
(365,519,cs),
(365,484,o),
(344,455,o),
(316,439,c),
(372,380,l),
(426,406,o),
(470,453,o),
(470,521,cs),
(470,608,o),
(395,670,o),
(296,670,cs),
(189,670,o),
(116,611,o),
(116,517,cs),
(116,463,o),
(145,412,o),
(177,379,c),
(79,336,o),
(28,273,o),
(28,187,cs),
(28,68,o),
(119,-10,o),
(263,-10,cs)
);
},
{
closed = 1;
nodes = (
(196,78,o),
(142,116,o),
(142,190,cs),
(142,253,o),
(184,291,o),
(232,314,c),
(408,134,l),
(384,103,o),
(335,78,o),
(277,78,cs)
);
}
);
vertWidth = 1130;
width = 675;
}
);
unicode = 38;
},
{
glyphname = quotesingle;
layers = (
{
layerId = master01;
shapes = (
{
closed = 1;
nodes = (
(141,414,l),
(156,646,l),
(43,646,l),
(59,414,l)
);
}
);
vertWidth = 1130;
width = 200;
},
{
layerId = master02;
shapes = (
{
closed = 1;
nodes = (
(149,410,l),
(164,647,l),
(41,647,l),
(57,410,l)
);
}
);
vertWidth = 1130;
width = 205;
},
{
layerId = master03;
shapes = (
{
closed = 1;
nodes = (
(93,428,l),
(104,645,l),
(51,645,l),
(61,428,l)
);
}
);
vertWidth = 814;
width = 155;
},
{
layerId = master04;
shapes = (
{
closed = 1;
nodes = (
(105,428,l),
(119,645,l),
(51,645,l),
(63,428,l)
);
}
);
vertWidth = 1130;
width = 170;
},
{
layerId = master05;
shapes = (
{
closed = 1;
nodes = (
(126,423,l),
(141,645,l),
(48,645,l),
(64,423,l)
);
}
);
vertWidth = 1130;
width = 190;
},
{
layerId = master06;
shapes = (
{
closed = 1;
nodes = (
(118,428,l),
(134,645,l),
(51,645,l),
(66,428,l)
);
}
);
width = 185;
},
{
layerId = master07;
shapes = (
{
closed = 1;
nodes = (
(133,419,l),
(149,646,l),
(46,646,l),
(61,419,l)
);
}
);
vertWidth = 1130;
width = 195;
}
);
unicode = 39;
},
{
glyphname = parenleft;
layers = (
{
layerId = master01;
shapes = (
{
closed = 1;
nodes = (
(194,23,o),
(151,132,o),
(151,275,cs),
(151,419,o),
(199,544,o),
(262,645,c),
(195,684,l),
(113,593,o),
(40,453,o),
(40,275,cs),
(40,96,o),
(114,-34,o),
(193,-135,c),
(262,-94,l)
);
}
);
vertWidth = 1130;
width = 293;
},
{
layerId = master02;
shapes = (
{
closed = 1;
nodes = (
(201,27,o),
(159,134,o),
(159,275,cs),
(159,417,o),
(207,543,o),
(267,643,c),
(193,684,l),
(108,593,o),
(38,453,o),
(38,275,cs),
(38,96,o),
(111,-35,o),
(191,-135,c),
(267,-89,l)
);
}
);
vertWidth = 1130;
width = 295;
},
{
layerId = master03;
shapes = (
{
closed = 1;
nodes = (
(145,12,o),
(98,122,o),
(98,269,cs),
(98,417,o),
(150,539,o),
(229,645,c),
(194,670,l),
(122,581,o),
(45,443,o),
(45,269,cs),
(45,98,o),
(118,-30,o),
(191,-131,c),
(230,-111,l)
);
}
);
vertWidth = 814;
width = 266;
},
{
layerId = master04;
shapes = (
{
closed = 1;
nodes = (
(156,12,o),
(112,122,o),
(112,269,cs),
(112,417,o),
(162,538,o),
(235,642,c),
(196,670,l),
(123,581,o),
(46,443,o),
(46,269,cs),
(46,96,o),
(120,-30,o),
(194,-132,c),
(235,-109,l)
);
}
);
vertWidth = 1130;
width = 272;
},
{
layerId = master05;
shapes = (
{
closed = 1;
nodes = (
(176,7,o),
(134,115,o),
(134,259,cs),
(134,404,o),
(181,525,o),
(247,626,c),
(195,660,l),
(120,571,o),
(44,433,o),
(44,259,cs),
(44,85,o),
(118,-41,o),
(193,-142,c),
(247,-111,l)
);
}
);
vertWidth = 1130;
width = 282;
},
{
layerId = master06;
shapes = (
{
closed = 1;
nodes = (
(169,14,o),
(127,123,o),
(127,269,cs),
(127,415,o),
(175,535,o),
(243,639,c),
(198,670,l),
(125,581,o),
(46,443,o),
(46,269,cs),
(46,95,o),
(122,-30,o),
(196,-132,c),
(243,-105,l)
);
}
);
width = 280;
},
{
layerId = master07;
shapes = (
{
closed = 1;
nodes = (
(185,20,o),
(143,128,o),
(143,272,cs),
(143,416,o),
(191,539,o),
(255,641,c),
(196,677,l),
(117,587,o),
(42,448,o),
(42,272,cs),
(42,96,o),
(117,-32,o),
(194,-134,c),
(255,-97,l)
);
}
);
vertWidth = 1130;
width = 288;
}
);
unicode = 40;
},
{
glyphname = parenright;
layers = (
{
layerId = master01;
shapes = (
{
closed = 1;
nodes = (
(94,541,o),
(142,419,o),
(142,275,cs),
(142,132,o),
(97,20,o),
(30,-93,c),
(99,-135,l),
(178,-38,o),
(253,96,o),
(253,275,cs),
(253,453,o),
(180,589,o),
(98,684,c),
(30,646,l)
);
}
);
vertWidth = 1130;
width = 293;
},
{
layerId = master02;
shapes = (
{
closed = 1;
nodes = (
(88,543,o),
(137,417,o),
(137,275,cs),
(137,134,o),
(94,27,o),
(29,-89,c),
(105,-135,l),
(184,-35,o),
(257,96,o),
(257,275,cs),
(257,453,o),
(187,593,o),
(103,684,c),
(29,643,l)
);
}
);
vertWidth = 1130;
width = 295;
},
{
layerId = master03;
shapes = (
{
closed = 1;
nodes = (
(121,526,o),
(168,415,o),
(168,269,cs),
(168,120,o),
(116,-1,o),
(36,-108,c),
(71,-132,l),
(145,-43,o),
(219,96,o),
(219,269,cs),
(219,440,o),
(148,568,o),
(74,669,c),
(35,648,l)
);
}
);
vertWidth = 814;
width = 266;
},
{
layerId = master04;
shapes = (
{
closed = 1;
nodes = (
(116,526,o),
(161,416,o),
(161,269,cs),
(161,121,o),
(111,0,o),
(37,-105,c),
(76,-132,l),
(150,-43,o),
(226,95,o),
(226,269,cs),
(226,442,o),
(153,568,o),
(78,670,c),
(37,646,l)
);
}
);
vertWidth = 1130;
width = 272;
},
{
layerId = master05;
shapes = (
{
closed = 1;
nodes = (
(104,516,o),
(148,404,o),
(148,259,cs),
(148,114,o),
(101,-2,o),
(34,-107,c),
(86,-142,l),
(162,-51,o),
(238,85,o),
(238,259,cs),
(238,433,o),
(165,561,o),
(87,660,c),
(34,630,l)
);
}
);
vertWidth = 1130;
width = 282;
},
{
layerId = master06;
shapes = (
{
closed = 1;
nodes = (
(111,524,o),
(153,415,o),
(153,269,cs),
(153,123,o),
(105,3,o),
(37,-101,c),
(82,-132,l),
(155,-43,o),
(233,95,o),
(233,269,cs),
(233,443,o),
(158,568,o),
(84,670,c),
(37,643,l)
);
}
);
width = 280;
},
{
layerId = master07;
shapes = (
{
closed = 1;
nodes = (
(100,534,o),
(145,416,o),
(145,271,cs),
(145,128,o),
(100,15,o),
(33,-95,c),
(93,-134,l),
(169,-39,o),
(245,96,o),
(245,271,cs),
(245,448,o),
(172,581,o),
(93,677,c),
(33,643,l)
);
}
);
vertWidth = 1130;
width = 288;
}
);
unicode = 41;
},
{
glyphname = asterisk;
layers = (
{
layerId = master01;
shapes = (
{
closed = 1;
nodes = (
(165,418,l),
(192,492,l),
(218,419,l),
(259,360,l),
(325,409,l),
(282,468,l),
(223,515,l),
(299,516,l),
(368,539,l),
(343,614,l),
(276,593,l),
(209,553,l),
(233,625,l),
(233,695,l),
(150,695,l),
(150,625,l),
(175,553,l),
(108,594,l),
(39,614,l),
(15,539,l),
(85,517,l),
(160,515,l),
(100,467,l),
(56,409,l),
(121,360,l)
);
}
);
vertWidth = 1130;
width = 373;
},
{
layerId = master02;
shapes = (
{
closed = 1;
nodes = (
(172,415,l),
(197,489,l),
(221,416,l),
(264,355,l),
(336,408,l),
(291,469,l),
(231,514,l),
(307,513,l),
(378,537,l),
(351,619,l),
(281,597,l),
(216,556,l),
(242,626,l),
(242,699,l),
(152,699,l),
(152,626,l),
(179,556,l),
(113,598,l),
(42,619,l),
(15,537,l),
(88,514,l),
(162,514,l),
(102,468,l),
(56,408,l),
(127,355,l)
);
}
);
vertWidth = 1130;
width = 383;
},
{
layerId = master03;
shapes = (
{
closed = 1;
nodes = (
(133,435,l),
(174,504,l),
(215,435,l),
(252,383,l),
(284,406,l),
(246,458,l),
(192,518,l),
(272,536,l),
(333,555,l),
(321,593,l),
(261,575,l),
(184,540,l),
(194,622,l),
(194,684,l),
(154,684,l),
(154,622,l),
(164,540,l),
(87,574,l),
(27,592,l),
(15,554,l),
(76,535,l),
(156,518,l),
(101,458,l),
(62,406,l),
(94,383,l)
);
}
);
vertWidth = 814;
width = 338;
},
{
layerId = master04;
shapes = (
{
closed = 1;
nodes = (
(138,432,l),
(175,502,l),
(212,432,l),
(249,380,l),
(289,409,l),
(251,461,l),
(195,517,l),
(274,531,l),
(335,550,l),
(320,597,l),
(260,579,l),
(186,542,l),
(200,622,l),
(200,684,l),
(150,684,l),
(150,622,l),
(164,542,l),
(89,578,l),
(29,596,l),
(14,550,l),
(75,531,l),
(154,517,l),
(98,461,l),
(59,409,l),
(99,380,l)
);
}
);
vertWidth = 1130;
width = 340;
},
{
layerId = master05;
shapes = (
{
closed = 1;
nodes = (
(150,425,l),
(181,497,l),
(212,426,l),
(250,371,l),
(304,411,l),
(265,465,l),
(207,516,l),
(284,523,l),
(348,544,l),
(328,605,l),
(265,586,l),
(196,548,l),
(215,623,l),
(215,688,l),
(147,688,l),
(147,623,l),
(168,548,l),
(97,587,l),
(34,605,l),
(14,544,l),
(78,524,l),
(155,516,l),
(97,465,l),
(57,411,l),
(110,371,l)
);
}
);
vertWidth = 1130;
width = 352;
},
{
layerId = master06;
shapes = (
{
closed = 1;
nodes = (
(143,429,l),
(176,500,l),
(209,429,l),
(246,377,l),
(294,412,l),
(256,464,l),
(199,517,l),
(277,527,l),
(338,546,l),
(320,601,l),
(260,583,l),
(189,545,l),
(206,622,l),
(206,684,l),
(146,684,l),
(146,622,l),
(164,545,l),
(92,583,l),
(32,601,l),
(14,546,l),
(75,527,l),
(153,517,l),
(96,464,l),
(57,412,l),
(104,377,l)
);
}
);
width = 342;
},
{
layerId = master07;
shapes = (
{
closed = 1;
nodes = (
(157,422,l),
(186,494,l),
(215,422,l),
(255,366,l),
(315,410,l),
(273,466,l),
(215,515,l),
(292,520,l),
(358,541,l),
(335,610,l),
(270,590,l),
(202,550,l),
(224,624,l),
(224,691,l),
(149,691,l),
(149,624,l),
(171,550,l),
(102,590,l),
(37,610,l),
(14,541,l),
(81,520,l),
(157,515,l),
(99,466,l),
(56,410,l),
(115,366,l)
);
}
);
vertWidth = 1130;
width = 362;
}
);
unicode = 42;
},
{
glyphname = plus;
layers = (
{
layerId = master01;
shapes = (
{
closed = 1;
nodes = (
(304,520,l),
(222,520,l),
(222,328,l),
(30,328,l),
(30,246,l),
(222,246,l),
(222,54,l),
(304,54,l),
(304,246,l),
(496,246,l),
(496,328,l),
(304,328,l)
);
}
);
vertWidth = 1130;
width = 526;
},
{
layerId = master02;
shapes = (
{
closed = 1;
nodes = (
(307,520,l),
(218,520,l),
(218,331,l),
(29,331,l),
(29,241,l),
(218,241,l),
(218,52,l),
(307,52,l),
(307,241,l),
(496,241,l),
(496,331,l),
(307,331,l)
);
}
);
vertWidth = 1130;
width = 524;
},
{
layerId = master03;
shapes = (
{
closed = 1;
nodes = (
(283,509,l),
(239,509,l),
(239,305,l),
(36,305,l),
(36,264,l),
(239,264,l),
(239,60,l),
(283,60,l),
(283,264,l),
(484,264,l),
(484,305,l),
(283,305,l)
);
}
);
vertWidth = 814;
width = 523;
},
{
layerId = master04;
shapes = (
{
closed = 1;
nodes = (
(286,509,l),
(235,509,l),
(235,309,l),
(37,309,l),
(37,259,l),
(235,259,l),
(235,60,l),
(286,60,l),
(286,259,l),
(485,259,l),
(485,309,l),
(286,309,l)
);
}
);
vertWidth = 1130;
width = 523;
},
{
layerId = master05;
shapes = (
{
closed = 1;
nodes = (
(293,509,l),
(227,509,l),
(227,316,l),
(34,316,l),
(34,250,l),
(227,250,l),
(227,58,l),
(293,58,l),
(293,250,l),
(485,250,l),
(485,316,l),
(293,316,l)
);
}
);
vertWidth = 1130;
width = 520;
},
{
layerId = master06;
shapes = (
{
closed = 1;
nodes = (
(291,509,l),
(232,509,l),
(232,314,l),
(37,314,l),
(37,255,l),
(232,255,l),
(232,60,l),
(291,60,l),
(291,255,l),
(485,255,l),
(485,314,l),
(291,314,l)
);
}
);
width = 523;
},
{
layerId = master07;
shapes = (
{
closed = 1;
nodes = (
(299,514,l),
(225,514,l),
(225,322,l),
(33,322,l),
(33,248,l),
(225,248,l),
(225,56,l),
(299,56,l),
(299,248,l),
(491,248,l),
(491,322,l),
(299,322,l)
);
}
);
vertWidth = 1130;
width = 524;
}
);
unicode = 43;
},
{
glyphname = comma;
layers = (
{
layerId = master01;
shapes = (
{
closed = 1;
nodes = (
(114,-61,o),
(77,-100,o),
(37,-122,c),
(75,-174,l),
(143,-138,o),
(208,-58,o),
(208,33,cs),
(208,122,o),
(160,152,o),
(119,152,cs),
(67,152,o),
(38,115,o),
(38,74,cs),
(38,31,o),
(63,-2,o),
(108,-11,cs),
(123,-14,l)
);
}
);
vertWidth = 1130;
width = 238;
},
{
layerId = master02;
shapes = (
{
closed = 1;
nodes = (
(115,-61,o),
(76,-103,o),
(34,-126,c),
(75,-182,l),
(145,-146,o),
(216,-61,o),
(216,37,cs),
(216,129,o),
(166,164,o),
(122,164,cs),
(66,164,o),
(35,125,o),
(35,80,cs),
(35,34,o),
(62,-1,o),
(110,-11,cs),
(124,-14,l)
);
}
);
vertWidth = 1130;
width = 246;
},
{
layerId = master03;
shapes = (
{
closed = 1;
nodes = (
(89,-42,o),
(62,-77,o),
(22,-97,c),
(42,-125,l),
(93,-99,o),
(139,-44,o),
(139,16,cs),
(139,68,o),
(112,82,o),
(91,82,cs),
(67,82,o),
(50,64,o),
(50,40,cs),
(50,12,o),
(67,-4,o),
(90,-8,c),
(95,-9,l)
);
}
);
vertWidth = 814;
width = 162;
},
{
layerId = master04;
shapes = (
{
closed = 1;
nodes = (
(99,-51,o),
(71,-83,o),
(33,-103,c),
(58,-137,l),
(115,-106,o),
(161,-47,o),
(161,19,cs),
(161,84,o),
(127,99,o),
(101,99,cs),
(69,99,o),
(49,75,o),
(49,47,cs),
(49,18,o),
(67,-5,o),
(95,-9,c),
(107,-11,l)
);
}
);
vertWidth = 1130;
width = 188;
},
{
layerId = master05;
shapes = (
{
closed = 1;
nodes = (
(111,-60,o),
(79,-93,o),
(42,-113,c),
(74,-157,l),
(140,-121,o),
(192,-53,o),
(192,26,cs),
(192,108,o),
(149,129,o),
(114,129,cs),
(70,129,o),
(45,96,o),
(45,61,cs),
(45,26,o),
(66,-3,o),
(103,-10,cs),
(120,-13,l)
);
}
);
vertWidth = 1130;
width = 222;
},
{
layerId = master06;
shapes = (
{
closed = 1;
nodes = (
(110,-59,o),
(80,-89,o),
(45,-108,c),
(74,-148,l),
(138,-113,o),
(184,-50,o),
(184,22,cs),
(184,101,o),
(143,117,o),
(112,117,cs),
(72,117,o),
(49,87,o),
(49,55,cs),
(49,24,o),
(67,-3,o),
(101,-9,cs),
(119,-12,l)
);
}
);
width = 214;
},
{
layerId = master07;
shapes = (
{
closed = 1;
nodes = (
(112,-60,o),
(78,-96,o),
(39,-117,c),
(74,-165,l),
(141,-130,o),
(200,-56,o),
(200,29,cs),
(200,115,o),
(154,140,o),
(117,140,cs),
(69,140,o),
(42,106,o),
(42,67,cs),
(42,29,o),
(65,-3,o),
(105,-10,cs),
(121,-13,l)
);
}
);
vertWidth = 1130;
width = 230;
}
);
unicode = 44;
},
{
glyphname = hyphen;
layers = (
{
layerId = master01;
shapes = (
{
closed = 1;
nodes = (
(30,239,l),
(250,239,l),
(250,340,l),
(30,340,l)
);
}
);
vertWidth = 1130;
width = 280;
},
{
layerId = master02;
shapes = (
{
closed = 1;
nodes = (
(30,234,l),
(250,234,l),
(250,343,l),
(30,343,l)
);
}
);
vertWidth = 1130;
width = 280;
},
{
layerId = master03;
shapes = (
{
closed = 1;
nodes = (
(30,269,l),
(250,269,l),
(250,313,l),
(30,313,l)
);
}
);
vertWidth = 814;
width = 280;
},
{
layerId = master04;
shapes = (
{
closed = 1;
nodes = (
(30,261,l),
(250,261,l),
(250,323,l),
(30,323,l)
);
}
);
vertWidth = 1130;
width = 280;
},
{
layerId = master05;
shapes = (
{
closed = 1;
nodes = (
(30,249,l),
(250,249,l),
(250,335,l),
(30,335,l)
);
}
);
vertWidth = 1130;
width = 280;
},
{
layerId = master06;
shapes = (
{
closed = 1;
nodes = (
(30,254,l),
(250,254,l),
(250,333,l),
(30,333,l)
);
}
);
width = 280;
},
{
layerId = master07;
shapes = (
{
closed = 1;
nodes = (
(30,244,l),
(250,244,l),
(250,338,l),
(30,338,l)
);
}
);
vertWidth = 1130;
width = 280;
}
);
unicode = 45;
},
{
glyphname = period;
layers = (
{
layerId = master01;
shapes = (
{
closed = 1;
nodes = (
(47,21,o),
(84,-11,o),
(127,-11,cs),
(170,-11,o),
(206,21,o),
(206,71,cs),
(206,117,o),
(170,152,o),
(127,152,cs),
(84,152,o),
(47,117,o),
(47,71,cs)
);
}
);
vertWidth = 1130;
width = 233;
},
{
layerId = master02;
shapes = (
{
closed = 1;
nodes = (
(45,23,o),
(85,-11,o),
(131,-11,cs),
(178,-11,o),
(216,23,o),
(216,77,cs),
(216,127,o),
(178,164,o),
(131,164,cs),
(85,164,o),
(45,127,o),
(45,77,cs)
);
}
);
vertWidth = 1130;
width = 241;
},
{
layerId = master03;
shapes = (
{
closed = 1;
nodes = (
(40,8,o),
(57,-8,o),
(80,-8,cs),
(102,-8,o),
(120,8,o),
(120,36,cs),
(120,62,o),
(102,80,o),
(80,80,cs),
(57,80,o),
(40,62,o),
(40,36,cs)
);
}
);
vertWidth = 814;
width = 145;
},
{
layerId = master04;
shapes = (
{
closed = 1;
nodes = (
(47,12,o),
(69,-9,o),
(97,-9,cs),
(125,-9,o),
(147,12,o),
(147,45,cs),
(147,75,o),
(125,98,o),
(97,98,cs),
(69,98,o),
(47,75,o),
(47,45,cs)
);
}
);
vertWidth = 1130;
width = 178;
},
{
layerId = master05;
shapes = (
{
closed = 1;
nodes = (
(52,18,o),
(83,-10,o),
(119,-10,cs),
(155,-10,o),
(185,18,o),
(185,60,cs),
(185,98,o),
(155,128,o),
(119,128,cs),
(83,128,o),
(52,98,o),
(52,60,cs)
);
}
);
vertWidth = 1130;
width = 218;
},
{
layerId = master06;
shapes = (
{
closed = 1;
nodes = (
(54,16,o),
(82,-9,o),
(115,-9,cs),
(148,-9,o),
(175,16,o),
(175,54,cs),
(175,89,o),
(148,116,o),
(115,116,cs),
(82,116,o),
(54,89,o),
(54,54,cs)
);
}
);
width = 211;
},
{
layerId = master07;
shapes = (
{
closed = 1;
nodes = (
(49,19,o),
(83,-10,o),
(123,-10,cs),
(163,-10,o),
(195,19,o),
(195,65,cs),
(195,108,o),
(163,140,o),
(123,140,cs),
(83,140,o),
(49,108,o),
(49,65,cs)
);
}
);
vertWidth = 1130;
width = 226;
}
);
unicode = 46;
},
{
glyphname = slash;
layers = (
{
layerId = master01;
shapes = (
{
closed = 1;
nodes = (
(351,712,l),
(259,712,l),
(-1,-104,l),
(91,-104,l)
);
}
);
vertWidth = 1130;
width = 349;
},
{
layerId = master02;
shapes = (
{
closed = 1;
nodes = (
(350,712,l),
(250,712,l),
(-1,-104,l),
(99,-104,l)
);
}
);
vertWidth = 1130;
width = 347;
},
{
layerId = master03;
shapes = (
{
closed = 1;
nodes = (
(352,696,l),
(306,696,l),
(-2,-101,l),
(44,-101,l)
);
}
);
vertWidth = 814;
width = 349;
},
{
layerId = master04;
shapes = (
{
closed = 1;
nodes = (
(352,697,l),
(295,697,l),
(-1,-101,l),
(56,-101,l)
);
}
);
vertWidth = 1130;
width = 349;
},
{
layerId = master05;
shapes = (
{
closed = 1;
nodes = (
(349,697,l),
(272,697,l),
(-1,-101,l),
(75,-101,l)
);
}
);
vertWidth = 1130;
width = 346;
},
{
layerId = master06;
shapes = (
{
closed = 1;
nodes = (
(352,697,l),
(282,697,l),
(-1,-101,l),
(69,-101,l)
);
}
);
width = 349;
},
{
layerId = master07;
shapes = (
{
closed = 1;
nodes = (
(351,705,l),
(266,705,l),
(-1,-102,l),
(84,-102,l)
);
}
);
vertWidth = 1130;
width = 348;
}
);
unicode = 47;
},
{
glyphname = zero;
layers = (
{
layerId = master01;
shapes = (
{
closed = 1;
nodes = (
(151,609,o),
(33,509,o),
(33,300,cs),
(33,82,o),
(139,-10,o),
(280,-10,cs),
(411,-10,o),
(527,85,o),
(527,300,cs),
(527,519,o),
(423,609,o),
(281,609,cs)
);
},
{
closed = 1;
nodes = (
(163,467,o),
(219,515,o),
(281,515,cs),
(343,515,o),
(397,469,o),
(397,300,cs),
(397,133,o),
(343,84,o),
(281,84,cs),
(219,84,o),
(163,131,o),
(163,300,cs)
);
}
);
vertWidth = 1130;
width = 560;
},
{
layerId = master02;
shapes = (
{
closed = 1;
nodes = (
(151,610,o),
(31,510,o),
(31,301,cs),
(31,83,o),
(139,-10,o),
(283,-10,cs),
(416,-10,o),
(535,87,o),
(535,301,cs),
(535,520,o),
(428,610,o),
(284,610,cs)
);
},
{
closed = 1;
nodes = (
(176,461,o),
(227,506,o),
(284,506,cs),
(341,506,o),
(390,460,o),
(390,301,cs),
(390,142,o),
(341,93,o),
(284,93,cs),
(227,93,o),
(176,142,o),
(176,301,cs)
);
}
);
vertWidth = 1130;
width = 565;
},
{
layerId = master03;
shapes = (
{
closed = 1;
nodes = (
(148,592,o),
(48,488,o),
(48,293,cs),
(48,88,o),
(148,-7,o),
(268,-7,cs),
(387,-7,o),
(486,88,o),
(486,293,cs),
(486,498,o),
(389,592,o),
(268,592,cs)
);
},
{
closed = 1;
nodes = (
(99,471,o),
(179,552,o),
(265,552,cs),
(352,552,o),
(436,480,o),
(436,293,cs),
(436,115,o),
(357,34,o),
(270,34,cs),
(183,34,o),
(99,105,o),
(99,293,cs)
);
}
);
vertWidth = 814;
width = 535;
},
{
layerId = master04;
shapes = (
{
closed = 1;
nodes = (
(148,593,o),
(45,493,o),
(45,293,cs),
(45,84,o),
(143,-8,o),
(268,-8,cs),
(388,-8,o),
(491,84,o),
(491,293,cs),
(491,502,o),
(393,593,o),
(268,593,cs)
);
},
{
closed = 1;
nodes = (
(112,476,o),
(185,542,o),
(266,542,cs),
(348,542,o),
(424,485,o),
(424,293,cs),
(424,110,o),
(351,44,o),
(270,44,cs),
(188,44,o),
(112,100,o),
(112,293,cs)
);
}
);
vertWidth = 1130;
width = 535;
},
{
layerId = master05;
shapes = (
{
closed = 1;
nodes = (
(147,595,o),
(37,498,o),
(37,293,cs),
(37,79,o),
(137,-9,o),
(270,-9,cs),
(393,-9,o),
(502,81,o),
(502,293,cs),
(502,507,o),
(404,595,o),
(271,595,cs)
);
},
{
closed = 1;
nodes = (
(137,472,o),
(200,522,o),
(270,522,cs),
(339,522,o),
(403,478,o),
(403,293,cs),
(403,114,o),
(340,64,o),
(271,64,cs),
(201,64,o),
(137,108,o),
(137,293,cs)
);
}
);
vertWidth = 1130;
width = 539;
},
{
layerId = master06;
shapes = (
{
closed = 1;
nodes = (
(147,594,o),
(40,498,o),
(40,293,cs),
(40,79,o),
(138,-8,o),
(268,-8,cs),
(389,-8,o),
(496,79,o),
(496,293,cs),
(496,507,o),
(398,594,o),
(268,594,cs)
);
},
{
closed = 1;
nodes = (
(126,479,o),
(193,530,o),
(267,530,cs),
(341,530,o),
(410,487,o),
(410,293,cs),
(410,107,o),
(343,56,o),
(269,56,cs),
(194,56,o),
(126,98,o),
(126,293,cs)
);
}
);
width = 535;
},
{
layerId = master07;
shapes = (
{
closed = 1;
nodes = (
(149,602,o),
(36,504,o),
(36,297,cs),
(36,81,o),
(138,-9,o),
(275,-9,cs),
(402,-9,o),
(515,83,o),
(515,297,cs),
(515,513,o),
(413,602,o),
(275,602,cs)
);
},
{
closed = 1;
nodes = (
(150,470,o),
(210,518,o),
(275,518,cs),
(341,518,o),
(400,474,o),
(400,297,cs),
(400,124,o),
(342,74,o),
(276,74,cs),
(211,74,o),
(150,119,o),
(150,297,cs)
);
}
);
vertWidth = 1130;
width = 550;
}
);
unicode = 48;
},
{
glyphname = one;
layers = (
{
layerId = master01;
shapes = (
{
closed = 1;
nodes = (
(74,429,l),
(185,483,l),
(185,0,l),
(310,0,l),
(310,598,l),
(206,598,l),
(45,523,l)
);
}
);
vertWidth = 1130;
width = 389;
},
{
layerId = master02;
shapes = (
{
closed = 1;
nodes = (
(75,419,l),
(188,473,l),
(188,0,l),
(327,0,l),
(327,598,l),
(209,598,l),
(43,522,l)
);
}
);
vertWidth = 1130;
width = 403;
},
{
layerId = master03;
shapes = (
{
closed = 1;
nodes = (
(61,477,l),
(183,530,l),
(183,0,l),
(232,0,l),
(232,586,l),
(194,586,l),
(50,519,l)
);
}
);
vertWidth = 814;
width = 315;
},
{
layerId = master04;
shapes = (
{
closed = 1;
nodes = (
(66,465,l),
(179,516,l),
(179,0,l),
(243,0,l),
(243,586,l),
(195,586,l),
(51,520,l)
);
}
);
vertWidth = 1130;
width = 326;
},
{
layerId = master05;
shapes = (
{
closed = 1;
nodes = (
(71,442,l),
(177,491,l),
(177,0,l),
(271,0,l),
(271,586,l),
(197,586,l),
(48,517,l)
);
}
);
vertWidth = 1130;
width = 352;
},
{
layerId = master06;
shapes = (
{
closed = 1;
nodes = (
(70,452,l),
(175,500,l),
(175,0,l),
(255,0,l),
(255,586,l),
(195,586,l),
(51,520,l)
);
}
);
width = 339;
},
{
layerId = master07;
shapes = (
{
closed = 1;
nodes = (
(72,435,l),
(181,487,l),
(181,0,l),
(290,0,l),
(290,592,l),
(202,592,l),
(47,521,l)
);
}
);
vertWidth = 1130;
width = 370;
}
);
unicode = 49;
},
{
glyphname = two;
layers = (
{
layerId = master01;
shapes = (
{
closed = 1;
nodes = (
(256,512,o),
(290,481,o),
(290,423,cs),
(290,358,o),
(248,296,o),
(121,169,cs),
(35,84,l),
(58,0,l),
(425,0,l),
(425,98,l),
(185,98,l),
(245,154,ls),
(355,258,o),
(418,350,o),
(418,433,cs),
(418,534,o),
(347,609,o),
(226,609,cs),
(148,609,o),
(93,585,o),
(44,545,c),
(96,466,l),
(136,499,o),
(171,512,o),
(211,512,cs)
);
}
);
vertWidth = 1130;
width = 466;
},
{
layerId = master02;
shapes = (
{
closed = 1;
nodes = (
(248,504,o),
(280,478,o),
(280,422,cs),
(280,360,o),
(244,303,o),
(121,180,cs),
(33,92,l),
(58,0,l),
(428,0,l),
(428,107,l),
(199,107,l),
(259,164,ls),
(366,264,o),
(423,354,o),
(423,434,cs),
(423,536,o),
(348,610,o),
(231,610,cs),
(142,610,o),
(86,582,o),
(40,544,c),
(97,457,l),
(136,489,o),
(171,504,o),
(210,504,cs)
);
}
);
vertWidth = 1130;
width = 468;
},
{
layerId = master03;
shapes = (
{
closed = 1;
nodes = (
(285,552,o),
(327,502,o),
(327,423,cs),
(327,335,o),
(265,251,o),
(120,110,cs),
(41,33,l),
(49,0,l),
(403,0,l),
(403,41,l),
(111,41,l),
(193,120,ls),
(323,246,o),
(379,335,o),
(379,425,cs),
(379,522,o),
(321,592,o),
(206,592,cs),
(158,592,o),
(103,583,o),
(47,536,c),
(71,501,l),
(118,542,o),
(164,552,o),
(206,552,cs)
);
}
);
vertWidth = 814;
width = 443;
},
{
layerId = master04;
shapes = (
{
closed = 1;
nodes = (
(282,540,o),
(320,492,o),
(320,420,cs),
(320,338,o),
(267,267,o),
(120,122,cs),
(42,45,l),
(53,0,l),
(405,0,l),
(405,53,l),
(126,53,l),
(194,121,ls),
(319,245,o),
(387,333,o),
(387,423,cs),
(387,520,o),
(328,593,o),
(206,593,cs),
(160,593,o),
(107,583,o),
(52,537,c),
(81,493,l),
(126,529,o),
(166,540,o),
(206,540,cs)
);
}
);
vertWidth = 1130;
width = 445;
},
{
layerId = master05;
shapes = (
{
closed = 1;
nodes = (
(269,519,o),
(302,477,o),
(302,417,cs),
(302,346,o),
(251,278,o),
(119,146,cs),
(39,66,l),
(57,0,l),
(411,0,l),
(411,77,l),
(156,77,l),
(212,131,ls),
(328,243,o),
(400,334,o),
(400,421,cs),
(400,520,o),
(338,595,o),
(213,595,cs),
(156,595,o),
(104,579,o),
(51,536,c),
(93,473,l),
(134,506,o),
(168,519,o),
(207,519,cs)
);
}
);
vertWidth = 1130;
width = 451;
},
{
layerId = master06;
shapes = (
{
closed = 1;
nodes = (
(277,527,o),
(312,481,o),
(312,418,cs),
(312,344,o),
(256,272,o),
(119,136,cs),
(42,59,l),
(57,0,l),
(409,0,l),
(409,68,l),
(143,68,l),
(198,121,ls),
(319,238,o),
(395,330,o),
(395,420,cs),
(395,519,o),
(337,594,o),
(208,594,cs),
(162,594,o),
(111,583,o),
(56,537,c),
(92,482,l),
(135,515,o),
(168,527,o),
(208,527,cs)
);
}
);
width = 449;
},
{
layerId = master07;
shapes = (
{
closed = 1;
nodes = (
(262,515,o),
(296,479,o),
(296,419,cs),
(296,352,o),
(250,288,o),
(119,157,cs),
(38,75,l),
(57,0,l),
(418,0,l),
(418,87,l),
(170,87,l),
(228,142,ls),
(342,251,o),
(409,342,o),
(409,427,cs),
(409,527,o),
(342,602,o),
(219,602,cs),
(152,602,o),
(99,583,o),
(48,540,c),
(94,469,l),
(135,502,o),
(169,515,o),
(209,515,cs)
);
}
);
vertWidth = 1130;
width = 459;
}
);
unicode = 50;
},
{
glyphname = three;
layers = (
{
layerId = master01;
shapes = (
{
closed = 1;
nodes = (
(121,504,o),
(152,514,o),
(186,514,cs),
(235,514,o),
(273,485,o),
(273,436,cs),
(273,379,o),
(231,347,o),
(161,347,cs),
(111,347,l),
(111,254,l),
(180,254,ls),
(253,254,o),
(292,221,o),
(292,169,cs),
(292,115,o),
(246,85,o),
(180,85,cs),
(133,85,o),
(99,98,o),
(60,115,c),
(32,26,l),
(75,3,o),
(135,-10,o),
(199,-10,cs),
(324,-10,o),
(422,45,o),
(422,166,cs),
(422,238,o),
(372,294,o),
(301,309,c),
(355,331,o),
(401,377,o),
(401,451,cs),
(401,540,o),
(325,609,o),
(209,609,cs),
(142,609,o),
(92,595,o),
(47,566,c),
(86,482,l)
);
}
);
vertWidth = 1130;
width = 475;
},
{
layerId = master02;
shapes = (
{
closed = 1;
nodes = (
(120,495,o),
(151,505,o),
(183,505,cs),
(228,505,o),
(264,482,o),
(264,433,cs),
(264,382,o),
(226,351,o),
(157,351,cs),
(109,351,l),
(109,248,l),
(177,248,ls),
(250,248,o),
(283,215,o),
(283,169,cs),
(283,124,o),
(244,95,o),
(178,95,cs),
(133,95,o),
(98,107,o),
(60,125,c),
(30,28,l),
(74,4,o),
(134,-10,o),
(202,-10,cs),
(333,-10,o),
(428,47,o),
(428,166,cs),
(428,238,o),
(379,294,o),
(307,309,c),
(361,332,o),
(407,376,o),
(407,450,cs),
(407,539,o),
(330,610,o),
(211,610,cs),
(139,610,o),
(89,595,o),
(46,567,c),
(89,474,l)
);
}
);
vertWidth = 1130;
width = 478;
},
{
layerId = master03;
shapes = (
{
closed = 1;
nodes = (
(114,543,o),
(149,552,o),
(193,552,cs),
(271,552,o),
(319,505,o),
(319,437,cs),
(319,358,o),
(249,314,o),
(167,314,cs),
(112,314,l),
(112,274,l),
(185,274,ls),
(274,274,o),
(337,230,o),
(337,157,cs),
(337,72,o),
(261,34,o),
(184,34,cs),
(131,34,o),
(85,44,o),
(49,62,c),
(38,23,l),
(76,4,o),
(135,-7,o),
(185,-7,cs),
(283,-7,o),
(388,36,o),
(388,157,cs),
(388,227,o),
(339,281,o),
(271,299,c),
(325,319,o),
(367,367,o),
(367,440,cs),
(367,527,o),
(298,592,o),
(196,592,cs),
(145,592,o),
(96,581,o),
(49,550,c),
(65,514,l)
);
}
);
vertWidth = 814;
width = 456;
},
{
layerId = master04;
shapes = (
{
closed = 1;
nodes = (
(117,533,o),
(150,541,o),
(193,541,cs),
(261,541,o),
(307,497,o),
(307,436,cs),
(307,361,o),
(245,321,o),
(167,321,cs),
(113,321,l),
(113,271,l),
(184,271,ls),
(266,271,o),
(325,232,o),
(325,161,cs),
(325,78,o),
(255,45,o),
(184,45,cs),
(130,45,o),
(93,55,o),
(54,72,c),
(39,21,l),
(77,3,o),
(134,-8,o),
(185,-8,cs),
(286,-8,o),
(392,36,o),
(392,160,cs),
(392,231,o),
(342,285,o),
(273,300,c),
(328,320,o),
(372,370,o),
(372,443,cs),
(372,529,o),
(300,593,o),
(197,593,cs),
(149,593,o),
(97,581,o),
(49,550,c),
(70,505,l)
);
}
);
vertWidth = 1130;
width = 456;
},
{
layerId = master05;
shapes = (
{
closed = 1;
nodes = (
(121,511,o),
(152,521,o),
(189,521,cs),
(243,521,o),
(285,484,o),
(285,432,cs),
(285,366,o),
(234,333,o),
(164,333,cs),
(112,333,l),
(112,260,l),
(180,260,ls),
(254,260,o),
(303,229,o),
(303,165,cs),
(303,95,o),
(246,66,o),
(182,66,cs),
(129,66,o),
(100,77,o),
(58,93,c),
(36,22,l),
(76,2,o),
(134,-9,o),
(189,-9,cs),
(299,-9,o),
(403,39,o),
(403,163,cs),
(403,233,o),
(352,287,o),
(285,302,c),
(338,323,o),
(382,371,o),
(382,444,cs),
(382,530,o),
(309,595,o),
(201,595,cs),
(148,595,o),
(95,582,o),
(48,551,c),
(78,486,l)
);
}
);
vertWidth = 1130;
width = 458;
},
{
layerId = master06;
shapes = (
{
closed = 1;
nodes = (
(123,521,o),
(153,529,o),
(193,529,cs),
(249,529,o),
(293,487,o),
(293,435,cs),
(293,364,o),
(239,329,o),
(167,329,cs),
(113,329,l),
(113,266,l),
(183,266,ls),
(257,266,o),
(312,235,o),
(312,165,cs),
(312,86,o),
(247,58,o),
(185,58,cs),
(129,58,o),
(100,68,o),
(58,84,c),
(39,20,l),
(78,2,o),
(135,-8,o),
(186,-8,cs),
(289,-8,o),
(397,37,o),
(397,163,cs),
(397,233,o),
(347,287,o),
(279,302,c),
(333,322,o),
(377,372,o),
(377,445,cs),
(377,531,o),
(304,594,o),
(199,594,cs),
(153,594,o),
(98,582,o),
(49,551,c),
(75,494,l)
);
}
);
width = 456;
},
{
layerId = master07;
shapes = (
{
closed = 1;
nodes = (
(121,508,o),
(151,517,o),
(188,517,cs),
(239,517,o),
(278,484,o),
(278,434,cs),
(278,372,o),
(232,339,o),
(162,339,cs),
(111,339,l),
(111,257,l),
(180,257,ls),
(253,257,o),
(297,225,o),
(297,166,cs),
(297,104,o),
(245,76,o),
(181,76,cs),
(131,76,o),
(99,87,o),
(58,104,c),
(35,23,l),
(76,3,o),
(134,-9,o),
(194,-9,cs),
(311,-9,o),
(412,42,o),
(412,164,cs),
(412,235,o),
(363,290,o),
(292,305,c),
(347,326,o),
(391,374,o),
(391,447,cs),
(391,535,o),
(317,602,o),
(205,602,cs),
(146,602,o),
(93,588,o),
(47,558,c),
(82,484,l)
);
}
);
vertWidth = 1130;
width = 466;
}
);
unicode = 51;
},
{
glyphname = four;
lastChange = "2022-06-08 13:23:59 +0000";
layers = (
{
layerId = master01;
shapes = (
{
closed = 1;
nodes = (
(417,0,l),
(417,138,l),
(504,138,l),
(504,236,l),
(417,236,l),
(417,598,l),
(271,598,l),
(19,219,l),
(19,138,l),
(296,138,l),
(296,0,l)
);
},
{
closed = 1;
nodes = (
(245,381,l),
(300,485,l),
(302,485,l),
(296,370,l),
(296,236,l),
(148,236,l)
);
}
);
vertWidth = 1130;
width = 530;
},
{
layerId = master02;
shapes = (
{
closed = 1;
nodes = (
(429,0,l),
(429,133,l),
(514,133,l),
(514,240,l),
(429,240,l),
(429,598,l),
(259,598,l),
(19,223,l),
(19,133,l),
(294,133,l),
(294,0,l)
);
},
{
closed = 1;
nodes = (
(240,366,l),
(298,479,l),
(300,479,l),
(294,354,l),
(294,240,l),
(161,240,l)
);
}
);
vertWidth = 1130;
width = 538;
},
{
layerId = master03;
shapes = (
{
closed = 1;
nodes = (
(365,0,l),
(365,158,l),
(466,158,l),
(466,199,l),
(365,199,l),
(365,586,l),
(308,586,l),
(18,187,l),
(18,158,l),
(314,158,l),
(314,0,l)
);
},
{
closed = 1;
nodes = (
(238,415,l),
(316,537,l),
(317,537,l),
(314,410,l),
(314,199,l),
(81,199,l)
);
}
);
vertWidth = 814;
width = 498;
},
{
layerId = master04;
shapes = (
{
closed = 1;
nodes = (
(369,0,l),
(369,153,l),
(466,153,l),
(466,207,l),
(369,207,l),
(369,586,l),
(305,586,l),
(19,193,l),
(19,153,l),
(307,153,l),
(307,0,l)
);
},
{
closed = 1;
nodes = (
(246,417,l),
(310,519,l),
(312,519,l),
(307,394,l),
(307,207,l),
(94,207,l)
);
}
);
vertWidth = 1130;
width = 498;
},
{
layerId = master05;
shapes = (
{
closed = 1;
nodes = (
(385,0,l),
(385,144,l),
(475,144,l),
(475,221,l),
(385,221,l),
(385,586,l),
(288,586,l),
(19,205,l),
(19,144,l),
(295,144,l),
(295,0,l)
);
},
{
closed = 1;
nodes = (
(250,402,l),
(299,489,l),
(300,489,l),
(295,395,l),
(295,221,l),
(122,221,l)
);
}
);
vertWidth = 1130;
width = 505;
},
{
layerId = master06;
shapes = (
{
closed = 1;
nodes = (
(374,0,l),
(374,149,l),
(466,149,l),
(466,217,l),
(374,217,l),
(374,586,l),
(300,586,l),
(19,200,l),
(19,149,l),
(298,149,l),
(298,0,l)
);
},
{
closed = 1;
nodes = (
(255,417,l),
(300,496,l),
(302,496,l),
(298,379,l),
(298,217,l),
(111,217,l)
);
}
);
width = 498;
},
{
layerId = master07;
shapes = (
{
closed = 1;
nodes = (
(401,0,l),
(401,141,l),
(490,141,l),
(490,228,l),
(401,228,l),
(401,592,l),
(280,592,l),
(19,211,l),
(19,141,l),
(296,141,l),
(296,0,l)
);
},
{
closed = 1;
nodes = (
(247,391,l),
(299,487,l),
(301,487,l),
(296,383,l),
(296,228,l),
(135,228,l)
);
}
);
vertWidth = 1130;
width = 518;
}
);
unicode = 52;
},
{
glyphname = five;
layers = (
{
layerId = master01;
shapes = (
{
closed = 1;
nodes = (
(87,282,l),
(118,289,o),
(153,294,o),
(186,294,cs),
(261,294,o),
(316,259,o),
(316,190,cs),
(316,129,o),
(272,87,o),
(190,87,cs),
(146,87,o),
(111,99,o),
(79,114,c),
(52,22,l),
(88,4,o),
(141,-10,o),
(201,-10,cs),
(370,-10,o),
(447,85,o),
(447,198,cs),
(447,327,o),
(349,383,o),
(241,383,cs),
(224,383,o),
(216,383,o),
(199,381,c),
(212,503,l),
(421,503,l),
(421,600,l),
(117,598,l)
);
}
);
vertWidth = 1130;
width = 504;
},
{
layerId = master02;
shapes = (
{
closed = 1;
nodes = (
(87,275,l),
(116,281,o),
(150,287,o),
(183,287,cs),
(256,287,o),
(309,254,o),
(309,190,cs),
(309,138,o),
(267,97,o),
(190,97,cs),
(145,97,o),
(112,108,o),
(79,124,c),
(50,23,l),
(86,5,o),
(139,-10,o),
(205,-10,cs),
(377,-10,o),
(453,85,o),
(453,199,cs),
(453,327,o),
(360,386,o),
(248,386,cs),
(233,386,o),
(227,386,o),
(209,384,c),
(221,493,l),
(427,493,l),
(427,600,l),
(117,598,l)
);
}
);
vertWidth = 1130;
width = 507;
},
{
layerId = master03;
shapes = (
{
closed = 1;
nodes = (
(68,299,l),
(101,308,o),
(129,311,o),
(165,311,cs),
(267,311,o),
(332,257,o),
(332,175,cs),
(332,77,o),
(259,34,o),
(164,34,cs),
(126,34,o),
(81,42,o),
(53,59,c),
(40,18,l),
(71,0,o),
(121,-7,o),
(166,-7,cs),
(300,-7,o),
(383,67,o),
(383,178,cs),
(383,291,o),
(286,351,o),
(182,351,cs),
(155,351,o),
(129,348,o),
(115,345,c),
(136,546,l),
(370,546,l),
(370,587,l),
(97,587,l)
);
}
);
vertWidth = 814;
width = 445;
},
{
layerId = master04;
shapes = (
{
closed = 1;
nodes = (
(86,299,l),
(120,306,o),
(152,311,o),
(186,311,cs),
(279,311,o),
(342,263,o),
(342,181,cs),
(342,89,o),
(278,46,o),
(183,46,cs),
(143,46,o),
(102,55,o),
(73,71,c),
(59,19,l),
(91,1,o),
(141,-8,o),
(185,-8,cs),
(327,-8,o),
(409,73,o),
(409,184,cs),
(409,306,o),
(306,359,o),
(208,359,cs),
(183,359,o),
(161,356,o),
(147,353,c),
(166,534,l),
(392,534,l),
(392,587,l),
(115,587,l)
);
}
);
vertWidth = 1130;
width = 472;
},
{
layerId = master05;
shapes = (
{
closed = 1;
nodes = (
(86,290,l),
(120,297,o),
(154,301,o),
(188,301,cs),
(266,301,o),
(325,264,o),
(325,187,cs),
(325,111,o),
(274,68,o),
(185,68,cs),
(144,68,o),
(108,79,o),
(77,94,c),
(56,20,l),
(91,3,o),
(141,-9,o),
(191,-9,cs),
(346,-9,o),
(425,81,o),
(425,192,cs),
(425,321,o),
(320,370,o),
(224,370,cs),
(204,370,o),
(189,369,o),
(173,366,c),
(190,511,l),
(402,511,l),
(402,586,l),
(115,586,l)
);
}
);
vertWidth = 1130;
width = 485;
},
{
layerId = master06;
shapes = (
{
closed = 1;
nodes = (
(86,297,l),
(122,304,o),
(157,309,o),
(191,309,cs),
(272,309,o),
(333,270,o),
(333,188,cs),
(333,103,o),
(279,60,o),
(185,60,cs),
(145,60,o),
(107,71,o),
(77,86,c),
(59,20,l),
(94,2,o),
(143,-8,o),
(187,-8,cs),
(339,-8,o),
(418,80,o),
(418,191,cs),
(418,322,o),
(310,368,o),
(218,368,cs),
(196,368,o),
(178,366,o),
(163,364,c),
(180,520,l),
(397,520,l),
(397,588,l),
(115,586,l)
);
}
);
width = 481;
},
{
layerId = master07;
shapes = (
{
closed = 1;
nodes = (
(86,286,l),
(118,292,o),
(153,298,o),
(187,298,cs),
(263,298,o),
(321,261,o),
(321,189,cs),
(321,120,o),
(273,78,o),
(187,78,cs),
(145,78,o),
(109,89,o),
(78,104,c),
(55,21,l),
(90,3,o),
(141,-9,o),
(196,-9,cs),
(357,-9,o),
(435,83,o),
(435,195,cs),
(435,324,o),
(335,377,o),
(232,377,cs),
(214,377,o),
(202,376,o),
(185,373,c),
(200,505,l),
(412,505,l),
(412,592,l),
(116,592,l)
);
}
);
vertWidth = 1130;
width = 494;
}
);
unicode = 53;
},
{
glyphname = six;
layers = (
{
layerId = master01;
shapes = (
{
closed = 1;
nodes = (
(174,609,o),
(35,514,o),
(35,278,cs),
(35,64,o),
(160,-10,o),
(270,-10,cs),
(400,-10,o),
(485,78,o),
(485,203,cs),
(485,326,o),
(406,400,o),
(294,400,cs),
(245,400,o),
(198,385,o),
(165,354,c),
(173,445,o),
(220,513,o),
(314,513,cs),
(350,513,o),
(378,504,o),
(404,490,c),
(432,585,l),
(395,603,o),
(355,609,o),
(312,609,cs)
);
},
{
closed = 1;
nodes = (
(165,238,o),
(170,253,o),
(180,265,c),
(196,286,o),
(225,305,o),
(265,305,cs),
(323,305,o),
(359,271,o),
(359,199,cs),
(359,137,o),
(325,83,o),
(269,83,cs),
(204,83,o),
(165,141,o),
(165,215,cs)
);
}
);
vertWidth = 1130;
width = 519;
},
{
layerId = master02;
shapes = (
{
closed = 1;
nodes = (
(177,610,o),
(33,512,o),
(33,279,cs),
(33,61,o),
(163,-10,o),
(275,-10,cs),
(408,-10,o),
(493,80,o),
(493,205,cs),
(493,327,o),
(414,403,o),
(301,403,cs),
(254,403,o),
(208,389,o),
(178,363,c),
(186,442,o),
(231,504,o),
(318,504,cs),
(353,504,o),
(382,496,o),
(408,481,c),
(439,584,l),
(401,604,o),
(359,610,o),
(315,610,cs)
);
},
{
closed = 1;
nodes = (
(177,240,o),
(183,256,o),
(194,267,c),
(208,283,o),
(234,298,o),
(269,298,cs),
(320,298,o),
(352,266,o),
(352,200,cs),
(352,143,o),
(323,92,o),
(273,92,cs),
(212,92,o),
(177,145,o),
(177,214,cs)
);
}
);
vertWidth = 1130;
width = 526;
},
{
layerId = master03;
shapes = (
{
closed = 1;
nodes = (
(170,592,o),
(41,498,o),
(41,269,cs),
(41,60,o),
(141,-7,o),
(244,-7,cs),
(355,-7,o),
(436,75,o),
(436,196,cs),
(436,319,o),
(352,385,o),
(250,385,cs),
(174,385,o),
(113,344,o),
(87,303,c),
(95,462,o),
(181,552,o),
(298,552,cs),
(332,552,o),
(358,548,o),
(385,536,c),
(396,576,l),
(362,588,o),
(335,592,o),
(291,592,cs)
);
},
{
closed = 1;
nodes = (
(91,228,o),
(95,242,o),
(99,252,cs),
(118,300,o),
(173,345,o),
(241,345,cs),
(323,345,o),
(386,295,o),
(386,193,cs),
(386,95,o),
(323,34,o),
(245,34,cs),
(160,34,o),
(91,102,o),
(91,215,cs)
);
}
);
vertWidth = 814;
width = 469;
},
{
layerId = master04;
shapes = (
{
closed = 1;
nodes = (
(166,593,o),
(42,503,o),
(42,269,cs),
(42,65,o),
(143,-8,o),
(247,-8,cs),
(362,-8,o),
(445,73,o),
(445,195,cs),
(445,317,o),
(361,385,o),
(259,385,cs),
(193,385,o),
(136,352,o),
(107,310,c),
(112,452,o),
(182,541,o),
(297,541,cs),
(331,541,o),
(359,535,o),
(385,524,c),
(401,576,l),
(366,589,o),
(335,593,o),
(292,593,cs)
);
},
{
closed = 1;
nodes = (
(109,231,o),
(112,240,o),
(117,253,c),
(137,296,o),
(183,333,o),
(246,333,cs),
(325,333,o),
(380,287,o),
(380,193,cs),
(380,103,o),
(325,43,o),
(249,43,cs),
(168,43,o),
(109,113,o),
(109,214,cs)
);
}
);
vertWidth = 1130;
width = 478;
},
{
layerId = master05;
shapes = (
{
closed = 1;
nodes = (
(165,595,o),
(39,507,o),
(39,270,cs),
(39,67,o),
(148,-9,o),
(255,-9,cs),
(376,-9,o),
(461,73,o),
(461,196,cs),
(461,317,o),
(379,387,o),
(273,387,cs),
(222,387,o),
(172,369,o),
(139,330,c),
(144,441,o),
(196,520,o),
(299,520,cs),
(334,520,o),
(364,511,o),
(389,499,c),
(411,575,l),
(377,590,o),
(339,595,o),
(297,595,cs)
);
},
{
closed = 1;
nodes = (
(139,229,o),
(141,243,o),
(150,257,cs),
(168,286,o),
(204,312,o),
(253,312,cs),
(321,312,o),
(365,275,o),
(365,193,cs),
(365,120,o),
(323,63,o),
(257,63,cs),
(185,63,o),
(139,129,o),
(139,213,cs)
);
}
);
vertWidth = 1130;
width = 494;
},
{
layerId = master06;
shapes = (
{
closed = 1;
nodes = (
(162,594,o),
(42,509,o),
(42,269,cs),
(42,70,o),
(144,-8,o),
(250,-8,cs),
(368,-8,o),
(455,72,o),
(455,194,cs),
(455,316,o),
(371,385,o),
(266,385,cs),
(214,385,o),
(162,365,o),
(127,322,c),
(131,444,o),
(187,528,o),
(296,528,cs),
(330,528,o),
(360,521,o),
(386,510,c),
(405,576,l),
(371,589,o),
(336,594,o),
(293,594,cs)
);
},
{
closed = 1;
nodes = (
(127,227,o),
(129,241,o),
(137,255,cs),
(156,289,o),
(195,320,o),
(250,320,cs),
(324,320,o),
(373,280,o),
(373,193,cs),
(373,113,o),
(325,55,o),
(253,55,cs),
(178,55,o),
(127,126,o),
(127,214,cs)
);
}
);
width = 487;
},
{
layerId = master07;
shapes = (
{
closed = 1;
nodes = (
(169,602,o),
(38,510,o),
(38,274,cs),
(38,65,o),
(153,-9,o),
(262,-9,cs),
(387,-9,o),
(474,75,o),
(474,199,cs),
(474,321,o),
(392,394,o),
(283,394,cs),
(233,394,o),
(184,377,o),
(152,342,c),
(158,443,o),
(209,516,o),
(306,516,cs),
(341,516,o),
(370,509,o),
(397,495,c),
(422,580,l),
(385,596,o),
(347,602,o),
(304,602,cs)
);
},
{
closed = 1;
nodes = (
(151,233,o),
(156,248,o),
(164,260,cs),
(181,286,o),
(214,309,o),
(259,309,cs),
(321,309,o),
(363,273,o),
(363,196,cs),
(363,128,o),
(323,73,o),
(262,73,cs),
(195,73,o),
(151,135,o),
(151,213,cs)
);
}
);
vertWidth = 1130;
width = 507;
}
);
unicode = 54;
},
{
glyphname = seven;
layers = (
{
layerId = master01;
shapes = (
{
closed = 1;
nodes = (
(47,507,l),
(312,507,l),
(71,25,l),
(180,-22,l),
(433,518,l),
(433,598,l),
(47,598,l)
);
}
);
vertWidth = 1130;
width = 470;
},
{
layerId = master02;
shapes = (
{
closed = 1;
nodes = (
(45,501,l),
(301,501,l),
(63,29,l),
(185,-24,l),
(436,511,l),
(436,598,l),
(45,598,l)
);
}
);
vertWidth = 1130;
width = 470;
},
{
layerId = master03;
shapes = (
{
closed = 1;
nodes = (
(52,545,l),
(362,545,l),
(101,12,l),
(146,-8,l),
(418,557,l),
(418,586,l),
(52,586,l)
);
}
);
vertWidth = 814;
width = 460;
},
{
layerId = master04;
shapes = (
{
closed = 1;
nodes = (
(53,532,l),
(350,532,l),
(99,12,l),
(155,-13,l),
(418,543,l),
(418,586,l),
(53,586,l)
);
}
);
vertWidth = 1130;
width = 460;
},
{
layerId = master05;
shapes = (
{
closed = 1;
nodes = (
(50,511,l),
(325,511,l),
(86,18,l),
(168,-19,l),
(419,521,l),
(419,586,l),
(50,586,l)
);
}
);
vertWidth = 1130;
width = 460;
},
{
layerId = master06;
shapes = (
{
closed = 1;
nodes = (
(53,518,l),
(336,518,l),
(95,14,l),
(165,-17,l),
(418,528,l),
(418,586,l),
(53,586,l)
);
}
);
width = 460;
},
{
layerId = master07;
shapes = (
{
closed = 1;
nodes = (
(49,509,l),
(319,509,l),
(79,21,l),
(175,-21,l),
(427,520,l),
(427,592,l),
(49,592,l)
);
}
);
vertWidth = 1130;
width = 465;
}
);
unicode = 55;
},
{
glyphname = eight;
layers = (
{
layerId = master01;
shapes = (
{
closed = 1;
nodes = (
(118,609,o),
(48,525,o),
(48,442,cs),
(48,381,o),
(90,332,o),
(145,308,c),
(78,280,o),
(29,238,o),
(29,161,cs),
(29,60,o),
(114,-10,o),
(244,-10,cs),
(375,-10,o),
(465,61,o),
(465,171,cs),
(465,248,o),
(410,294,o),
(343,317,c),
(408,344,o),
(449,391,o),
(449,454,cs),
(449,532,o),
(386,609,o),
(252,609,cs)
);
},
{
closed = 1;
nodes = (
(170,485,o),
(199,518,o),
(248,518,cs),
(295,518,o),
(327,492,o),
(327,446,cs),
(327,407,o),
(294,374,o),
(254,359,c),
(208,372,o),
(170,403,o),
(170,449,cs)
);
},
{
closed = 1;
nodes = (
(296,245,o),
(338,213,o),
(338,164,cs),
(338,120,o),
(301,83,o),
(249,83,cs),
(190,83,o),
(156,116,o),
(156,163,cs),
(156,212,o),
(191,242,o),
(240,258,c)
);
}
);
vertWidth = 1130;
width = 494;
},
{
layerId = master02;
shapes = (
{
closed = 1;
nodes = (
(118,610,o),
(47,522,o),
(47,439,cs),
(47,379,o),
(88,331,o),
(141,307,c),
(79,283,o),
(27,240,o),
(27,162,cs),
(27,62,o),
(110,-10,o),
(245,-10,cs),
(382,-10,o),
(472,65,o),
(472,175,cs),
(472,253,o),
(413,298,o),
(352,317,c),
(413,343,o),
(457,388,o),
(457,453,cs),
(457,531,o),
(392,610,o),
(256,610,cs)
);
},
{
closed = 1;
nodes = (
(182,481,o),
(209,509,o),
(251,509,cs),
(294,509,o),
(320,486,o),
(320,442,cs),
(320,409,o),
(292,376,o),
(257,364,c),
(216,374,o),
(182,406,o),
(182,448,cs)
);
},
{
closed = 1;
nodes = (
(294,241,o),
(332,210,o),
(332,167,cs),
(332,125,o),
(296,92,o),
(252,92,cs),
(200,92,o),
(168,121,o),
(168,166,cs),
(168,208,o),
(199,238,o),
(243,252,c)
);
}
);
vertWidth = 1130;
width = 499;
},
{
layerId = master03;
shapes = (
{
closed = 1;
nodes = (
(119,592,o),
(59,527,o),
(59,444,cs),
(59,380,o),
(97,335,o),
(167,307,c),
(79,277,o),
(39,228,o),
(39,152,cs),
(39,53,o),
(124,-7,o),
(235,-7,cs),
(344,-7,o),
(430,52,o),
(430,156,cs),
(430,230,o),
(382,282,o),
(299,310,c),
(387,342,o),
(415,390,o),
(415,446,cs),
(415,524,o),
(352,592,o),
(236,592,cs)
);
},
{
closed = 1;
nodes = (
(110,504,o),
(154,552,o),
(236,552,cs),
(302,552,o),
(363,513,o),
(363,445,cs),
(363,383,o),
(301,342,o),
(231,326,c),
(165,342,o),
(110,380,o),
(110,445,cs)
);
},
{
closed = 1;
nodes = (
(323,270,o),
(383,221,o),
(383,154,cs),
(383,90,o),
(328,34,o),
(235,34,cs),
(137,34,o),
(87,90,o),
(87,154,cs),
(87,225,o),
(146,271,o),
(232,285,c)
);
}
);
vertWidth = 814;
width = 470;
},
{
layerId = master04;
shapes = (
{
closed = 1;
nodes = (
(117,593,o),
(57,525,o),
(57,443,cs),
(57,379,o),
(95,333,o),
(163,305,c),
(77,272,o),
(37,227,o),
(37,151,cs),
(37,52,o),
(125,-8,o),
(236,-8,cs),
(347,-8,o),
(432,51,o),
(432,157,cs),
(432,230,o),
(387,278,o),
(302,310,c),
(384,340,o),
(417,392,o),
(417,447,cs),
(417,524,o),
(354,593,o),
(236,593,cs)
);
},
{
closed = 1;
nodes = (
(120,498,o),
(160,543,o),
(236,543,cs),
(299,543,o),
(352,507,o),
(352,446,cs),
(352,387,o),
(300,350,o),
(234,331,c),
(172,349,o),
(120,383,o),
(120,445,cs)
);
},
{
closed = 1;
nodes = (
(312,261,o),
(368,219,o),
(368,153,cs),
(368,95,o),
(319,43,o),
(236,43,cs),
(146,43,o),
(101,95,o),
(101,153,cs),
(101,222,o),
(154,261,o),
(230,280,c)
);
}
);
vertWidth = 1130;
width = 470;
},
{
layerId = master05;
shapes = (
{
closed = 1;
nodes = (
(114,595,o),
(52,519,o),
(52,437,cs),
(52,378,o),
(91,330,o),
(152,302,c),
(74,270,o),
(33,229,o),
(33,153,cs),
(33,54,o),
(120,-9,o),
(237,-9,cs),
(355,-9,o),
(441,53,o),
(441,161,cs),
(441,234,o),
(396,279,o),
(317,310,c),
(389,339,o),
(426,390,o),
(426,447,cs),
(426,524,o),
(364,595,o),
(240,595,cs)
);
},
{
closed = 1;
nodes = (
(143,485,o),
(177,525,o),
(238,525,cs),
(292,525,o),
(334,493,o),
(334,443,cs),
(334,394,o),
(293,362,o),
(242,342,c),
(190,360,o),
(143,390,o),
(143,443,cs)
);
},
{
closed = 1;
nodes = (
(296,248,o),
(345,214,o),
(345,156,cs),
(345,107,o),
(304,63,o),
(239,63,cs),
(166,63,o),
(129,105,o),
(129,155,cs),
(129,216,o),
(171,247,o),
(231,267,c)
);
}
);
vertWidth = 1130;
width = 474;
},
{
layerId = master06;
shapes = (
{
closed = 1;
nodes = (
(114,594,o),
(55,522,o),
(55,440,cs),
(55,379,o),
(93,332,o),
(156,303,c),
(73,267,o),
(35,227,o),
(35,151,cs),
(35,52,o),
(125,-8,o),
(236,-8,cs),
(350,-8,o),
(434,50,o),
(434,158,cs),
(434,231,o),
(393,274,o),
(308,310,c),
(383,339,o),
(419,393,o),
(419,448,cs),
(419,525,o),
(357,594,o),
(236,594,cs)
);
},
{
closed = 1;
nodes = (
(132,490,o),
(167,533,o),
(236,533,cs),
(294,533,o),
(341,498,o),
(341,446,cs),
(341,392,o),
(296,360,o),
(239,338,c),
(182,358,o),
(132,387,o),
(132,445,cs)
);
},
{
closed = 1;
nodes = (
(299,253,o),
(352,217,o),
(352,153,cs),
(352,101,o),
(309,55,o),
(236,55,cs),
(157,55,o),
(118,101,o),
(118,153,cs),
(118,219,o),
(164,252,o),
(229,273,c)
);
}
);
width = 470;
},
{
layerId = master07;
shapes = (
{
closed = 1;
nodes = (
(116,602,o),
(51,522,o),
(51,439,cs),
(51,379,o),
(90,331,o),
(149,305,c),
(76,274,o),
(31,233,o),
(31,156,cs),
(31,56,o),
(118,-9,o),
(241,-9,cs),
(366,-9,o),
(453,57,o),
(453,166,cs),
(453,242,o),
(403,286,o),
(330,313,c),
(398,341,o),
(438,390,o),
(438,450,cs),
(438,527,o),
(374,602,o),
(245,602,cs)
);
},
{
closed = 1;
nodes = (
(157,485,o),
(188,521,o),
(243,521,cs),
(293,521,o),
(331,493,o),
(331,444,cs),
(331,400,o),
(293,368,o),
(248,351,c),
(198,366,o),
(157,396,o),
(157,446,cs)
);
},
{
closed = 1;
nodes = (
(296,247,o),
(342,213,o),
(342,160,cs),
(342,113,o),
(303,73,o),
(243,73,cs),
(179,73,o),
(143,111,o),
(143,160,cs),
(143,213,o),
(181,244,o),
(236,262,c)
);
}
);
vertWidth = 1130;
width = 484;
}
);
unicode = 56;
},
{
glyphname = nine;
lastChange = "2022-06-08 14:39:28 +0000";
layers = (
{
layerId = master01;
shapes = (
{
closed = 1;
nodes = (
(362,-10,o),
(477,93,o),
(477,325,cs),
(477,528,o),
(370,609,o),
(258,609,cs),
(123,609,o),
(36,526,o),
(36,401,cs),
(36,276,o),
(118,205,o),
(234,205,cs),
(281,205,o),
(322,223,o),
(347,246,c),
(341,148,o),
(294,85,o),
(202,85,cs),
(158,85,o),
(124,97,o),
(97,111,c),
(70,19,l),
(104,1,o),
(150,-10,o),
(214,-10,cs)
);
},
{
closed = 1;
nodes = (
(202,300,o),
(162,333,o),
(162,407,cs),
(162,479,o),
(199,516,o),
(256,516,cs),
(312,516,o),
(347,459,o),
(347,388,cs),
(347,364,o),
(343,349,o),
(335,337,cs),
(321,316,o),
(292,300,o),
(259,300,cs)
);
}
);
vertWidth = 1130;
width = 512;
},
{
layerId = master02;
shapes = (
{
closed = 1;
nodes = (
(370,-10,o),
(486,98,o),
(486,326,cs),
(486,529,o),
(377,610,o),
(264,610,cs),
(123,610,o),
(36,526,o),
(36,401,cs),
(36,276,o),
(118,205,o),
(237,205,cs),
(283,205,o),
(319,221,o),
(342,240,c),
(335,154,o),
(292,95,o),
(206,95,cs),
(162,95,o),
(126,106,o),
(99,121,c),
(70,21,l),
(105,1,o),
(154,-10,o),
(220,-10,cs)
);
},
{
closed = 1;
nodes = (
(215,310,o),
(177,339,o),
(177,407,cs),
(177,476,o),
(213,507,o),
(263,507,cs),
(312,507,o),
(342,458,o),
(342,392,cs),
(342,366,o),
(338,349,o),
(330,338,c),
(317,322,o),
(292,310,o),
(265,310,cs)
);
}
);
vertWidth = 1130;
width = 520;
},
{
layerId = master03;
shapes = (
{
closed = 1;
nodes = (
(326,-7,o),
(430,79,o),
(430,317,cs),
(430,516,o),
(329,592,o),
(230,592,cs),
(123,592,o),
(34,521,o),
(34,391,cs),
(34,269,o),
(120,199,o),
(221,199,cs),
(299,199,o),
(356,235,o),
(382,277,c),
(375,114,o),
(303,34,o),
(184,34,cs),
(151,34,o),
(112,39,o),
(88,50,c),
(77,10,l),
(107,-3,o),
(138,-7,o),
(186,-7,cs)
);
},
{
closed = 1;
nodes = (
(147,240,o),
(85,292,o),
(85,392,cs),
(85,492,o),
(150,552,o),
(228,552,cs),
(323,552,o),
(379,449,o),
(379,357,cs),
(379,348,o),
(378,339,o),
(375,328,c),
(355,280,o),
(302,240,o),
(230,240,cs)
);
}
);
vertWidth = 814;
width = 472;
},
{
layerId = master04;
shapes = (
{
closed = 1;
nodes = (
(329,-8,o),
(434,78,o),
(434,317,cs),
(434,516,o),
(337,593,o),
(233,593,cs),
(121,593,o),
(35,517,o),
(35,392,cs),
(35,270,o),
(117,200,o),
(220,200,cs),
(287,200,o),
(341,231,o),
(368,270,c),
(364,120,o),
(301,45,o),
(186,45,cs),
(146,45,o),
(113,53,o),
(89,64,c),
(73,12,l),
(102,-1,o),
(138,-8,o),
(189,-8,cs)
);
},
{
closed = 1;
nodes = (
(154,252,o),
(100,300,o),
(100,395,cs),
(100,485,o),
(153,542,o),
(229,542,cs),
(315,542,o),
(367,451,o),
(367,361,cs),
(367,350,o),
(366,341,o),
(360,327,cs),
(341,285,o),
(296,252,o),
(232,252,cs)
);
}
);
vertWidth = 1130;
width = 476;
},
{
layerId = master05;
shapes = (
{
closed = 1;
nodes = (
(339,-9,o),
(448,82,o),
(448,317,cs),
(448,516,o),
(350,595,o),
(243,595,cs),
(119,595,o),
(35,514,o),
(35,392,cs),
(35,270,o),
(114,201,o),
(222,201,cs),
(272,201,o),
(320,221,o),
(349,253,c),
(344,134,o),
(295,66,o),
(192,66,cs),
(145,66,o),
(117,77,o),
(91,89,c),
(70,16,l),
(99,1,o),
(139,-9,o),
(197,-9,cs)
);
},
{
closed = 1;
nodes = (
(175,275,o),
(131,316,o),
(131,398,cs),
(131,474,o),
(170,523,o),
(236,523,cs),
(305,523,o),
(349,452,o),
(349,369,cs),
(349,353,o),
(346,340,o),
(339,327,c),
(321,298,o),
(286,275,o),
(242,275,cs)
);
}
);
vertWidth = 1130;
width = 487;
},
{
layerId = master06;
shapes = (
{
closed = 1;
nodes = (
(332,-8,o),
(439,77,o),
(439,317,cs),
(439,516,o),
(343,594,o),
(237,594,cs),
(119,594,o),
(35,514,o),
(35,392,cs),
(35,270,o),
(114,201,o),
(219,201,cs),
(272,201,o),
(323,223,o),
(353,259,c),
(350,128,o),
(298,58,o),
(189,58,cs),
(140,58,o),
(115,69,o),
(89,80,c),
(70,14,l),
(98,1,o),
(136,-8,o),
(192,-8,cs)
);
},
{
closed = 1;
nodes = (
(163,266,o),
(117,311,o),
(117,398,cs),
(117,477,o),
(158,531,o),
(230,531,cs),
(305,531,o),
(353,453,o),
(353,365,cs),
(353,352,o),
(352,340,o),
(344,326,cs),
(325,292,o),
(287,266,o),
(236,266,cs)
);
}
);
width = 481;
},
{
layerId = master07;
shapes = (
{
closed = 1;
nodes = (
(351,-9,o),
(462,87,o),
(462,321,cs),
(462,523,o),
(360,602,o),
(250,602,cs),
(120,602,o),
(36,520,o),
(36,396,cs),
(36,273,o),
(116,203,o),
(227,203,cs),
(277,203,o),
(321,222,o),
(348,250,c),
(342,141,o),
(294,76,o),
(197,76,cs),
(151,76,o),
(120,87,o),
(94,100,c),
(70,17,l),
(101,1,o),
(145,-9,o),
(206,-9,cs)
);
},
{
closed = 1;
nodes = (
(188,288,o),
(147,324,o),
(147,402,cs),
(147,477,o),
(185,519,o),
(246,519,cs),
(308,519,o),
(348,455,o),
(348,378,cs),
(348,358,o),
(345,344,o),
(337,332,c),
(321,306,o),
(290,288,o),
(250,288,cs)
);
}
);
vertWidth = 1130;
width = 500;
}
);
unicode = 57;
},
{
glyphname = colon;
layers = (
{
layerId = master01;
shapes = (
{
closed = 1;
nodes = (
(43,21,o),
(80,-10,o),
(123,-10,cs),
(167,-10,o),
(202,21,o),
(202,71,cs),
(202,118,o),
(167,152,o),
(123,152,cs),
(80,152,o),
(43,118,o),
(43,71,cs)
);
},
{
closed = 1;
nodes = (
(43,326,o),
(80,294,o),
(123,294,cs),
(167,294,o),
(202,326,o),
(202,376,cs),
(202,422,o),
(167,457,o),
(123,457,cs),
(80,457,o),
(43,422,o),
(43,376,cs)
);
}
);
vertWidth = 1130;
width = 245;
},
{
layerId = master02;
shapes = (
{
closed = 1;
nodes = (
(41,23,o),
(81,-11,o),
(127,-11,cs),
(174,-11,o),
(212,23,o),
(212,77,cs),
(212,127,o),
(174,164,o),
(127,164,cs),
(81,164,o),
(41,127,o),
(41,77,cs)
);
},
{
closed = 1;
nodes = (
(41,329,o),
(81,295,o),
(127,295,cs),
(174,295,o),
(212,329,o),
(212,383,cs),
(212,433,o),
(174,470,o),
(127,470,cs),
(81,470,o),
(41,433,o),
(41,383,cs)
);
}
);
vertWidth = 1130;
width = 253;
},
{
layerId = master03;
shapes = (
{
closed = 1;
nodes = (
(52,8,o),
(69,-8,o),
(92,-8,cs),
(114,-8,o),
(132,8,o),
(132,36,cs),
(132,62,o),
(114,80,o),
(92,80,cs),
(69,80,o),
(52,62,o),
(52,36,cs)
);
},
{
closed = 1;
nodes = (
(52,325,o),
(69,309,o),
(92,309,cs),
(114,309,o),
(132,325,o),
(132,353,cs),
(132,379,o),
(114,397,o),
(92,397,cs),
(69,397,o),
(52,379,o),
(52,353,cs)
);
}
);
vertWidth = 814;
width = 183;
},
{
layerId = master04;
shapes = (
{
closed = 1;
nodes = (
(51,12,o),
(74,-8,o),
(102,-8,cs),
(129,-8,o),
(152,12,o),
(152,45,cs),
(152,76,o),
(129,98,o),
(102,98,cs),
(74,98,o),
(51,76,o),
(51,45,cs)
);
},
{
closed = 1;
nodes = (
(51,321,o),
(74,300,o),
(102,300,cs),
(129,300,o),
(152,321,o),
(152,354,cs),
(152,384,o),
(129,407,o),
(102,407,cs),
(74,407,o),
(51,384,o),
(51,354,cs)
);
}
);
vertWidth = 1130;
width = 203;
},
{
layerId = master05;
shapes = (
{
closed = 1;
nodes = (
(48,20,o),
(79,-7,o),
(116,-7,cs),
(152,-7,o),
(182,20,o),
(182,62,cs),
(182,101,o),
(152,131,o),
(116,131,cs),
(79,131,o),
(48,101,o),
(48,62,cs)
);
},
{
closed = 1;
nodes = (
(48,320,o),
(79,293,o),
(116,293,cs),
(152,293,o),
(182,320,o),
(182,362,cs),
(182,401,o),
(152,430,o),
(116,430,cs),
(79,430,o),
(48,401,o),
(48,362,cs)
);
}
);
vertWidth = 1130;
width = 230;
},
{
layerId = master06;
shapes = (
{
closed = 1;
nodes = (
(51,16,o),
(79,-9,o),
(112,-9,cs),
(145,-9,o),
(172,16,o),
(172,54,cs),
(172,89,o),
(145,116,o),
(112,116,cs),
(79,116,o),
(51,89,o),
(51,54,cs)
);
},
{
closed = 1;
nodes = (
(51,317,o),
(79,292,o),
(112,292,cs),
(145,292,o),
(172,317,o),
(172,355,cs),
(172,390,o),
(145,417,o),
(112,417,cs),
(79,417,o),
(51,390,o),
(51,355,cs)
);
}
);
width = 223;
},
{
layerId = master07;
shapes = (
{
closed = 1;
nodes = (
(46,20,o),
(80,-10,o),
(119,-10,cs),
(159,-10,o),
(192,20,o),
(192,66,cs),
(192,108,o),
(159,140,o),
(119,140,cs),
(80,140,o),
(46,108,o),
(46,66,cs)
);
},
{
closed = 1;
nodes = (
(46,323,o),
(80,293,o),
(119,293,cs),
(159,293,o),
(192,323,o),
(192,369,cs),
(192,411,o),
(159,443,o),
(119,443,cs),
(80,443,o),
(46,411,o),
(46,369,cs)
);
}
);
vertWidth = 1130;
width = 238;
}
);
unicode = 58;
},
{
glyphname = semicolon;
lastChange = "2022-06-07 15:02:57 +0000";
layers = (
{
layerId = master01;
shapes = (
{
closed = 1;
nodes = (
(145,-138,o),
(210,-58,o),
(210,33,cs),
(210,122,o),
(162,152,o),
(121,152,cs),
(69,152,o),
(40,115,o),
(40,74,cs),
(40,31,o),
(65,-2,o),
(110,-11,cs),
(125,-14,l),
(116,-61,o),
(79,-100,o),
(39,-122,c),
(77,-174,l)
);
},
{
closed = 1;
nodes = (
(167,294,o),
(203,326,o),
(203,376,cs),
(203,422,o),
(167,457,o),
(124,457,cs),
(81,457,o),
(44,422,o),
(44,376,cs),
(44,326,o),
(81,294,o),
(124,294,cs)
);
}
);
vertWidth = 1130;
width = 243;
},
{
layerId = master02;
shapes = (
{
closed = 1;
nodes = (
(145,-146,o),
(216,-61,o),
(216,37,cs),
(216,129,o),
(166,164,o),
(122,164,cs),
(66,164,o),
(35,125,o),
(35,80,cs),
(35,34,o),
(62,-1,o),
(110,-11,cs),
(124,-14,l),
(115,-61,o),
(76,-103,o),
(34,-126,c),
(75,-182,l)
);
},
{
closed = 1;
nodes = (
(173,295,o),
(211,329,o),
(211,383,cs),
(211,433,o),
(173,470,o),
(126,470,cs),
(80,470,o),
(40,433,o),
(40,383,cs),
(40,329,o),
(80,295,o),
(126,295,cs)
);
}
);
vertWidth = 1130;
width = 251;
},
{
layerId = master03;
shapes = (
{
closed = 1;
nodes = (
(97,-99,o),
(143,-44,o),
(143,16,cs),
(143,68,o),
(116,82,o),
(95,82,cs),
(71,82,o),
(54,64,o),
(54,40,cs),
(54,12,o),
(72,-4,o),
(94,-8,cs),
(99,-9,l),
(93,-42,o),
(66,-77,o),
(26,-97,c),
(46,-125,l)
);
},
{
closed = 1;
nodes = (
(114,309,o),
(132,325,o),
(132,353,cs),
(132,379,o),
(114,397,o),
(92,397,cs),
(69,397,o),
(52,379,o),
(52,353,cs),
(52,325,o),
(69,309,o),
(92,309,cs)
);
}
);
vertWidth = 814;
width = 197;
},
{
layerId = master04;
shapes = (
{
closed = 1;
nodes = (
(117,-106,o),
(163,-47,o),
(163,19,cs),
(163,84,o),
(129,99,o),
(103,99,cs),
(71,99,o),
(51,75,o),
(51,47,cs),
(51,18,o),
(69,-5,o),
(97,-9,c),
(109,-11,l),
(101,-51,o),
(73,-83,o),
(35,-103,c),
(60,-137,l)
);
},
{
closed = 1;
nodes = (
(130,301,o),
(152,321,o),
(152,354,cs),
(152,385,o),
(130,407,o),
(102,407,cs),
(74,407,o),
(52,385,o),
(52,354,cs),
(52,321,o),
(74,301,o),
(102,301,cs)
);
}
);
vertWidth = 1130;
width = 208;
},
{
layerId = master05;
shapes = (
{
closed = 1;
nodes = (
(140,-121,o),
(192,-53,o),
(192,26,cs),
(192,108,o),
(149,129,o),
(114,129,cs),
(70,129,o),
(45,96,o),
(45,61,cs),
(45,26,o),
(66,-3,o),
(103,-10,cs),
(120,-13,l),
(111,-60,o),
(79,-93,o),
(42,-113,c),
(74,-157,l)
);
},
{
closed = 1;
nodes = (
(153,293,o),
(183,320,o),
(183,362,cs),
(183,401,o),
(153,430,o),
(117,430,cs),
(81,430,o),
(50,401,o),
(50,362,cs),
(50,320,o),
(81,293,o),
(117,293,cs)
);
}
);
vertWidth = 1130;
width = 227;
},
{
layerId = master06;
shapes = (
{
closed = 1;
nodes = (
(138,-113,o),
(184,-50,o),
(184,22,cs),
(184,101,o),
(143,117,o),
(112,117,cs),
(72,117,o),
(49,87,o),
(49,55,cs),
(49,24,o),
(67,-3,o),
(101,-9,cs),
(119,-12,l),
(110,-59,o),
(80,-89,o),
(45,-108,c),
(74,-148,l)
);
},
{
closed = 1;
nodes = (
(146,292,o),
(173,317,o),
(173,355,cs),
(173,390,o),
(146,417,o),
(113,417,cs),
(80,417,o),
(52,390,o),
(52,355,cs),
(52,317,o),
(80,292,o),
(113,292,cs)
);
}
);
width = 219;
},
{
layerId = master07;
shapes = (
{
closed = 1;
nodes = (
(141,-130,o),
(200,-56,o),
(200,29,cs),
(200,115,o),
(154,140,o),
(117,140,cs),
(69,140,o),
(42,106,o),
(42,67,cs),
(42,29,o),
(65,-3,o),
(105,-10,cs),
(121,-13,l),
(112,-60,o),
(78,-96,o),
(39,-117,c),
(74,-165,l)
);
},
{
closed = 1;
nodes = (
(160,293,o),
(192,323,o),
(192,369,cs),
(192,411,o),
(160,443,o),
(120,443,cs),
(80,443,o),
(46,411,o),
(46,369,cs),
(46,323,o),
(80,293,o),
(120,293,cs)
);
}
);
vertWidth = 1130;
width = 235;
}
);
unicode = 59;
},
{
glyphname = less;
layers = (
{
layerId = master01;
shapes = (
{
closed = 1;
nodes = (
(422,117,l),
(161,254,l),
(422,391,l),
(422,493,l),
(58,290,l),
(58,217,l),
(422,15,l)
);
}
);
vertWidth = 1130;
width = 481;
},
{
layerId = master02;
shapes = (
{
closed = 1;
nodes = (
(420,127,l),
(171,254,l),
(420,381,l),
(420,493,l),
(56,293,l),
(56,215,l),
(420,15,l)
);
}
);
vertWidth = 1130;
width = 476;
},
{
layerId = master03;
shapes = (
{
closed = 1;
nodes = (
(430,77,l),
(121,254,l),
(430,431,l),
(430,483,l),
(66,273,l),
(66,235,l),
(430,25,l)
);
}
);
vertWidth = 814;
width = 496;
},
{
layerId = master04;
shapes = (
{
closed = 1;
nodes = (
(430,82,l),
(126,254,l),
(430,426,l),
(430,488,l),
(66,278,l),
(66,230,l),
(430,20,l)
);
}
);
vertWidth = 1130;
width = 496;
},
{
layerId = master05;
shapes = (
{
closed = 1;
nodes = (
(427,97,l),
(141,254,l),
(427,411,l),
(427,493,l),
(63,285,l),
(63,222,l),
(427,15,l)
);
}
);
vertWidth = 1130;
width = 491;
},
{
layerId = master06;
shapes = (
{
closed = 1;
nodes = (
(430,87,l),
(131,254,l),
(430,421,l),
(430,493,l),
(66,283,l),
(66,225,l),
(430,15,l)
);
}
);
width = 496;
},
{
layerId = master07;
shapes = (
{
closed = 1;
nodes = (
(425,107,l),
(151,254,l),
(425,401,l),
(425,493,l),
(61,288,l),
(61,220,l),
(425,15,l)
);
}
);
vertWidth = 1130;
width = 486;
}
);
unicode = 60;
},
{
glyphname = equal;
layers = (
{
layerId = master01;
shapes = (
{
closed = 1;
nodes = (
(30,138,l),
(394,138,l),
(394,219,l),
(30,219,l)
);
},
{
closed = 1;
nodes = (
(30,327,l),
(394,327,l),
(394,408,l),
(30,408,l)
);
}
);
vertWidth = 1130;
width = 426;
},
{
layerId = master02;
shapes = (
{
closed = 1;
nodes = (
(29,124,l),
(392,124,l),
(392,212,l),
(29,212,l)
);
},
{
closed = 1;
nodes = (
(29,322,l),
(392,322,l),
(392,410,l),
(29,410,l)
);
}
);
vertWidth = 1130;
width = 421;
},
{
layerId = master03;
shapes = (
{
closed = 1;
nodes = (
(36,186,l),
(393,186,l),
(393,227,l),
(36,227,l)
);
},
{
closed = 1;
nodes = (
(36,343,l),
(393,343,l),
(393,383,l),
(36,383,l)
);
}
);
vertWidth = 814;
width = 431;
},
{
layerId = master04;
shapes = (
{
closed = 1;
nodes = (
(37,181,l),
(393,181,l),
(393,231,l),
(37,231,l)
);
},
{
closed = 1;
nodes = (
(37,339,l),
(393,339,l),
(393,388,l),
(37,388,l)
);
}
);
vertWidth = 1130;
width = 431;
},
{
layerId = master05;
shapes = (
{
closed = 1;
nodes = (
(34,163,l),
(391,163,l),
(391,228,l),
(34,228,l)
);
},
{
closed = 1;
nodes = (
(34,329,l),
(391,329,l),
(391,394,l),
(34,394,l)
);
}
);
vertWidth = 1130;
width = 426;
},
{
layerId = master06;
shapes = (
{
closed = 1;
nodes = (
(37,177,l),
(393,177,l),
(393,235,l),
(37,235,l)
);
},
{
closed = 1;
nodes = (
(37,334,l),
(393,334,l),
(393,392,l),
(37,392,l)
);
}
);
width = 431;
},
{
layerId = master07;
shapes = (
{
closed = 1;
nodes = (
(33,150,l),
(393,150,l),
(393,224,l),
(33,224,l)
);
},
{
closed = 1;
nodes = (
(33,328,l),
(393,328,l),
(393,401,l),
(33,401,l)
);
}
);
vertWidth = 1130;
width = 426;
}
);
unicode = 61;
},
{
glyphname = greater;
layers = (
{
layerId = master01;
shapes = (
{
closed = 1;
nodes = (
(422,290,l),
(58,493,l),
(58,391,l),
(320,254,l),
(58,117,l),
(58,15,l),
(422,217,l)
);
}
);
vertWidth = 1130;
width = 481;
},
{
layerId = master02;
shapes = (
{
closed = 1;
nodes = (
(420,293,l),
(56,493,l),
(56,381,l),
(305,254,l),
(56,127,l),
(56,15,l),
(420,215,l)
);
}
);
vertWidth = 1130;
width = 476;
},
{
layerId = master03;
shapes = (
{
closed = 1;
nodes = (
(430,235,l),
(430,273,l),
(66,483,l),
(66,431,l),
(375,254,l),
(66,77,l),
(66,25,l)
);
}
);
vertWidth = 814;
width = 496;
},
{
layerId = master04;
shapes = (
{
closed = 1;
nodes = (
(430,230,l),
(430,278,l),
(66,488,l),
(66,426,l),
(370,254,l),
(66,82,l),
(66,20,l)
);
}
);
vertWidth = 1130;
width = 496;
},
{
layerId = master05;
shapes = (
{
closed = 1;
nodes = (
(427,285,l),
(63,493,l),
(63,411,l),
(350,254,l),
(63,97,l),
(63,15,l),
(427,222,l)
);
}
);
vertWidth = 1130;
width = 491;
},
{
layerId = master06;
shapes = (
{
closed = 1;
nodes = (
(430,225,l),
(430,283,l),
(66,493,l),
(66,421,l),
(365,254,l),
(66,87,l),
(66,15,l)
);
}
);
width = 496;
},
{
layerId = master07;
shapes = (
{
closed = 1;
nodes = (
(425,288,l),
(61,493,l),
(61,401,l),
(335,254,l),
(61,107,l),
(61,15,l),
(425,220,l)
);
}
);
vertWidth = 1130;
width = 486;
}
);
unicode = 62;
},
{
glyphname = question;
layers = (
{
layerId = master01;
shapes = (
{
closed = 1;
nodes = (
(139,679,o),
(86,662,o),
(47,635,c),
(93,549,l),
(124,570,o),
(148,579,o),
(180,579,cs),
(229,579,o),
(255,547,o),
(255,511,cs),
(255,463,o),
(230,433,o),
(180,384,c),
(136,336,o),
(109,304,o),
(109,251,cs),
(109,231,o),
(114,210,o),
(119,196,c),
(221,210,l),
(218,220,o),
(216,231,o),
(216,243,cs),
(216,278,o),
(237,294,o),
(292,348,cs),
(348,404,o),
(383,450,o),
(383,518,cs),
(383,610,o),
(315,679,o),
(197,679,cs)
);
},
{
closed = 1;
nodes = (
(107,19,o),
(141,-10,o),
(180,-10,cs),
(218,-10,o),
(251,19,o),
(251,64,cs),
(251,105,o),
(218,136,o),
(180,136,cs),
(141,136,o),
(107,105,o),
(107,64,cs)
);
}
);
vertWidth = 1130;
width = 419;
},
{
layerId = master02;
shapes = (
{
closed = 1;
nodes = (
(137,679,o),
(85,660,o),
(46,633,c),
(94,540,l),
(124,560,o),
(146,569,o),
(178,569,cs),
(219,569,o),
(244,542,o),
(244,508,cs),
(244,462,o),
(224,438,o),
(174,384,cs),
(132,339,o),
(105,309,o),
(105,256,cs),
(105,237,o),
(110,217,o),
(114,204,c),
(228,219,l),
(225,226,o),
(223,237,o),
(223,246,cs),
(223,278,o),
(240,289,o),
(296,346,cs),
(355,406,o),
(387,448,o),
(387,518,cs),
(387,610,o),
(319,679,o),
(199,679,cs)
);
},
{
closed = 1;
nodes = (
(104,21,o),
(140,-10,o),
(180,-10,cs),
(221,-10,o),
(256,21,o),
(256,67,cs),
(256,111,o),
(221,144,o),
(180,144,cs),
(140,144,o),
(104,111,o),
(104,67,cs)
);
}
);
vertWidth = 1130;
width = 420;
},
{
layerId = master03;
shapes = (
{
closed = 1;
nodes = (
(141,664,o),
(88,652,o),
(53,626,c),
(73,590,l),
(110,615,o),
(147,623,o),
(180,623,cs),
(272,623,o),
(307,570,o),
(307,513,cs),
(307,461,o),
(268,412,o),
(218,365,cs),
(152,303,o),
(125,254,o),
(125,206,cs),
(125,185,o),
(131,152,o),
(138,140,c),
(180,148,l),
(175,163,o),
(171,183,o),
(171,206,cs),
(171,250,o),
(185,280,o),
(246,334,cs),
(312,391,o),
(355,446,o),
(355,514,cs),
(355,604,o),
(292,664,o),
(186,664,cs)
);
},
{
closed = 1;
nodes = (
(131,7,o),
(148,-7,o),
(170,-7,cs),
(192,-7,o),
(208,7,o),
(208,34,cs),
(208,60,o),
(192,75,o),
(170,75,cs),
(148,75,o),
(131,60,o),
(131,34,cs)
);
}
);
vertWidth = 814;
width = 397;
},
{
layerId = master04;
shapes = (
{
closed = 1;
nodes = (
(142,665,o),
(89,653,o),
(54,627,c),
(81,579,l),
(114,603,o),
(149,610,o),
(180,610,cs),
(265,610,o),
(295,562,o),
(295,511,cs),
(295,456,o),
(259,418,o),
(208,370,cs),
(146,312,o),
(122,269,o),
(122,218,cs),
(122,197,o),
(126,169,o),
(134,154,c),
(189,165,l),
(183,181,o),
(180,197,o),
(180,217,cs),
(180,261,o),
(203,291,o),
(259,341,cs),
(314,391,o),
(360,446,o),
(360,511,cs),
(360,602,o),
(295,665,o),
(186,665,cs)
);
},
{
closed = 1;
nodes = (
(124,11,o),
(145,-8,o),
(171,-8,cs),
(196,-8,o),
(218,11,o),
(218,42,cs),
(218,70,o),
(196,90,o),
(171,90,cs),
(145,90,o),
(124,70,o),
(124,42,cs)
);
}
);
vertWidth = 1130;
width = 402;
},
{
layerId = master05;
shapes = (
{
closed = 1;
nodes = (
(140,665,o),
(87,651,o),
(51,625,c),
(90,556,l),
(120,578,o),
(150,585,o),
(179,585,cs),
(246,585,o),
(271,546,o),
(271,505,cs),
(271,454,o),
(236,420,o),
(191,376,cs),
(139,326,o),
(113,289,o),
(113,235,cs),
(113,215,o),
(118,193,o),
(125,176,c),
(205,189,l),
(199,206,o),
(197,216,o),
(197,232,cs),
(197,272,o),
(225,298,o),
(276,345,cs),
(325,392,o),
(368,444,o),
(368,508,cs),
(368,598,o),
(301,665,o),
(188,665,cs)
);
},
{
closed = 1;
nodes = (
(112,16,o),
(140,-9,o),
(173,-9,cs),
(206,-9,o),
(233,16,o),
(233,54,cs),
(233,89,o),
(206,116,o),
(173,116,cs),
(140,116,o),
(112,89,o),
(112,54,cs)
);
}
);
vertWidth = 1130;
width = 407;
},
{
layerId = master06;
shapes = (
{
closed = 1;
nodes = (
(142,665,o),
(89,653,o),
(54,627,c),
(89,565,l),
(120,588,o),
(153,594,o),
(181,594,cs),
(256,594,o),
(281,551,o),
(281,508,cs),
(281,455,o),
(242,418,o),
(198,376,cs),
(143,323,o),
(117,285,o),
(117,230,cs),
(117,209,o),
(122,186,o),
(129,167,c),
(199,180,l),
(193,200,o),
(191,211,o),
(191,229,cs),
(191,272,o),
(221,302,o),
(272,348,cs),
(317,390,o),
(365,445,o),
(365,509,cs),
(365,599,o),
(298,665,o),
(186,665,cs)
);
},
{
closed = 1;
nodes = (
(115,15,o),
(141,-8,o),
(172,-8,cs),
(203,-8,o),
(228,15,o),
(228,50,cs),
(228,83,o),
(203,108,o),
(172,108,cs),
(141,108,o),
(115,83,o),
(115,50,cs)
);
}
);
width = 406;
},
{
layerId = master07;
shapes = (
{
closed = 1;
nodes = (
(139,672,o),
(86,656,o),
(50,630,c),
(91,553,l),
(121,574,o),
(149,582,o),
(180,582,cs),
(237,582,o),
(262,547,o),
(262,508,cs),
(262,458,o),
(233,429,o),
(186,380,cs),
(138,330,o),
(111,296,o),
(111,243,cs),
(111,223,o),
(116,201,o),
(121,185,c),
(213,199,l),
(209,212,o),
(207,224,o),
(207,237,cs),
(207,275,o),
(229,296,o),
(284,347,cs),
(336,396,o),
(375,446,o),
(375,513,cs),
(375,604,o),
(308,672,o),
(192,672,cs)
);
},
{
closed = 1;
nodes = (
(109,18,o),
(140,-9,o),
(176,-9,cs),
(211,-9,o),
(242,18,o),
(242,58,cs),
(242,97,o),
(211,126,o),
(176,126,cs),
(140,126,o),
(109,97,o),
(109,58,cs)
);
}
);
vertWidth = 1130;
width = 413;
}
);
unicode = 63;
},
{
glyphname = at;
lastChange = "2022-06-08 14:44:40 +0000";
layers = (
{
layerId = master01;
shapes = (
{
closed = 1;
nodes = (
(541,-219,o),
(626,-197,o),
(682,-173,c),
(660,-98,l),
(607,-119,o),
(551,-135,o),
(466,-135,cs),
(311,-135,o),
(142,-56,o),
(142,177,cs),
(142,463,o),
(317,610,o),
(540,610,cs),
(721,610,o),
(825,486,o),
(825,326,cs),
(825,210,o),
(773,83,o),
(698,83,cs),
(672,83,o),
(661,94,o),
(661,121,cs),
(661,129,o),
(662,138,o),
(664,149,cs),
(690,310,ls),
(692,324,o),
(693,337,o),
(693,349,cs),
(693,446,o),
(624,487,o),
(522,487,cs),
(454,487,o),
(392,468,o),
(331,436,c),
(360,352,l),
(410,378,o),
(458,393,o),
(495,393,cs),
(542,393,o),
(566,372,o),
(566,334,cs),
(566,329,o),
(566,323,o),
(565,317,cs),
(561,292,l),
(501,292,ls),
(356,292,o),
(258,230,o),
(258,113,cs),
(258,43,o),
(309,-11,o),
(394,-11,cs),
(463,-11,o),
(509,13,o),
(552,55,c),
(554,55,l),
(579,10,l),
(596,3,o),
(626,-1,o),
(654,-1,cs),
(828,-1,o),
(924,147,o),
(924,334,cs),
(924,539,o),
(786,692,o),
(536,692,cs),
(285,692,o),
(44,509,o),
(44,170,cs),
(44,-113,o),
(248,-219,o),
(450,-219,cs)
);
},
{
closed = 1;
nodes = (
(416,77,o),
(388,91,o),
(388,126,cs),
(388,174,o),
(425,217,o),
(505,217,cs),
(550,217,l),
(534,117,l),
(514,94,o),
(483,77,o),
(448,77,cs)
);
}
);
vertWidth = 1130;
width = 966;
},
{
layerId = master02;
shapes = (
{
closed = 1;
nodes = (
(541,-219,o),
(628,-197,o),
(684,-173,c),
(660,-93,l),
(607,-115,o),
(551,-130,o),
(466,-130,cs),
(313,-130,o),
(144,-52,o),
(144,179,cs),
(144,431,o),
(294,605,o),
(540,605,cs),
(719,605,o),
(822,484,o),
(822,326,cs),
(822,170,o),
(755,91,o),
(705,91,cs),
(679,91,o),
(666,102,o),
(666,126,cs),
(666,133,o),
(667,141,o),
(669,150,c),
(695,311,ls),
(697,324,o),
(698,336,o),
(698,348,cs),
(698,447,o),
(627,491,o),
(521,491,cs),
(450,491,o),
(387,471,o),
(328,439,c),
(359,348,l),
(404,372,o),
(451,389,o),
(490,389,cs),
(535,389,o),
(558,367,o),
(558,332,cs),
(558,328,o),
(558,322,o),
(557,317,c),
(554,297,l),
(504,297,ls),
(374,297,o),
(254,245,o),
(254,114,cs),
(254,44,o),
(305,-11,o),
(391,-11,cs),
(459,-11,o),
(510,13,o),
(549,53,c),
(551,53,l),
(578,10,l),
(596,2,o),
(627,-1,o),
(652,-1,cs),
(793,-1,o),
(927,100,o),
(927,333,cs),
(927,538,o),
(788,692,o),
(536,692,cs),
(272,692,o),
(42,504,o),
(42,169,cs),
(42,-113,o),
(247,-219,o),
(450,-219,cs)
);
},
{
closed = 1;
nodes = (
(423,84,o),
(397,96,o),
(397,128,cs),
(397,173,o),
(430,217,o),
(508,217,cs),
(542,217,l),
(526,116,l),
(511,99,o),
(484,84,o),
(452,84,cs)
);
}
);
vertWidth = 1130;
width = 966;
},
{
layerId = master03;
shapes = (
{
closed = 1;
nodes = (
(539,-219,o),
(620,-197,o),
(676,-173,c),
(666,-137,l),
(615,-162,o),
(540,-179,o),
(455,-179,cs),
(288,-179,o),
(103,-83,o),
(103,177,cs),
(103,480,o),
(306,652,o),
(538,652,cs),
(742,652,o),
(863,506,o),
(863,332,cs),
(863,154,o),
(773,42,o),
(668,42,cs),
(634,42,o),
(624,62,o),
(624,96,cs),
(624,110,o),
(626,127,o),
(629,146,cs),
(655,306,l),
(657,321,o),
(659,336,o),
(659,349,cs),
(659,439,o),
(601,476,o),
(523,476,cs),
(461,476,o),
(406,460,o),
(339,428,c),
(354,389,l),
(416,421,o),
(478,434,o),
(513,434,cs),
(574,434,o),
(611,414,o),
(611,353,cs),
(611,342,o),
(610,330,o),
(608,317,c),
(601,277,l),
(493,277,ls),
(374,277,o),
(268,236,o),
(268,120,cs),
(268,47,o),
(327,-8,o),
(411,-8,cs),
(492,-8,o),
(545,26,o),
(575,62,c),
(577,62,l),
(593,13,l),
(604,7,o),
(629,0,o),
(662,0,cs),
(777,0,o),
(915,100,o),
(915,333,cs),
(915,538,o),
(780,692,o),
(534,692,cs),
(287,692,o),
(50,506,o),
(50,172,cs),
(50,-112,o),
(259,-219,o),
(448,-219,cs)
);
},
{
closed = 1;
nodes = (
(363,34,o),
(321,67,o),
(321,122,cs),
(321,192,o),
(371,237,o),
(505,237,cs),
(595,237,l),
(572,112,l),
(551,78,o),
(503,34,o),
(422,34,cs)
);
}
);
vertWidth = 814;
width = 963;
},
{
layerId = master04;
shapes = (
{
closed = 1;
nodes = (
(540,-219,o),
(618,-200,o),
(677,-173,c),
(663,-124,l),
(611,-147,o),
(545,-165,o),
(460,-165,cs),
(297,-165,o),
(118,-76,o),
(118,175,cs),
(118,451,o),
(284,638,o),
(539,638,cs),
(734,638,o),
(848,500,o),
(848,330,cs),
(848,183,o),
(775,51,o),
(672,51,cs),
(642,51,o),
(635,69,o),
(635,94,cs),
(635,111,o),
(638,132,o),
(640,146,cs),
(666,306,ls),
(669,322,o),
(670,336,o),
(670,349,cs),
(670,442,o),
(610,476,o),
(525,476,cs),
(463,476,o),
(407,460,o),
(340,428,c),
(359,376,l),
(421,408,o),
(478,419,o),
(511,419,cs),
(567,419,o),
(602,401,o),
(602,347,cs),
(602,341,o),
(602,336,o),
(599,320,cs),
(592,277,l),
(493,277,ls),
(357,277,o),
(269,220,o),
(269,116,cs),
(269,44,o),
(325,-9,o),
(407,-9,cs),
(483,-9,o),
(528,19,o),
(568,62,c),
(570,62,l),
(587,12,l),
(600,6,o),
(626,-1,o),
(660,-1,cs),
(808,-1,o),
(916,141,o),
(916,333,cs),
(916,538,o),
(781,692,o),
(535,692,cs),
(256,692,o),
(51,477,o),
(51,170,cs),
(51,-113,o),
(256,-219,o),
(449,-219,cs)
);
},
{
closed = 1;
nodes = (
(379,45,o),
(342,71,o),
(342,121,cs),
(342,188,o),
(394,227,o),
(502,227,cs),
(585,227,l),
(566,116,l),
(536,78,o),
(492,45,o),
(429,45,cs)
);
}
);
vertWidth = 1130;
width = 963;
},
{
layerId = master05;
shapes = (
{
closed = 1;
nodes = (
(541,-219,o),
(623,-197,o),
(679,-173,c),
(660,-107,l),
(607,-128,o),
(551,-145,o),
(466,-145,cs),
(309,-145,o),
(137,-65,o),
(137,174,cs),
(137,433,o),
(290,620,o),
(540,620,cs),
(724,620,o),
(830,492,o),
(830,328,cs),
(830,186,o),
(764,68,o),
(683,68,cs),
(660,68,o),
(651,78,o),
(651,105,cs),
(651,116,o),
(652,130,o),
(655,147,cs),
(681,307,l),
(683,322,o),
(684,336,o),
(684,349,cs),
(684,446,o),
(620,480,o),
(525,480,cs),
(461,480,o),
(403,463,o),
(338,431,c),
(363,360,l),
(421,390,o),
(471,401,o),
(505,401,cs),
(554,401,o),
(584,384,o),
(584,338,cs),
(584,331,o),
(583,325,o),
(582,317,c),
(576,282,l),
(496,282,ls),
(357,282,o),
(266,221,o),
(266,113,cs),
(266,42,o),
(317,-10,o),
(400,-10,cs),
(471,-10,o),
(513,14,o),
(559,60,c),
(561,60,l),
(581,11,l),
(596,4,o),
(625,-1,o),
(657,-1,cs),
(809,-1,o),
(919,131,o),
(919,334,cs),
(919,539,o),
(783,692,o),
(536,692,cs),
(279,692,o),
(49,500,o),
(49,169,cs),
(49,-113,o),
(251,-219,o),
(450,-219,cs)
);
},
{
closed = 1;
nodes = (
(403,63,o),
(371,81,o),
(371,122,cs),
(371,176,o),
(409,217,o),
(502,217,cs),
(567,217,l),
(551,120,l),
(519,83,o),
(482,63,o),
(441,63,cs)
);
}
);
vertWidth = 1130;
width = 965;
},
{
layerId = master06;
shapes = (
{
closed = 1;
nodes = (
(541,-219,o),
(622,-197,o),
(678,-173,c),
(660,-111,l),
(607,-132,o),
(551,-150,o),
(466,-150,cs),
(308,-150,o),
(134,-68,o),
(134,174,cs),
(134,473,o),
(315,625,o),
(540,625,cs),
(726,625,o),
(833,496,o),
(833,329,cs),
(833,188,o),
(766,60,o),
(676,60,cs),
(654,60,o),
(645,70,o),
(645,96,cs),
(645,109,o),
(647,125,o),
(651,146,c),
(677,306,ls),
(680,322,o),
(681,337,o),
(681,350,cs),
(681,445,o),
(618,477,o),
(527,477,cs),
(465,477,o),
(409,461,o),
(341,428,c),
(365,364,l),
(427,396,o),
(478,405,o),
(510,405,cs),
(560,405,o),
(592,390,o),
(592,342,cs),
(592,335,o),
(592,326,o),
(590,317,c),
(583,277,l),
(493,277,ls),
(378,277,o),
(270,225,o),
(270,112,c),
(270,41,o),
(322,-9,o),
(403,-9,cs),
(477,-9,o),
(516,16,o),
(562,62,c),
(564,62,l),
(582,11,l),
(596,5,o),
(624,-1,o),
(659,-1,cs),
(804,-1,o),
(917,135,o),
(917,333,cs),
(917,538,o),
(782,692,o),
(536,692,cs),
(297,692,o),
(52,519,o),
(52,169,cs),
(52,-113,o),
(253,-219,o),
(450,-219,cs)
);
},
{
closed = 1;
nodes = (
(396,56,o),
(363,77,o),
(363,119,cs),
(363,190,o),
(426,215,o),
(500,215,cs),
(575,215,l),
(560,121,l),
(522,78,o),
(481,56,o),
(437,56,cs)
);
}
);
width = 965;
},
{
layerId = master07;
shapes = (
{
closed = 1;
nodes = (
(541,-219,o),
(625,-197,o),
(681,-173,c),
(660,-102,l),
(607,-124,o),
(551,-140,o),
(466,-140,cs),
(310,-140,o),
(139,-61,o),
(139,176,cs),
(139,439,o),
(291,615,o),
(540,615,cs),
(722,615,o),
(828,489,o),
(828,328,cs),
(828,213,o),
(776,75,o),
(690,75,cs),
(666,75,o),
(656,86,o),
(656,113,cs),
(656,123,o),
(658,134,o),
(660,148,cs),
(686,308,ls),
(688,322,o),
(689,335,o),
(689,347,cs),
(689,446,o),
(623,484,o),
(524,484,cs),
(457,484,o),
(398,466,o),
(334,433,c),
(362,356,l),
(415,384,o),
(464,397,o),
(500,397,cs),
(547,397,o),
(575,378,o),
(575,337,cs),
(575,331,o),
(574,324,o),
(573,317,cs),
(568,287,l),
(498,287,ls),
(366,287,o),
(262,232,o),
(262,113,cs),
(262,43,o),
(313,-10,o),
(397,-10,cs),
(467,-10,o),
(512,13,o),
(555,57,c),
(557,57,l),
(580,10,l),
(596,3,o),
(625,-1,o),
(655,-1,cs),
(802,-1,o),
(922,120,o),
(922,330,cs),
(922,533,o),
(789,692,o),
(536,692,cs),
(273,692,o),
(47,498,o),
(47,168,cs),
(47,-114,o),
(250,-219,o),
(450,-219,cs)
);
},
{
closed = 1;
nodes = (
(409,70,o),
(380,86,o),
(380,124,cs),
(380,181,o),
(423,212,o),
(504,215,cs),
(558,217,l),
(543,118,l),
(516,88,o),
(482,70,o),
(444,70,cs)
);
}
);
vertWidth = 1130;
width = 965;
}
);
unicode = 64;
},
{
glyphname = bracketleft;
layers = (
{
layerId = master01;
shapes = (
{
closed = 1;
nodes = (
(256,-65,l),
(165,-65,l),
(165,623,l),
(256,623,l),
(256,700,l),
(62,700,l),
(62,-143,l),
(256,-143,l)
);
}
);
vertWidth = 1130;
width = 281;
},
{
layerId = master02;
shapes = (
{
closed = 1;
nodes = (
(256,-62,l),
(167,-62,l),
(167,620,l),
(256,620,l),
(256,702,l),
(57,702,l),
(57,-145,l),
(256,-145,l)
);
}
);
vertWidth = 1130;
width = 280;
},
{
layerId = master03;
shapes = (
{
closed = 1;
nodes = (
(233,-90,l),
(119,-90,l),
(119,637,l),
(233,637,l),
(233,670,l),
(75,670,l),
(75,-125,l),
(233,-125,l)
);
}
);
vertWidth = 814;
width = 261;
},
{
layerId = master04;
shapes = (
{
closed = 1;
nodes = (
(243,-81,l),
(137,-81,l),
(137,628,l),
(243,628,l),
(243,675,l),
(75,675,l),
(75,-130,l),
(243,-130,l)
);
}
);
vertWidth = 1130;
width = 271;
},
{
layerId = master05;
shapes = (
{
closed = 1;
nodes = (
(252,-79,l),
(157,-79,l),
(157,605,l),
(252,605,l),
(252,671,l),
(71,671,l),
(71,-146,l),
(252,-146,l)
);
}
);
vertWidth = 1130;
width = 278;
},
{
layerId = master06;
shapes = (
{
closed = 1;
nodes = (
(250,-73,l),
(153,-73,l),
(153,619,l),
(250,619,l),
(250,680,l),
(75,680,l),
(75,-134,l),
(250,-134,l)
);
}
);
width = 280;
},
{
layerId = master07;
shapes = (
{
closed = 1;
nodes = (
(254,-77,l),
(161,-77,l),
(161,609,l),
(254,609,l),
(254,681,l),
(66,681,l),
(66,-149,l),
(254,-149,l)
);
}
);
vertWidth = 1130;
width = 280;
}
);
unicode = 91;
},
{
glyphname = backslash;
layers = (
{
layerId = master01;
shapes = (
{
closed = 1;
nodes = (
(94,720,l),
(0,720,l),
(218,-88,l),
(312,-88,l)
);
}
);
vertWidth = 1130;
width = 312;
},
{
layerId = master02;
shapes = (
{
closed = 1;
nodes = (
(100,720,l),
(0,720,l),
(206,-88,l),
(306,-88,l)
);
}
);
vertWidth = 1130;
width = 306;
},
{
layerId = master03;
shapes = (
{
closed = 1;
nodes = (
(39,720,l),
(-3,720,l),
(253,-88,l),
(295,-88,l)
);
}
);
vertWidth = 814;
width = 295;
},
{
layerId = master04;
shapes = (
{
closed = 1;
nodes = (
(57,720,l),
(-2,720,l),
(254,-88,l),
(313,-88,l)
);
}
);
vertWidth = 1130;
width = 313;
},
{
layerId = master05;
shapes = (
{
closed = 1;
nodes = (
(81,720,l),
(0,720,l),
(243,-88,l),
(325,-88,l)
);
}
);
vertWidth = 1130;
width = 325;
},
{
layerId = master06;
shapes = (
{
closed = 1;
nodes = (
(75,720,l),
(0,720,l),
(256,-88,l),
(331,-88,l)
);
}
);
width = 331;
},
{
layerId = master07;
shapes = (
{
closed = 1;
nodes = (
(87,720,l),
(0,720,l),
(231,-88,l),
(318,-88,l)
);
}
);
vertWidth = 1130;
width = 318;
}
);
unicode = 92;
},
{
glyphname = bracketright;
layers = (
{
layerId = master01;
shapes = (
{
closed = 1;
nodes = (
(219,700,l),
(25,700,l),
(25,623,l),
(117,623,l),
(117,-65,l),
(25,-65,l),
(25,-143,l),
(219,-143,l)
);
}
);
vertWidth = 1130;
width = 281;
},
{
layerId = master02;
shapes = (
{
closed = 1;
nodes = (
(223,702,l),
(24,702,l),
(24,620,l),
(113,620,l),
(113,-62,l),
(24,-62,l),
(24,-145,l),
(223,-145,l)
);
}
);
vertWidth = 1130;
width = 280;
},
{
layerId = master03;
shapes = (
{
closed = 1;
nodes = (
(186,670,l),
(28,670,l),
(28,636,l),
(142,636,l),
(142,-91,l),
(28,-91,l),
(28,-125,l),
(186,-125,l)
);
}
);
vertWidth = 814;
width = 261;
},
{
layerId = master04;
shapes = (
{
closed = 1;
nodes = (
(195,675,l),
(28,675,l),
(28,627,l),
(134,627,l),
(134,-82,l),
(28,-82,l),
(28,-130,l),
(195,-130,l)
);
}
);
vertWidth = 1130;
width = 271;
},
{
layerId = master05;
shapes = (
{
closed = 1;
nodes = (
(208,671,l),
(27,671,l),
(27,605,l),
(121,605,l),
(121,-79,l),
(27,-79,l),
(27,-146,l),
(208,-146,l)
);
}
);
vertWidth = 1130;
width = 278;
},
{
layerId = master06;
shapes = (
{
closed = 1;
nodes = (
(205,680,l),
(30,680,l),
(30,619,l),
(127,619,l),
(127,-73,l),
(30,-73,l),
(30,-134,l),
(205,-134,l)
);
}
);
width = 280;
},
{
layerId = master07;
shapes = (
{
closed = 1;
nodes = (
(213,681,l),
(25,681,l),
(25,609,l),
(118,609,l),
(118,-77,l),
(25,-77,l),
(25,-149,l),
(213,-149,l)
);
}
);
vertWidth = 1130;
width = 280;
}
);
unicode = 93;
},
{
glyphname = asciicircum;
layers = (
{
layerId = master01;
shapes = (
{
closed = 1;
nodes = (
(216,720,l),
(49,408,l),
(141,408,l),
(253,644,l),
(368,408,l),
(459,408,l),
(290,720,l)
);
}
);
vertWidth = 1130;
width = 508;
},
{
layerId = master02;
shapes = (
{
closed = 1;
nodes = (
(212,720,l),
(45,406,l),
(142,406,l),
(252,639,l),
(364,406,l),
(460,406,l),
(291,720,l)
);
}
);
vertWidth = 1130;
width = 505;
},
{
layerId = master03;
shapes = (
{
closed = 1;
nodes = (
(218,720,l),
(61,416,l),
(108,416,l),
(238,679,l),
(370,416,l),
(416,416,l),
(257,720,l)
);
}
);
vertWidth = 814;
width = 476;
},
{
layerId = master04;
shapes = (
{
closed = 1;
nodes = (
(223,720,l),
(61,416,l),
(123,416,l),
(248,669,l),
(375,416,l),
(436,416,l),
(272,720,l)
);
}
);
vertWidth = 1130;
width = 496;
},
{
layerId = master05;
shapes = (
{
closed = 1;
nodes = (
(224,720,l),
(57,413,l),
(139,413,l),
(256,654,l),
(376,413,l),
(457,413,l),
(288,720,l)
);
}
);
vertWidth = 1130;
width = 513;
},
{
layerId = master06;
shapes = (
{
closed = 1;
nodes = (
(228,720,l),
(61,416,l),
(138,416,l),
(258,659,l),
(380,416,l),
(456,416,l),
(287,720,l)
);
}
);
width = 516;
},
{
layerId = master07;
shapes = (
{
closed = 1;
nodes = (
(220,720,l),
(53,411,l),
(140,411,l),
(255,649,l),
(372,411,l),
(458,411,l),
(289,720,l)
);
}
);
vertWidth = 1130;
width = 510;
}
);
unicode = 94;
},
{
glyphname = underscore;
layers = (
{
layerId = master01;
shapes = (
{
closed = 1;
nodes = (
(6,-250,l),
(367,-250,l),
(367,-175,l),
(6,-175,l)
);
}
);
vertWidth = 1130;
width = 373;
},
{
layerId = master02;
shapes = (
{
closed = 1;
nodes = (
(5,-250,l),
(371,-250,l),
(371,-170,l),
(5,-170,l)
);
}
);
vertWidth = 1130;
width = 376;
},
{
layerId = master03;
shapes = (
{
closed = 1;
nodes = (
(10,-250,l),
(356,-250,l),
(356,-210,l),
(10,-210,l)
);
}
);
vertWidth = 814;
width = 366;
},
{
layerId = master04;
shapes = (
{
closed = 1;
nodes = (
(10,-250,l),
(356,-250,l),
(356,-200,l),
(10,-200,l)
);
}
);
vertWidth = 1130;
width = 366;
},
{
layerId = master05;
shapes = (
{
closed = 1;
nodes = (
(9,-250,l),
(360,-250,l),
(360,-185,l),
(9,-185,l)
);
}
);
vertWidth = 1130;
width = 368;
},
{
layerId = master06;
shapes = (
{
closed = 1;
nodes = (
(10,-250,l),
(356,-250,l),
(356,-190,l),
(10,-190,l)
);
}
);
width = 366;
},
{
layerId = master07;
shapes = (
{
closed = 1;
nodes = (
(7,-250,l),
(363,-250,l),
(363,-180,l),
(7,-180,l)
);
}
);
vertWidth = 1130;
width = 371;
}
);
unicode = 95;
},
{
glyphname = braceleft;
layers = (
{
layerId = master01;
shapes = (
{
closed = 1;
nodes = (
(183,705,o),
(117,640,o),
(117,555,cs),
(117,410,ls),
(117,347,o),
(89,322,o),
(29,314,c),
(29,238,l),
(90,235,o),
(117,200,o),
(117,140,cs),
(117,7,ls),
(117,-92,o),
(192,-152,o),
(302,-155,c),
(302,-71,l),
(235,-64,o),
(215,-47,o),
(215,30,cs),
(215,135,ls),
(215,206,o),
(189,253,o),
(150,276,c),
(150,279,l),
(189,296,o),
(215,332,o),
(215,393,cs),
(215,498,ls),
(215,593,o),
(234,624,o),
(302,624,c),
(302,705,l)
);
}
);
vertWidth = 1130;
width = 325;
},
{
layerId = master02;
shapes = (
{
closed = 1;
nodes = (
(184,705,o),
(118,640,o),
(118,555,cs),
(118,415,ls),
(118,350,o),
(90,325,o),
(30,317,c),
(30,236,l),
(91,233,o),
(118,197,o),
(118,135,cs),
(118,7,ls),
(118,-92,o),
(193,-152,o),
(303,-155,c),
(303,-66,l),
(236,-58,o),
(221,-44,o),
(221,43,cs),
(221,135,ls),
(221,206,o),
(193,253,o),
(158,276,c),
(158,279,l),
(193,296,o),
(221,332,o),
(221,393,cs),
(221,486,ls),
(221,591,o),
(235,619,o),
(303,619,c),
(303,705,l)
);
}
);
vertWidth = 1130;
width = 325;
},
{
layerId = master03;
shapes = (
{
closed = 1;
nodes = (
(196,695,o),
(136,634,o),
(136,555,cs),
(136,395,ls),
(136,332,o),
(102,303,o),
(28,295,c),
(28,259,l),
(103,256,o),
(136,217,o),
(136,155,cs),
(136,2,ls),
(136,-95,o),
(203,-145,o),
(301,-145,c),
(301,-111,l),
(220,-108,o),
(179,-72,o),
(179,-7,cs),
(179,135,ls),
(179,206,o),
(157,253,o),
(106,276,c),
(106,278,l),
(159,295,o),
(179,332,o),
(179,393,cs),
(179,536,ls),
(179,618,o),
(225,659,o),
(301,659,c),
(301,695,l)
);
}
);
vertWidth = 814;
width = 326;
},
{
layerId = master04;
shapes = (
{
closed = 1;
nodes = (
(189,700,o),
(126,637,o),
(126,555,cs),
(126,395,ls),
(126,335,o),
(95,308,o),
(28,301,c),
(28,252,l),
(96,249,o),
(126,214,o),
(126,155,cs),
(126,4,ls),
(126,-94,o),
(197,-149,o),
(301,-150,c),
(301,-99,l),
(227,-96,o),
(189,-63,o),
(189,-7,cs),
(189,135,ls),
(189,206,o),
(167,253,o),
(116,276,c),
(116,278,l),
(169,295,o),
(189,332,o),
(189,393,cs),
(189,536,ls),
(189,609,o),
(229,649,o),
(301,649,c),
(301,700,l)
);
}
);
vertWidth = 1130;
width = 326;
},
{
layerId = master05;
shapes = (
{
closed = 1;
nodes = (
(182,705,o),
(116,640,o),
(116,555,cs),
(116,400,ls),
(116,341,o),
(88,317,o),
(28,309,c),
(28,243,l),
(89,240,o),
(116,207,o),
(116,150,cs),
(116,7,ls),
(116,-92,o),
(191,-152,o),
(301,-155,c),
(301,-81,l),
(234,-77,o),
(204,-52,o),
(204,5,cs),
(204,135,ls),
(204,206,o),
(181,253,o),
(134,276,c),
(134,279,l),
(182,296,o),
(204,332,o),
(204,393,cs),
(204,523,ls),
(204,598,o),
(233,634,o),
(301,634,c),
(301,705,l)
);
}
);
vertWidth = 1130;
width = 326;
},
{
layerId = master06;
shapes = (
{
closed = 1;
nodes = (
(182,705,o),
(116,640,o),
(116,555,cs),
(116,395,ls),
(116,338,o),
(88,314,o),
(28,307,c),
(28,246,l),
(89,243,o),
(116,211,o),
(116,155,cs),
(116,7,ls),
(116,-92,o),
(191,-152,o),
(301,-155,c),
(301,-86,l),
(234,-83,o),
(199,-54,o),
(199,-7,cs),
(199,135,ls),
(199,206,o),
(177,253,o),
(126,276,c),
(126,279,l),
(179,296,o),
(199,332,o),
(199,393,cs),
(199,536,ls),
(199,601,o),
(233,639,o),
(301,639,c),
(301,705,l)
);
}
);
width = 326;
},
{
layerId = master07;
shapes = (
{
closed = 1;
nodes = (
(183,705,o),
(117,640,o),
(117,555,cs),
(117,405,ls),
(117,344,o),
(89,319,o),
(29,312,c),
(29,241,l),
(90,238,o),
(117,204,o),
(117,145,cs),
(117,7,ls),
(117,-92,o),
(192,-152,o),
(302,-155,c),
(302,-76,l),
(235,-71,o),
(210,-49,o),
(210,18,cs),
(210,135,ls),
(210,206,o),
(185,253,o),
(142,276,c),
(142,279,l),
(186,296,o),
(210,332,o),
(210,393,cs),
(210,511,ls),
(210,596,o),
(234,629,o),
(302,629,c),
(302,705,l)
);
}
);
vertWidth = 1130;
width = 325;
}
);
unicode = 123;
},
{
glyphname = bar;
layers = (
{
layerId = master01;
shapes = (
{
closed = 1;
nodes = (
(165,732,l),
(72,732,l),
(72,-199,l),
(165,-199,l)
);
}
);
vertWidth = 1130;
width = 237;
},
{
layerId = master02;
shapes = (
{
closed = 1;
nodes = (
(168,732,l),
(68,732,l),
(68,-199,l),
(168,-199,l)
);
}
);
vertWidth = 1130;
width = 237;
},
{
layerId = master03;
shapes = (
{
closed = 1;
nodes = (
(115,717,l),
(70,717,l),
(70,-194,l),
(115,-194,l)
);
}
);
vertWidth = 814;
width = 185;
},
{
layerId = master04;
shapes = (
{
closed = 1;
nodes = (
(124,717,l),
(67,717,l),
(67,-194,l),
(124,-194,l)
);
}
);
vertWidth = 1130;
width = 191;
},
{
layerId = master05;
shapes = (
{
closed = 1;
nodes = (
(143,697,l),
(67,697,l),
(67,-214,l),
(143,-214,l)
);
}
);
vertWidth = 1130;
width = 210;
},
{
layerId = master06;
shapes = (
{
closed = 1;
nodes = (
(137,717,l),
(67,717,l),
(67,-194,l),
(137,-194,l)
);
}
);
width = 204;
},
{
layerId = master07;
shapes = (
{
closed = 1;
nodes = (
(152,725,l),
(68,725,l),
(68,-196,l),
(152,-196,l)
);
}
);
vertWidth = 1130;
width = 220;
}
);
unicode = 124;
},
{
glyphname = braceright;
layers = (
{
layerId = master01;
shapes = (
{
closed = 1;
nodes = (
(90,616,o),
(110,596,o),
(110,514,cs),
(110,409,ls),
(110,341,o),
(136,297,o),
(175,275,c),
(175,272,l),
(136,254,o),
(110,215,o),
(110,151,cs),
(110,46,ls),
(110,-44,o),
(90,-73,o),
(23,-73,c),
(23,-155,l),
(139,-154,o),
(208,-91,o),
(208,-2,cs),
(208,140,ls),
(208,203,o),
(235,229,o),
(296,236,c),
(296,312,l),
(235,316,o),
(208,349,o),
(208,410,cs),
(208,546,ls),
(208,642,o),
(135,704,o),
(23,706,c),
(23,622,l)
);
}
);
vertWidth = 1130;
width = 325;
},
{
layerId = master02;
shapes = (
{
closed = 1;
nodes = (
(89,608,o),
(104,594,o),
(104,507,cs),
(104,415,ls),
(104,344,o),
(132,297,o),
(167,274,c),
(167,271,l),
(132,254,o),
(104,218,o),
(104,157,cs),
(104,64,ls),
(104,-41,o),
(90,-69,o),
(22,-69,c),
(22,-155,l),
(141,-155,o),
(207,-90,o),
(207,-5,cs),
(207,135,ls),
(207,200,o),
(235,225,o),
(295,233,c),
(295,314,l),
(234,317,o),
(207,353,o),
(207,415,cs),
(207,543,ls),
(207,642,o),
(132,702,o),
(22,705,c),
(22,616,l)
);
}
);
vertWidth = 1130;
width = 325;
},
{
layerId = master03;
shapes = (
{
closed = 1;
nodes = (
(106,658,o),
(147,622,o),
(147,557,cs),
(147,415,ls),
(147,344,o),
(169,297,o),
(220,274,c),
(220,272,l),
(167,255,o),
(147,218,o),
(147,157,cs),
(147,14,ls),
(147,-68,o),
(101,-109,o),
(25,-109,c),
(25,-145,l),
(130,-145,o),
(190,-84,o),
(190,-5,cs),
(190,155,ls),
(190,218,o),
(224,247,o),
(298,255,c),
(298,291,l),
(223,294,o),
(190,333,o),
(190,395,cs),
(190,548,ls),
(190,645,o),
(123,695,o),
(25,695,c),
(25,661,l)
);
}
);
vertWidth = 814;
width = 326;
},
{
layerId = master04;
shapes = (
{
closed = 1;
nodes = (
(99,648,o),
(137,611,o),
(137,546,cs),
(137,404,ls),
(137,338,o),
(158,296,o),
(210,276,c),
(210,274,l),
(158,254,o),
(137,212,o),
(137,146,cs),
(137,3,ls),
(137,-61,o),
(96,-96,o),
(25,-98,c),
(25,-150,l),
(132,-149,o),
(200,-88,o),
(200,1,cs),
(200,155,ls),
(200,214,o),
(230,245,o),
(298,250,c),
(298,299,l),
(230,304,o),
(200,335,o),
(200,395,cs),
(200,551,ls),
(200,643,o),
(133,702,o),
(25,702,c),
(25,650,l)
);
}
);
vertWidth = 1130;
width = 326;
},
{
layerId = master05;
shapes = (
{
closed = 1;
nodes = (
(92,631,o),
(121,599,o),
(121,529,cs),
(121,398,ls),
(121,335,o),
(143,296,o),
(192,278,c),
(192,275,l),
(145,253,o),
(121,209,o),
(121,140,cs),
(121,11,ls),
(121,-51,o),
(91,-80,o),
(24,-82,c),
(24,-155,l),
(136,-153,o),
(209,-92,o),
(209,4,cs),
(209,150,ls),
(209,208,o),
(236,238,o),
(297,243,c),
(297,309,l),
(237,315,o),
(209,342,o),
(209,400,cs),
(209,552,ls),
(209,641,o),
(141,708,o),
(24,709,c),
(24,633,l)
);
}
);
vertWidth = 1130;
width = 326;
},
{
layerId = master06;
shapes = (
{
closed = 1;
nodes = (
(93,639,o),
(127,601,o),
(127,536,cs),
(127,393,ls),
(127,332,o),
(147,296,o),
(200,279,c),
(200,276,l),
(149,253,o),
(127,206,o),
(127,135,cs),
(127,-7,ls),
(127,-54,o),
(92,-83,o),
(25,-86,c),
(25,-155,l),
(135,-152,o),
(210,-92,o),
(210,7,cs),
(210,155,ls),
(210,211,o),
(237,243,o),
(298,246,c),
(298,307,l),
(238,314,o),
(210,338,o),
(210,395,cs),
(210,555,ls),
(210,641,o),
(144,710,o),
(25,710,c),
(25,639,l)
);
}
);
width = 326;
},
{
layerId = master07;
shapes = (
{
closed = 1;
nodes = (
(91,623,o),
(115,597,o),
(115,521,cs),
(115,404,ls),
(115,338,o),
(139,296,o),
(183,276,c),
(183,273,l),
(140,253,o),
(115,212,o),
(115,146,cs),
(115,28,ls),
(115,-48,o),
(91,-76,o),
(23,-78,c),
(23,-155,l),
(138,-154,o),
(208,-91,o),
(208,1,cs),
(208,145,ls),
(208,205,o),
(236,234,o),
(296,239,c),
(296,310,l),
(236,315,o),
(208,345,o),
(208,405,cs),
(208,549,ls),
(208,641,o),
(138,706,o),
(23,707,c),
(23,627,l)
);
}
);
vertWidth = 1130;
width = 325;
}
);
unicode = 125;
},
{
glyphname = asciitilde;
layers = (
{
layerId = master01;
shapes = (
{
closed = 1;
nodes = (
(132,241,o),
(152,272,o),
(188,272,cs),
(249,272,o),
(319,201,o),
(401,201,cs),
(482,201,o),
(533,258,o),
(533,361,c),
(444,361,l),
(444,317,o),
(425,293,o),
(390,293,cs),
(330,293,o),
(271,362,o),
(189,362,cs),
(105,362,o),
(43,308,o),
(43,202,c),
(132,202,l)
);
}
);
vertWidth = 1130;
width = 577;
},
{
layerId = master02;
shapes = (
{
closed = 1;
nodes = (
(141,236,o),
(158,265,o),
(189,265,cs),
(249,265,o),
(318,199,o),
(401,199,cs),
(488,199,o),
(532,264,o),
(532,361,c),
(433,361,l),
(433,320,o),
(417,298,o),
(386,298,cs),
(328,298,o),
(273,362,o),
(190,362,cs),
(105,362,o),
(42,307,o),
(42,200,c),
(141,200,l)
);
}
);
vertWidth = 1130;
width = 574;
},
{
layerId = master03;
shapes = (
{
closed = 1;
nodes = (
(87,265,o),
(120,305,o),
(182,305,cs),
(263,305,o),
(326,219,o),
(420,219,cs),
(480,219,o),
(538,256,o),
(538,361,c),
(499,361,l),
(499,299,o),
(472,261,o),
(415,261,cs),
(335,261,o),
(274,345,o),
(183,345,cs),
(104,345,o),
(48,296,o),
(48,210,c),
(87,210,l)
);
}
);
vertWidth = 814;
width = 586;
},
{
layerId = master04;
shapes = (
{
closed = 1;
nodes = (
(97,260,o),
(127,300,o),
(183,300,cs),
(257,300,o),
(324,214,o),
(411,214,cs),
(472,214,o),
(538,249,o),
(538,361,c),
(489,361,l),
(489,303,o),
(461,269,o),
(408,269,cs),
(336,269,o),
(270,353,o),
(184,353,cs),
(105,353,o),
(48,303,o),
(48,210,c),
(97,210,l)
);
}
);
vertWidth = 1130;
width = 586;
},
{
layerId = master05;
shapes = (
{
closed = 1;
nodes = (
(115,251,o),
(141,287,o),
(186,287,cs),
(250,287,o),
(321,206,o),
(402,206,cs),
(471,206,o),
(536,247,o),
(536,361,c),
(467,361,l),
(467,311,o),
(442,283,o),
(398,283,cs),
(335,283,o),
(268,362,o),
(187,362,cs),
(106,362,o),
(46,309,o),
(46,207,c),
(115,207,l)
);
}
);
vertWidth = 1130;
width = 583;
},
{
layerId = master06;
shapes = (
{
closed = 1;
nodes = (
(107,256,o),
(135,295,o),
(185,295,cs),
(251,295,o),
(322,209,o),
(403,209,cs),
(465,209,o),
(538,242,o),
(538,361,c),
(479,361,l),
(479,308,o),
(451,278,o),
(402,278,cs),
(338,278,o),
(267,362,o),
(186,362,cs),
(107,362,o),
(48,310,o),
(48,210,c),
(107,210,l)
);
}
);
width = 586;
},
{
layerId = master07;
shapes = (
{
closed = 1;
nodes = (
(124,246,o),
(146,280,o),
(187,280,cs),
(250,280,o),
(320,204,o),
(402,204,cs),
(476,204,o),
(535,253,o),
(535,361,c),
(456,361,l),
(456,314,o),
(434,288,o),
(394,288,cs),
(333,288,o),
(270,362,o),
(188,362,cs),
(106,362,o),
(45,308,o),
(45,205,c),
(124,205,l)
);
}
);
vertWidth = 1130;
width = 580;
}
);
unicode = 126;
},
{
glyphname = ellipsis;
layers = (
{
layerId = master01;
shapes = (
{
closed = 1;
nodes = (
(47,21,o),
(84,-11,o),
(127,-11,cs),
(170,-11,o),
(206,21,o),
(206,71,cs),
(206,117,o),
(170,152,o),
(127,152,cs),
(84,152,o),
(47,117,o),
(47,71,cs)
);
},
{
closed = 1;
nodes = (
(333,21,o),
(370,-11,o),
(413,-11,cs),
(456,-11,o),
(492,21,o),
(492,71,cs),
(492,117,o),
(456,152,o),
(413,152,cs),
(370,152,o),
(333,117,o),
(333,71,cs)
);
},
{
closed = 1;
nodes = (
(619,21,o),
(656,-11,o),
(699,-11,cs),
(742,-11,o),
(778,21,o),
(778,71,cs),
(778,117,o),
(742,152,o),
(699,152,cs),
(656,152,o),
(619,117,o),
(619,71,cs)
);
}
);
vertWidth = 1130;
width = 805;
},
{
layerId = master02;
shapes = (
{
closed = 1;
nodes = (
(45,23,o),
(85,-11,o),
(131,-11,cs),
(178,-11,o),
(216,23,o),
(216,77,cs),
(216,127,o),
(178,164,o),
(131,164,cs),
(85,164,o),
(45,127,o),
(45,77,cs)
);
},
{
closed = 1;
nodes = (
(366,23,o),
(406,-11,o),
(452,-11,cs),
(499,-11,o),
(537,23,o),
(537,77,cs),
(537,127,o),
(499,164,o),
(452,164,cs),
(406,164,o),
(366,127,o),
(366,77,cs)
);
},
{
closed = 1;
nodes = (
(687,23,o),
(727,-11,o),
(773,-11,cs),
(820,-11,o),
(858,23,o),
(858,77,cs),
(858,127,o),
(820,164,o),
(773,164,cs),
(727,164,o),
(687,127,o),
(687,77,cs)
);
}
);
vertWidth = 1130;
width = 878;
},
{
layerId = master03;
shapes = (
{
closed = 1;
nodes = (
(55,8,o),
(72,-8,o),
(95,-8,cs),
(117,-8,o),
(135,8,o),
(135,36,cs),
(135,62,o),
(117,80,o),
(95,80,cs),
(72,80,o),
(55,62,o),
(55,36,cs)
);
},
{
closed = 1;
nodes = (
(235,8,o),
(252,-8,o),
(275,-8,cs),
(297,-8,o),
(315,8,o),
(315,36,cs),
(315,62,o),
(297,80,o),
(275,80,cs),
(252,80,o),
(235,62,o),
(235,36,cs)
);
},
{
closed = 1;
nodes = (
(415,8,o),
(432,-8,o),
(455,-8,cs),
(477,-8,o),
(495,8,o),
(495,36,cs),
(495,62,o),
(477,80,o),
(455,80,cs),
(432,80,o),
(415,62,o),
(415,36,cs)
);
}
);
vertWidth = 814;
width = 550;
},
{
layerId = master04;
shapes = (
{
closed = 1;
nodes = (
(54,12,o),
(77,-9,o),
(105,-9,cs),
(132,-9,o),
(155,12,o),
(155,45,cs),
(155,75,o),
(132,98,o),
(105,98,cs),
(77,98,o),
(54,75,o),
(54,45,cs)
);
},
{
closed = 1;
nodes = (
(235,12,o),
(257,-9,o),
(285,-9,cs),
(313,-9,o),
(335,12,o),
(335,45,cs),
(335,75,o),
(313,98,o),
(285,98,cs),
(257,98,o),
(235,75,o),
(235,45,cs)
);
},
{
closed = 1;
nodes = (
(415,12,o),
(438,-9,o),
(466,-9,cs),
(493,-9,o),
(516,12,o),
(516,45,cs),
(516,75,o),
(493,98,o),
(466,98,cs),
(438,98,o),
(415,75,o),
(415,45,cs)
);
}
);
vertWidth = 1130;
width = 568;
},
{
layerId = master05;
shapes = (
{
closed = 1;
nodes = (
(52,18,o),
(83,-10,o),
(119,-10,cs),
(155,-10,o),
(185,18,o),
(185,60,cs),
(185,98,o),
(155,128,o),
(119,128,cs),
(83,128,o),
(52,98,o),
(52,60,cs)
);
},
{
closed = 1;
nodes = (
(268,18,o),
(299,-10,o),
(335,-10,cs),
(371,-10,o),
(401,18,o),
(401,60,cs),
(401,98,o),
(371,128,o),
(335,128,cs),
(299,128,o),
(268,98,o),
(268,60,cs)
);
},
{
closed = 1;
nodes = (
(484,18,o),
(515,-10,o),
(551,-10,cs),
(587,-10,o),
(617,18,o),
(617,60,cs),
(617,98,o),
(587,128,o),
(551,128,cs),
(515,128,o),
(484,98,o),
(484,60,cs)
);
}
);
vertWidth = 1130;
width = 660;
},
{
layerId = master06;
shapes = (
{
closed = 1;
nodes = (
(54,16,o),
(82,-9,o),
(115,-9,cs),
(148,-9,o),
(175,16,o),
(175,54,cs),
(175,89,o),
(148,116,o),
(115,116,cs),
(82,116,o),
(54,89,o),
(54,54,cs)
);
},
{
closed = 1;
nodes = (
(235,16,o),
(263,-9,o),
(296,-9,cs),
(329,-9,o),
(356,16,o),
(356,54,cs),
(356,89,o),
(329,116,o),
(296,116,cs),
(263,116,o),
(235,89,o),
(235,54,cs)
);
},
{
closed = 1;
nodes = (
(416,16,o),
(444,-9,o),
(477,-9,cs),
(510,-9,o),
(537,16,o),
(537,54,cs),
(537,89,o),
(510,116,o),
(477,116,cs),
(444,116,o),
(416,89,o),
(416,54,cs)
);
}
);
width = 587;
},
{
layerId = master07;
shapes = (
{
closed = 1;
nodes = (
(49,19,o),
(83,-10,o),
(123,-10,cs),
(163,-10,o),
(195,19,o),
(195,65,cs),
(195,108,o),
(163,140,o),
(123,140,cs),
(83,140,o),
(49,108,o),
(49,65,cs)
);
},
{
closed = 1;
nodes = (
(300,19,o),
(334,-10,o),
(374,-10,cs),
(414,-10,o),
(446,19,o),
(446,65,cs),
(446,108,o),
(414,140,o),
(374,140,cs),
(334,140,o),
(300,108,o),
(300,65,cs)
);
},
{
closed = 1;
nodes = (
(551,19,o),
(585,-10,o),
(625,-10,cs),
(665,-10,o),
(697,19,o),
(697,65,cs),
(697,108,o),
(665,140,o),
(625,140,cs),
(585,140,o),
(551,108,o),
(551,65,cs)
);
}
);
vertWidth = 1130;
width = 732;
}
);
unicode = 8230;
},
{
glyphname = endash;
layers = (
{
layerId = master01;
shapes = (
{
closed = 1;
nodes = (
(36,188,l),
(464,188,l),
(464,271,l),
(36,271,l)
);
}
);
vertWidth = 1130;
width = 500;
},
{
layerId = master02;
shapes = (
{
closed = 1;
nodes = (
(30,188,l),
(463,188,l),
(463,279,l),
(30,279,l)
);
}
);
vertWidth = 1130;
width = 493;
},
{
layerId = master03;
shapes = (
{
closed = 1;
nodes = (
(54,208,l),
(467,208,l),
(467,249,l),
(54,249,l)
);
}
);
vertWidth = 814;
width = 521;
},
{
layerId = master04;
shapes = (
{
closed = 1;
nodes = (
(54,198,l),
(467,198,l),
(467,249,l),
(54,249,l)
);
}
);
vertWidth = 1130;
width = 521;
},
{
layerId = master05;
shapes = (
{
closed = 1;
nodes = (
(48,188,l),
(466,188,l),
(466,256,l),
(48,256,l)
);
}
);
vertWidth = 1130;
width = 514;
},
{
layerId = master06;
shapes = (
{
closed = 1;
nodes = (
(54,188,l),
(467,188,l),
(467,249,l),
(54,249,l)
);
}
);
width = 521;
},
{
layerId = master07;
shapes = (
{
closed = 1;
nodes = (
(42,188,l),
(465,188,l),
(465,264,l),
(42,264,l)
);
}
);
vertWidth = 1130;
width = 507;
}
);
unicode = 8211;
},
{
glyphname = emdash;
layers = (
{
layerId = master01;
shapes = (
{
closed = 1;
nodes = (
(36,188,l),
(877,188,l),
(877,270,l),
(36,270,l)
);
}
);
vertWidth = 1130;
width = 913;
},
{
layerId = master02;
shapes = (
{
closed = 1;
nodes = (
(30,188,l),
(876,188,l),
(876,278,l),
(30,278,l)
);
}
);
vertWidth = 1130;
width = 906;
},
{
layerId = master03;
shapes = (
{
closed = 1;
nodes = (
(54,208,l),
(880,208,l),
(880,248,l),
(54,248,l)
);
}
);
vertWidth = 814;
width = 934;
},
{
layerId = master04;
shapes = (
{
closed = 1;
nodes = (
(54,198,l),
(880,198,l),
(880,248,l),
(54,248,l)
);
}
);
vertWidth = 1130;
width = 934;
},
{
layerId = master05;
shapes = (
{
closed = 1;
nodes = (
(48,188,l),
(879,188,l),
(879,255,l),
(48,255,l)
);
}
);
vertWidth = 1130;
width = 927;
},
{
layerId = master06;
shapes = (
{
closed = 1;
nodes = (
(54,188,l),
(880,188,l),
(880,248,l),
(54,248,l)
);
}
);
width = 934;
},
{
layerId = master07;
shapes = (
{
closed = 1;
nodes = (
(42,188,l),
(878,188,l),
(878,263,l),
(42,263,l)
);
}
);
vertWidth = 1130;
width = 920;
}
);
unicode = 8212;
},
{
glyphname = quoteleft;
layers = (
{
layerId = master01;
shapes = (
{
closed = 1;
nodes = (
(117,645,o),
(153,684,o),
(194,706,c),
(156,758,l),
(87,722,o),
(22,643,o),
(22,552,cs),
(22,463,o),
(71,432,o),
(111,432,cs),
(163,432,o),
(192,469,o),
(192,511,cs),
(192,553,o),
(167,586,o),
(123,595,cs),
(108,598,l)
);
}
);
vertWidth = 1130;
width = 229;
},
{
layerId = master02;
shapes = (
{
closed = 1;
nodes = (
(121,640,o),
(160,682,o),
(202,705,c),
(161,761,l),
(91,725,o),
(20,640,o),
(20,542,cs),
(20,450,o),
(70,415,o),
(114,415,cs),
(170,415,o),
(201,454,o),
(201,499,cs),
(201,545,o),
(174,580,o),
(126,590,cs),
(112,593,l)
);
}
);
vertWidth = 1130;
width = 237;
},
{
layerId = master03;
shapes = (
{
closed = 1;
nodes = (
(73,657,o),
(100,692,o),
(140,712,c),
(120,740,l),
(69,714,o),
(23,659,o),
(23,599,cs),
(23,547,o),
(50,533,o),
(71,533,cs),
(95,533,o),
(112,551,o),
(112,575,cs),
(112,603,o),
(94,619,o),
(72,623,cs),
(67,624,l)
);
}
);
vertWidth = 814;
width = 162;
},
{
layerId = master04;
shapes = (
{
closed = 1;
nodes = (
(88,658,o),
(117,691,o),
(154,710,c),
(130,744,l),
(72,714,o),
(26,656,o),
(26,590,cs),
(26,525,o),
(61,508,o),
(87,508,cs),
(119,508,o),
(138,532,o),
(138,560,cs),
(138,590,o),
(120,612,o),
(92,616,c),
(81,618,l)
);
}
);
vertWidth = 1130;
width = 183;
},
{
layerId = master05;
shapes = (
{
closed = 1;
nodes = (
(108,655,o),
(140,688,o),
(177,708,c),
(145,752,l),
(80,717,o),
(27,650,o),
(27,572,cs),
(27,490,o),
(72,467,o),
(106,467,cs),
(150,467,o),
(174,499,o),
(174,534,cs),
(174,569,o),
(153,599,o),
(116,605,cs),
(99,608,l)
);
}
);
vertWidth = 1130;
width = 212;
},
{
layerId = master06;
shapes = (
{
closed = 1;
nodes = (
(104,660,o),
(134,690,o),
(169,709,c),
(140,749,l),
(76,714,o),
(30,654,o),
(30,582,cs),
(30,504,o),
(73,484,o),
(104,484,cs),
(144,484,o),
(165,514,o),
(165,546,cs),
(165,577,o),
(147,606,o),
(113,610,c),
(95,613,l)
);
}
);
width = 204;
},
{
layerId = master07;
shapes = (
{
closed = 1;
nodes = (
(112,650,o),
(147,686,o),
(185,707,c),
(150,755,l),
(83,719,o),
(25,647,o),
(25,562,cs),
(25,477,o),
(71,449,o),
(109,449,cs),
(157,449,o),
(183,484,o),
(183,522,cs),
(183,561,o),
(160,592,o),
(119,600,cs),
(103,603,l)
);
}
);
vertWidth = 1130;
width = 220;
}
);
unicode = 8216;
},
{
glyphname = quoteright;
layers = (
{
layerId = master01;
shapes = (
{
closed = 1;
nodes = (
(112,545,o),
(75,506,o),
(35,484,c),
(73,432,l),
(141,468,o),
(206,547,o),
(206,639,cs),
(206,727,o),
(158,758,o),
(118,758,cs),
(66,758,o),
(37,721,o),
(37,679,cs),
(37,637,o),
(62,604,o),
(106,595,cs),
(121,592,l)
);
}
);
vertWidth = 1130;
width = 229;
},
{
layerId = master02;
shapes = (
{
closed = 1;
nodes = (
(116,536,o),
(77,494,o),
(35,471,c),
(76,415,l),
(146,451,o),
(217,536,o),
(217,634,cs),
(217,726,o),
(167,761,o),
(123,761,cs),
(67,761,o),
(36,722,o),
(36,677,cs),
(36,631,o),
(63,596,o),
(111,586,cs),
(125,583,l)
);
}
);
vertWidth = 1130;
width = 237;
},
{
layerId = master03;
shapes = (
{
closed = 1;
nodes = (
(89,591,o),
(62,556,o),
(22,536,c),
(42,508,l),
(93,534,o),
(139,589,o),
(139,649,cs),
(139,701,o),
(112,715,o),
(91,715,cs),
(67,715,o),
(50,697,o),
(50,673,cs),
(50,645,o),
(68,629,o),
(90,625,cs),
(95,624,l)
);
}
);
vertWidth = 814;
width = 162;
},
{
layerId = master04;
shapes = (
{
closed = 1;
nodes = (
(94,582,o),
(66,549,o),
(28,530,c),
(53,496,l),
(110,526,o),
(156,585,o),
(156,651,cs),
(156,715,o),
(122,732,o),
(96,732,cs),
(64,732,o),
(44,708,o),
(44,680,cs),
(44,650,o),
(62,628,o),
(90,624,c),
(102,622,l)
);
}
);
vertWidth = 1130;
width = 183;
},
{
layerId = master05;
shapes = (
{
closed = 1;
nodes = (
(104,564,o),
(72,531,o),
(35,511,c),
(67,467,l),
(132,502,o),
(185,570,o),
(185,649,cs),
(185,729,o),
(141,752,o),
(107,752,cs),
(63,752,o),
(38,720,o),
(38,684,cs),
(38,650,o),
(59,620,o),
(96,614,cs),
(113,611,l)
);
}
);
vertWidth = 1130;
width = 212;
},
{
layerId = master06;
shapes = (
{
closed = 1;
nodes = (
(100,573,o),
(70,543,o),
(35,524,c),
(64,484,l),
(128,519,o),
(174,582,o),
(174,654,cs),
(174,730,o),
(133,749,o),
(102,749,cs),
(62,749,o),
(39,719,o),
(39,687,cs),
(39,656,o),
(57,627,o),
(91,623,c),
(109,620,l)
);
}
);
width = 204;
},
{
layerId = master07;
shapes = (
{
closed = 1;
nodes = (
(108,554,o),
(73,518,o),
(35,497,c),
(70,449,l),
(137,485,o),
(195,559,o),
(195,644,cs),
(195,728,o),
(150,755,o),
(112,755,cs),
(64,755,o),
(37,720,o),
(37,682,cs),
(37,643,o),
(60,612,o),
(101,604,cs),
(117,601,l)
);
}
);
vertWidth = 1130;
width = 220;
}
);
unicode = 8217;
},
{
glyphname = divide;
layers = (
{
layerId = master01;
shapes = (
{
closed = 1;
nodes = (
(191,56,o),
(222,27,o),
(258,27,cs),
(295,27,o),
(325,56,o),
(325,94,cs),
(325,129,o),
(295,161,o),
(258,161,cs),
(222,161,o),
(191,129,o),
(191,94,cs)
);
},
{
closed = 1;
nodes = (
(191,377,o),
(222,348,o),
(258,348,cs),
(295,348,o),
(325,377,o),
(325,415,cs),
(325,449,o),
(295,482,o),
(258,482,cs),
(222,482,o),
(191,449,o),
(191,415,cs)
);
},
{
closed = 1;
nodes = (
(38,219,l),
(483,219,l),
(483,291,l),
(38,291,l)
);
}
);
vertWidth = 1130;
width = 521;
},
{
layerId = master02;
shapes = (
{
closed = 1;
nodes = (
(191,50,o),
(223,20,o),
(261,20,cs),
(299,20,o),
(331,50,o),
(331,90,cs),
(331,126,o),
(299,160,o),
(261,160,cs),
(223,160,o),
(191,126,o),
(191,90,cs)
);
},
{
closed = 1;
nodes = (
(191,375,o),
(223,345,o),
(261,345,cs),
(299,345,o),
(331,375,o),
(331,415,cs),
(331,451,o),
(299,485,o),
(261,485,cs),
(223,485,o),
(191,451,o),
(191,415,cs)
);
},
{
closed = 1;
nodes = (
(38,214,l),
(487,214,l),
(487,291,l),
(38,291,l)
);
}
);
vertWidth = 1130;
width = 525;
},
{
layerId = master03;
shapes = (
{
closed = 1;
nodes = (
(205,76,o),
(222,60,o),
(244,60,cs),
(265,60,o),
(283,76,o),
(283,103,cs),
(283,128,o),
(265,145,o),
(244,145,cs),
(222,145,o),
(205,128,o),
(205,103,cs)
);
},
{
closed = 1;
nodes = (
(205,383,o),
(222,368,o),
(244,368,cs),
(265,368,o),
(283,383,o),
(283,410,cs),
(283,435,o),
(265,452,o),
(244,452,cs),
(222,452,o),
(205,435,o),
(205,410,cs)
);
},
{
closed = 1;
nodes = (
(36,236,l),
(458,236,l),
(458,276,l),
(36,276,l)
);
}
);
vertWidth = 814;
width = 496;
},
{
layerId = master04;
shapes = (
{
closed = 1;
nodes = (
(197,74,o),
(219,53,o),
(246,53,cs),
(271,53,o),
(293,74,o),
(293,104,cs),
(293,131,o),
(271,153,o),
(246,153,cs),
(219,153,o),
(197,131,o),
(197,104,cs)
);
},
{
closed = 1;
nodes = (
(197,379,o),
(219,359,o),
(246,359,cs),
(271,359,o),
(293,379,o),
(293,409,cs),
(293,436,o),
(271,458,o),
(246,458,cs),
(219,458,o),
(197,436,o),
(197,409,cs)
);
},
{
closed = 1;
nodes = (
(37,232,l),
(458,232,l),
(458,279,l),
(37,279,l)
);
}
);
vertWidth = 1130;
width = 496;
},
{
layerId = master05;
shapes = (
{
closed = 1;
nodes = (
(188,47,o),
(217,20,o),
(248,20,cs),
(281,20,o),
(308,47,o),
(308,81,cs),
(308,113,o),
(281,140,o),
(248,140,cs),
(217,140,o),
(188,113,o),
(188,81,cs)
);
},
{
closed = 1;
nodes = (
(188,352,o),
(217,326,o),
(248,326,cs),
(281,326,o),
(308,352,o),
(308,387,cs),
(308,418,o),
(281,446,o),
(248,446,cs),
(217,446,o),
(188,418,o),
(188,387,cs)
);
},
{
closed = 1;
nodes = (
(37,203,l),
(463,203,l),
(463,264,l),
(37,264,l)
);
}
);
vertWidth = 1130;
width = 500;
},
{
layerId = master06;
shapes = (
{
closed = 1;
nodes = (
(189,73,o),
(216,48,o),
(246,48,cs),
(277,48,o),
(303,73,o),
(303,106,cs),
(303,135,o),
(277,162,o),
(246,162,cs),
(216,162,o),
(189,135,o),
(189,106,cs)
);
},
{
closed = 1;
nodes = (
(189,374,o),
(216,349,o),
(246,349,cs),
(277,349,o),
(303,374,o),
(303,407,cs),
(303,437,o),
(277,464,o),
(246,464,cs),
(216,464,o),
(189,437,o),
(189,407,cs)
);
},
{
closed = 1;
nodes = (
(37,227,l),
(458,227,l),
(458,284,l),
(37,284,l)
);
}
);
width = 496;
},
{
layerId = master07;
shapes = (
{
closed = 1;
nodes = (
(190,61,o),
(219,34,o),
(254,34,cs),
(288,34,o),
(317,61,o),
(317,98,cs),
(317,131,o),
(288,161,o),
(254,161,cs),
(219,161,o),
(190,131,o),
(190,98,cs)
);
},
{
closed = 1;
nodes = (
(190,374,o),
(219,347,o),
(254,347,cs),
(288,347,o),
(317,374,o),
(317,411,cs),
(317,444,o),
(288,474,o),
(254,474,cs),
(219,474,o),
(190,444,o),
(190,411,cs)
);
},
{
closed = 1;
nodes = (
(38,220,l),
(473,220,l),
(473,287,l),
(38,287,l)
);
}
);
vertWidth = 1130;
width = 510;
}
);
unicode = 247;
},
{
glyphname = minus;
layers = (
{
layerId = master01;
shapes = (
{
closed = 1;
nodes = (
(38,260,l),
(411,260,l),
(411,332,l),
(38,332,l)
);
}
);
vertWidth = 1130;
width = 449;
},
{
layerId = master02;
shapes = (
{
closed = 1;
nodes = (
(38,260,l),
(411,260,l),
(411,337,l),
(38,337,l)
);
}
);
vertWidth = 1130;
width = 449;
},
{
layerId = master03;
shapes = (
{
closed = 1;
nodes = (
(36,272,l),
(403,272,l),
(403,313,l),
(36,313,l)
);
}
);
vertWidth = 814;
width = 440;
},
{
layerId = master04;
shapes = (
{
closed = 1;
nodes = (
(37,264,l),
(403,264,l),
(403,312,l),
(37,312,l)
);
}
);
vertWidth = 1130;
width = 440;
},
{
layerId = master05;
shapes = (
{
closed = 1;
nodes = (
(37,255,l),
(403,255,l),
(403,316,l),
(37,316,l)
);
}
);
vertWidth = 1130;
width = 440;
},
{
layerId = master06;
shapes = (
{
closed = 1;
nodes = (
(37,255,l),
(403,255,l),
(403,312,l),
(37,312,l)
);
}
);
width = 440;
},
{
layerId = master07;
shapes = (
{
closed = 1;
nodes = (
(38,258,l),
(407,258,l),
(407,324,l),
(38,324,l)
);
}
);
vertWidth = 1130;
width = 445;
}
);
unicode = 8722;
},
{
glyphname = multiply;
layers = (
{
layerId = master01;
shapes = (
{
closed = 1;
nodes = (
(222,240,l),
(346,117,l),
(405,176,l),
(281,299,l),
(405,423,l),
(346,482,l),
(222,359,l),
(98,483,l),
(39,424,l),
(163,299,l),
(39,175,l),
(98,116,l)
);
}
);
vertWidth = 1130;
width = 445;
},
{
layerId = master02;
shapes = (
{
closed = 1;
nodes = (
(230,233,l),
(355,109,l),
(420,174,l),
(295,298,l),
(420,423,l),
(355,488,l),
(230,364,l),
(105,489,l),
(40,424,l),
(165,298,l),
(40,173,l),
(105,108,l)
);
}
);
vertWidth = 1130;
width = 460;
},
{
layerId = master03;
shapes = (
{
closed = 1;
nodes = (
(200,272,l),
(326,146,l),
(357,177,l),
(231,303,l),
(357,429,l),
(326,460,l),
(200,334,l),
(74,460,l),
(43,429,l),
(169,303,l),
(43,177,l),
(74,146,l)
);
}
);
vertWidth = 814;
width = 400;
},
{
layerId = master04;
shapes = (
{
closed = 1;
nodes = (
(200,267,l),
(323,143,l),
(359,179,l),
(236,303,l),
(359,426,l),
(323,462,l),
(200,339,l),
(76,462,l),
(40,426,l),
(164,303,l),
(40,179,l),
(76,143,l)
);
}
);
vertWidth = 1130;
width = 400;
},
{
layerId = master05;
shapes = (
{
closed = 1;
nodes = (
(207,255,l),
(329,133,l),
(376,180,l),
(254,302,l),
(376,424,l),
(329,471,l),
(207,349,l),
(85,471,l),
(38,424,l),
(160,302,l),
(38,180,l),
(85,133,l)
);
}
);
vertWidth = 1130;
width = 415;
},
{
layerId = master06;
shapes = (
{
closed = 1;
nodes = (
(200,262,l),
(321,141,l),
(362,182,l),
(241,303,l),
(362,424,l),
(321,465,l),
(200,344,l),
(79,465,l),
(38,424,l),
(159,303,l),
(38,182,l),
(79,141,l)
);
}
);
width = 400;
},
{
layerId = master07;
shapes = (
{
closed = 1;
nodes = (
(215,247,l),
(338,125,l),
(391,178,l),
(268,300,l),
(391,423,l),
(338,476,l),
(215,354,l),
(92,477,l),
(39,424,l),
(162,300,l),
(39,177,l),
(92,124,l)
);
}
);
vertWidth = 1130;
width = 430;
}
);
unicode = 215;
},
{
glyphname = dollar;
layers = (
{
layerId = master01;
shapes = (
{
closed = 1;
nodes = (
(129,582,o),
(58,518,o),
(58,423,cs),
(58,332,o),
(123,282,o),
(204,257,cs),
(252,242,ls),
(312,222,o),
(333,202,o),
(333,169,cs),
(333,133,o),
(307,106,o),
(242,106,cs),
(199,106,o),
(149,120,o),
(104,150,c),
(61,60,l),
(106,31,o),
(154,14,o),
(213,9,c),
(213,-97,l),
(295,-97,l),
(295,11,l),
(407,26,o),
(465,93,o),
(465,178,cs),
(465,262,o),
(412,318,o),
(316,350,cs),
(273,364,ls),
(213,384,o),
(189,400,o),
(189,435,cs),
(189,472,o),
(222,492,o),
(268,492,cs),
(312,492,o),
(361,477,o),
(397,457,c),
(431,548,l),
(391,571,o),
(348,583,o),
(310,588,c),
(310,691,l),
(227,691,l),
(227,588,l)
);
}
);
vertWidth = 1130;
width = 525;
},
{
layerId = master02;
shapes = (
{
closed = 1;
nodes = (
(131,584,o),
(57,516,o),
(57,422,cs),
(57,329,o),
(126,277,o),
(207,251,cs),
(256,235,ls),
(312,216,o),
(328,197,o),
(328,170,cs),
(328,143,o),
(309,117,o),
(244,117,cs),
(199,117,o),
(150,131,o),
(106,161,c),
(60,64,l),
(105,33,o),
(155,15,o),
(215,9,c),
(215,-99,l),
(305,-99,l),
(305,11,l),
(422,28,o),
(474,99,o),
(474,180,cs),
(474,265,o),
(422,324,o),
(327,355,cs),
(283,370,ls),
(223,390,o),
(203,405,o),
(203,434,cs),
(203,465,o),
(234,483,o),
(274,483,cs),
(318,483,o),
(370,466,o),
(404,447,c),
(441,547,l),
(402,571,o),
(357,583,o),
(319,589,c),
(319,693,l),
(229,693,l),
(229,588,l)
);
}
);
vertWidth = 1130;
width = 533;
},
{
layerId = master03;
shapes = (
{
closed = 1;
nodes = (
(125,559,o),
(63,504,o),
(63,431,cs),
(63,352,o),
(121,314,o),
(193,291,cs),
(256,271,ls),
(347,241,o),
(364,203,o),
(364,157,cs),
(364,105,o),
(318,62,o),
(229,62,cs),
(179,62,o),
(126,75,o),
(84,99,c),
(65,60,l),
(106,38,o),
(159,23,o),
(209,20,c),
(209,-87,l),
(252,-87,l),
(252,20,l),
(352,32,o),
(417,90,o),
(417,163,cs),
(417,231,o),
(379,278,o),
(296,306,cs),
(231,328,ls),
(155,354,o),
(115,378,o),
(115,433,cs),
(115,483,o),
(163,524,o),
(239,524,cs),
(284,524,o),
(331,515,o),
(372,493,c),
(388,531,l),
(349,551,o),
(307,561,o),
(266,565,c),
(266,669,l),
(223,669,l),
(223,565,l)
);
}
);
vertWidth = 814;
width = 484;
},
{
layerId = master04;
shapes = (
{
closed = 1;
nodes = (
(123,563,o),
(62,508,o),
(62,424,cs),
(62,346,o),
(118,306,o),
(193,282,cs),
(246,265,ls),
(329,238,o),
(355,208,o),
(355,159,cs),
(355,102,o),
(307,67,o),
(231,67,cs),
(187,67,o),
(135,77,o),
(88,104,c),
(64,54,l),
(109,31,o),
(153,18,o),
(206,15,c),
(206,-87,l),
(258,-87,l),
(258,15,l),
(357,23,o),
(421,81,o),
(421,166,cs),
(421,238,o),
(376,284,o),
(288,315,cs),
(234,334,ls),
(165,358,o),
(128,376,o),
(128,431,cs),
(128,484,o),
(174,518,o),
(243,518,cs),
(285,518,o),
(328,509,o),
(371,486,c),
(391,537,l),
(352,555,o),
(312,565,o),
(272,569,c),
(272,670,l),
(220,670,l),
(220,569,l)
);
}
);
vertWidth = 1130;
width = 488;
},
{
layerId = master05;
shapes = (
{
closed = 1;
nodes = (
(124,567,o),
(60,510,o),
(60,417,cs),
(60,334,o),
(117,291,o),
(195,266,cs),
(240,251,ls),
(306,230,o),
(339,208,o),
(339,163,cs),
(339,111,o),
(296,85,o),
(234,85,cs),
(195,85,o),
(145,94,o),
(96,124,c),
(62,52,l),
(109,26,o),
(150,13,o),
(205,10,c),
(205,-90,l),
(272,-90,l),
(272,10,l),
(367,21,o),
(435,81,o),
(435,170,cs),
(435,250,o),
(385,301,o),
(290,332,cs),
(247,346,ls),
(191,365,o),
(157,381,o),
(157,427,cs),
(157,476,o),
(196,501,o),
(252,501,cs),
(292,501,o),
(334,490,o),
(376,468,c),
(403,539,l),
(363,560,o),
(323,571,o),
(286,575,c),
(286,671,l),
(219,671,l),
(219,575,l)
);
}
);
vertWidth = 1130;
width = 500;
},
{
layerId = master06;
shapes = (
{
closed = 1;
nodes = (
(122,566,o),
(61,511,o),
(61,418,cs),
(61,338,o),
(114,296,o),
(193,272,cs),
(236,259,ls),
(307,238,o),
(344,214,o),
(344,162,cs),
(344,101,o),
(294,74,o),
(232,74,cs),
(195,74,o),
(144,83,o),
(93,113,c),
(63,49,l),
(111,24,o),
(150,13,o),
(203,10,c),
(203,-87,l),
(263,-87,l),
(263,10,l),
(352,20,o),
(426,75,o),
(426,168,cs),
(426,247,o),
(376,296,o),
(281,326,cs),
(238,340,ls),
(181,359,o),
(143,377,o),
(143,428,cs),
(143,484,o),
(186,511,o),
(246,511,cs),
(286,511,o),
(325,501,o),
(369,478,c),
(393,541,l),
(352,561,o),
(314,571,o),
(277,574,c),
(277,670,l),
(217,670,l),
(217,575,l)
);
}
);
width = 493;
},
{
layerId = master07;
shapes = (
{
closed = 1;
nodes = (
(126,575,o),
(59,513,o),
(59,419,cs),
(59,333,o),
(120,288,o),
(200,261,cs),
(245,246,ls),
(308,226,o),
(336,205,o),
(336,165,cs),
(336,122,o),
(301,95,o),
(238,95,cs),
(196,95,o),
(147,106,o),
(100,136,c),
(61,56,l),
(107,28,o),
(152,14,o),
(209,9,c),
(209,-93,l),
(284,-93,l),
(284,10,l),
(386,23,o),
(449,86,o),
(449,174,cs),
(449,256,o),
(399,309,o),
(304,340,cs),
(260,354,ls),
(201,374,o),
(173,390,o),
(173,431,cs),
(173,474,o),
(210,496,o),
(259,496,cs),
(302,496,o),
(347,483,o),
(386,462,c),
(416,544,l),
(377,566,o),
(336,577,o),
(298,581,c),
(298,681,l),
(223,681,l),
(223,581,l)
);
}
);
vertWidth = 1130;
width = 512;
}
);
unicode = 36;
},
{
glyphname = A;
lastChange = "2022-06-07 15:02:57 +0000";
layers = (
{
layerId = master01;
shapes = (
{
closed = 1;
nodes = (
(155,0,l),
(204,145,l),
(428,145,l),
(477,0,l),
(622,0,l),
(389,630,l),
(247,630,l),
(12,0,l)
);
},
{
closed = 1;
nodes = (
(264,330,ls),
(282,384,o),
(300,437,o),
(315,488,c),
(317,488,l),
(331,435,o),
(348,382,o),
(366,330,cs),
(395,246,l),
(235,246,l)
);
}
);
vertWidth = 1130;
width = 633;
},
{
layerId = master02;
shapes = (
{
closed = 1;
nodes = (
(175,0,l),
(218,135,l),
(430,135,l),
(473,0,l),
(634,0,l),
(407,630,l),
(245,630,l),
(16,0,l)
);
},
{
closed = 1;
nodes = (
(275,321,ls),
(291,373,o),
(310,431,o),
(323,477,c),
(325,477,l),
(337,430,o),
(355,370,o),
(371,321,cs),
(395,245,l),
(251,245,l)
);
}
);
vertWidth = 1130;
width = 652;
},
{
layerId = master03;
shapes = (
{
closed = 1;
nodes = (
(81,0,l),
(150,186,l),
(432,186,l),
(501,0,l),
(557,0,l),
(319,630,l),
(267,630,l),
(26,0,l)
);
},
{
closed = 1;
nodes = (
(247,444,ls),
(256,468,o),
(278,529,o),
(292,578,c),
(294,578,l),
(307,529,o),
(330,460,o),
(336,444,cs),
(415,228,l),
(166,228,l)
);
}
);
vertWidth = 814;
width = 583;
},
{
layerId = master04;
shapes = (
{
closed = 1;
nodes = (
(87,0,l),
(156,180,l),
(426,180,l),
(495,0,l),
(571,0,l),
(327,630,l),
(260,630,l),
(12,0,l)
);
},
{
closed = 1;
nodes = (
(228,373,ls),
(251,432,o),
(269,480,o),
(291,550,c),
(293,550,l),
(315,480,o),
(337,420,o),
(354,373,cs),
(404,238,l),
(176,238,l)
);
}
);
vertWidth = 1130;
width = 583;
},
{
layerId = master05;
shapes = (
{
closed = 1;
nodes = (
(114,0,l),
(176,165,l),
(423,165,l),
(486,0,l),
(598,0,l),
(353,630,l),
(251,630,l),
(3,0,l)
);
},
{
closed = 1;
nodes = (
(241,348,ls),
(263,406,o),
(279,453,o),
(299,511,c),
(301,511,l),
(320,448,o),
(336,406,o),
(357,349,cs),
(394,247,l),
(203,247,l)
);
}
);
vertWidth = 1130;
width = 601;
},
{
layerId = master06;
shapes = (
{
closed = 1;
nodes = (
(97,0,l),
(165,175,l),
(424,175,l),
(493,0,l),
(589,0,l),
(338,630,l),
(256,630,l),
(2,0,l)
);
},
{
closed = 1;
nodes = (
(233,357,ls),
(256,416,o),
(275,466,o),
(294,522,c),
(296,522,l),
(315,466,o),
(333,414,o),
(355,357,cs),
(397,248,l),
(190,248,l)
);
}
);
width = 590;
},
{
layerId = master07;
shapes = (
{
closed = 1;
nodes = (
(134,0,l),
(190,155,l),
(425,155,l),
(481,0,l),
(610,0,l),
(371,630,l),
(249,630,l),
(7,0,l)
);
},
{
closed = 1;
nodes = (
(252,339,l),
(272,395,o),
(289,445,o),
(307,499,c),
(309,499,l),
(326,441,o),
(342,394,o),
(361,339,cs),
(394,246,l),
(219,246,l)
);
}
);
vertWidth = 1130;
width = 618;
}
);
unicode = 65;
},
{
glyphname = B;
layers = (
{
layerId = master01;
shapes = (
{
closed = 1;
nodes = (
(69,0,l),
(289,0,ls),
(434,0,o),
(529,74,o),
(529,178,cs),
(529,269,o),
(468,318,o),
(394,331,c),
(450,344,o),
(510,389,o),
(510,466,cs),
(510,569,o),
(426,630,o),
(294,630,cs),
(69,630,l)
);
},
{
closed = 1;
nodes = (
(274,526,ls),
(335,526,o),
(369,502,o),
(369,456,cs),
(369,404,o),
(330,378,o),
(271,378,cs),
(206,378,l),
(206,526,l)
);
},
{
closed = 1;
nodes = (
(267,275,ls),
(335,275,o),
(388,251,o),
(388,191,cs),
(388,127,o),
(338,104,o),
(271,104,cs),
(206,104,l),
(206,275,l)
);
}
);
vertWidth = 1130;
width = 570;
},
{
layerId = master02;
shapes = (
{
closed = 1;
nodes = (
(66,0,l),
(298,0,ls),
(448,0,o),
(543,75,o),
(543,179,cs),
(543,270,o),
(481,317,o),
(408,330,c),
(461,342,o),
(524,387,o),
(524,464,cs),
(524,567,o),
(437,630,o),
(303,630,cs),
(66,630,l)
);
},
{
closed = 1;
nodes = (
(280,516,ls),
(338,516,o),
(368,493,o),
(368,453,cs),
(368,411,o),
(336,382,o),
(279,382,cs),
(218,382,l),
(218,516,l)
);
},
{
closed = 1;
nodes = (
(278,269,ls),
(343,269,o),
(387,246,o),
(387,193,cs),
(387,136,o),
(342,114,o),
(277,114,cs),
(218,114,l),
(218,269,l)
);
}
);
vertWidth = 1130;
width = 581;
},
{
layerId = master03;
shapes = (
{
closed = 1;
nodes = (
(80,0,l),
(218,0,ls),
(357,0,o),
(447,72,o),
(447,176,cs),
(447,267,o),
(388,322,o),
(314,335,c),
(379,352,o),
(428,395,o),
(428,472,cs),
(428,575,o),
(355,630,o),
(230,630,cs),
(80,630,l)
);
},
{
closed = 1;
nodes = (
(216,588,ls),
(311,588,o),
(374,554,o),
(374,469,cs),
(374,382,o),
(296,354,o),
(210,354,cs),
(132,354,l),
(132,588,l)
);
},
{
closed = 1;
nodes = (
(211,312,ls),
(307,312,o),
(391,283,o),
(391,185,cs),
(391,81,o),
(308,42,o),
(208,42,cs),
(132,42,l),
(132,312,l)
);
}
);
vertWidth = 814;
width = 497;
},
{
layerId = master04;
shapes = (
{
closed = 1;
nodes = (
(80,0,l),
(240,0,ls),
(374,0,o),
(467,72,o),
(467,176,cs),
(467,267,o),
(408,322,o),
(334,335,c),
(399,352,o),
(448,394,o),
(448,471,cs),
(448,574,o),
(374,630,o),
(249,630,cs),
(80,630,l)
);
},
{
closed = 1;
nodes = (
(235,572,ls),
(318,572,o),
(374,541,o),
(374,466,cs),
(374,383,o),
(304,360,o),
(228,360,cs),
(152,360,l),
(152,572,l)
);
},
{
closed = 1;
nodes = (
(223,303,ls),
(309,303,o),
(391,275,o),
(391,185,cs),
(391,91,o),
(317,58,o),
(230,58,cs),
(152,58,l),
(152,303,l)
);
}
);
vertWidth = 1130;
width = 517;
},
{
layerId = master05;
shapes = (
{
closed = 1;
nodes = (
(76,0,l),
(271,0,ls),
(406,0,o),
(501,73,o),
(501,177,cs),
(501,268,o),
(441,321,o),
(367,334,c),
(429,349,o),
(482,392,o),
(482,469,cs),
(482,572,o),
(405,630,o),
(277,630,cs),
(76,630,l)
);
},
{
closed = 1;
nodes = (
(261,546,ls),
(329,546,o),
(372,519,o),
(372,461,cs),
(372,391,o),
(319,371,o),
(255,371,cs),
(183,371,l),
(183,546,l)
);
},
{
closed = 1;
nodes = (
(246,288,ls),
(320,288,o),
(390,262,o),
(390,187,cs),
(390,110,o),
(330,84,o),
(258,84,cs),
(183,84,l),
(183,288,l)
);
}
);
vertWidth = 1130;
width = 548;
},
{
layerId = master06;
shapes = (
{
closed = 1;
nodes = (
(80,0,l),
(262,0,ls),
(392,0,o),
(487,72,o),
(487,176,cs),
(487,267,o),
(428,322,o),
(354,335,c),
(419,352,o),
(468,394,o),
(468,471,cs),
(468,574,o),
(394,630,o),
(269,630,cs),
(80,630,l)
);
},
{
closed = 1;
nodes = (
(255,556,ls),
(326,556,o),
(374,528,o),
(374,464,cs),
(374,385,o),
(313,367,o),
(247,367,cs),
(172,367,l),
(172,556,l)
);
},
{
closed = 1;
nodes = (
(236,294,ls),
(312,294,o),
(391,267,o),
(391,185,cs),
(391,102,o),
(326,74,o),
(252,74,cs),
(172,74,l),
(172,294,l)
);
}
);
width = 537;
},
{
layerId = master07;
shapes = (
{
closed = 1;
nodes = (
(73,0,l),
(280,0,ls),
(420,0,o),
(515,73,o),
(515,177,cs),
(515,268,o),
(454,319,o),
(381,332,c),
(440,347,o),
(496,390,o),
(496,467,cs),
(496,570,o),
(415,630,o),
(286,630,c),
(73,630,l)
);
},
{
closed = 1;
nodes = (
(267,536,ls),
(332,536,o),
(371,510,o),
(371,458,cs),
(371,398,o),
(324,374,o),
(263,374,cs),
(195,374,l),
(195,536,l)
);
},
{
closed = 1;
nodes = (
(257,281,ls),
(327,281,o),
(389,256,o),
(389,189,cs),
(389,119,o),
(334,94,o),
(264,94,cs),
(195,94,l),
(195,281,l)
);
}
);
vertWidth = 1130;
width = 559;
}
);
unicode = 66;
},
{
glyphname = C;
layers = (
{
layerId = master01;
shapes = (
{
closed = 1;
nodes = (
(271,95,o),
(185,165,o),
(185,316,cs),
(185,474,o),
(273,535,o),
(383,535,cs),
(435,535,o),
(476,520,o),
(511,502,c),
(542,603,l),
(507,622,o),
(454,641,o),
(369,641,cs),
(169,641,o),
(40,514,o),
(40,316,cs),
(40,113,o),
(176,-11,o),
(366,-11,cs),
(450,-11,o),
(509,7,o),
(541,25,c),
(513,125,l),
(482,107,o),
(441,95,o),
(380,95,cs)
);
}
);
vertWidth = 1130;
width = 570;
},
{
layerId = master02;
shapes = (
{
closed = 1;
nodes = (
(281,105,o),
(198,175,o),
(198,317,cs),
(198,468,o),
(283,526,o),
(390,526,cs),
(440,526,o),
(484,510,o),
(514,493,c),
(548,604,l),
(516,621,o),
(462,642,o),
(375,642,cs),
(167,642,o),
(38,512,o),
(38,316,cs),
(38,116,o),
(175,-11,o),
(373,-11,cs),
(459,-11,o),
(520,9,o),
(547,25,c),
(517,134,l),
(489,117,o),
(448,105,o),
(389,105,cs)
);
}
);
vertWidth = 1130;
width = 574;
},
{
layerId = master03;
shapes = (
{
closed = 1;
nodes = (
(222,34,o),
(89,105,o),
(89,313,cs),
(89,513,o),
(211,596,o),
(343,596,cs),
(397,596,o),
(440,585,o),
(484,563,c),
(496,602,l),
(454,625,o),
(409,638,o),
(332,638,cs),
(162,638,o),
(35,520,o),
(35,314,cs),
(35,104,o),
(168,-8,o),
(334,-8,cs),
(406,-8,o),
(453,4,o),
(493,24,c),
(481,66,l),
(447,48,o),
(405,34,o),
(341,34,cs)
);
}
);
vertWidth = 814;
width = 529;
},
{
layerId = master04;
shapes = (
{
closed = 1;
nodes = (
(231,50,o),
(117,119,o),
(117,313,cs),
(117,503,o),
(228,579,o),
(352,579,cs),
(408,579,o),
(447,568,o),
(494,546,c),
(511,602,l),
(467,625,o),
(420,638,o),
(341,638,cs),
(168,638,o),
(40,520,o),
(40,314,cs),
(40,104,o),
(173,-9,o),
(339,-9,cs),
(415,-9,o),
(464,3,o),
(508,24,c),
(491,82,l),
(453,63,o),
(413,50,o),
(348,50,cs)
);
}
);
vertWidth = 1130;
width = 544;
},
{
layerId = master05;
shapes = (
{
closed = 1;
nodes = (
(251,76,o),
(158,144,o),
(158,315,cs),
(158,487,o),
(254,554,o),
(369,554,cs),
(425,554,o),
(461,541,o),
(506,521,c),
(531,602,l),
(490,624,o),
(439,640,o),
(356,640,cs),
(172,640,o),
(43,519,o),
(43,315,cs),
(43,108,o),
(178,-10,o),
(352,-10,cs),
(433,-10,o),
(487,4,o),
(529,24,c),
(506,107,l),
(467,88,o),
(428,76,o),
(363,76,cs)
);
}
);
vertWidth = 1130;
width = 563;
},
{
layerId = master06;
shapes = (
{
closed = 1;
nodes = (
(241,67,o),
(145,134,o),
(145,314,cs),
(145,493,o),
(245,563,o),
(362,563,cs),
(420,563,o),
(454,552,o),
(504,530,c),
(526,602,l),
(481,625,o),
(432,639,o),
(350,639,cs),
(174,639,o),
(45,521,o),
(45,315,cs),
(45,105,o),
(179,-9,o),
(345,-9,cs),
(424,-9,o),
(476,2,o),
(523,24,c),
(502,98,l),
(460,78,o),
(421,67,o),
(355,67,cs)
);
}
);
width = 559;
},
{
layerId = master07;
shapes = (
{
closed = 1;
nodes = (
(261,86,o),
(171,154,o),
(171,315,cs),
(171,480,o),
(264,544,o),
(376,544,cs),
(430,544,o),
(469,531,o),
(509,511,c),
(537,603,l),
(498,623,o),
(447,640,o),
(362,640,cs),
(170,640,o),
(41,516,o),
(41,315,cs),
(41,110,o),
(177,-10,o),
(359,-10,cs),
(441,-10,o),
(498,5,o),
(535,24,c),
(509,116,l),
(474,97,o),
(434,86,o),
(372,86,cs)
);
}
);
vertWidth = 1130;
width = 566;
}
);
unicode = 67;
},
{
glyphname = D;
layers = (
{
layerId = master01;
shapes = (
{
closed = 1;
nodes = (
(69,0,l),
(262,0,ls),
(455,0,o),
(615,100,o),
(615,328,cs),
(615,528,o),
(484,630,o),
(289,630,cs),
(69,630,l)
);
},
{
closed = 1;
nodes = (
(271,524,ls),
(392,524,o),
(470,454,o),
(470,328,cs),
(470,155,o),
(366,106,o),
(253,106,cs),
(206,106,l),
(206,524,l)
);
}
);
vertWidth = 1130;
width = 654;
},
{
layerId = master02;
shapes = (
{
closed = 1;
nodes = (
(66,0,l),
(266,0,ls),
(462,0,o),
(622,105,o),
(622,328,cs),
(622,528,o),
(491,630,o),
(291,630,cs),
(66,630,l)
);
},
{
closed = 1;
nodes = (
(273,514,ls),
(388,514,o),
(462,448,o),
(462,328,cs),
(462,165,o),
(365,116,o),
(257,116,cs),
(218,116,l),
(218,514,l)
);
}
);
vertWidth = 1130;
width = 658;
},
{
layerId = master03;
shapes = (
{
closed = 1;
nodes = (
(80,0,l),
(230,0,ls),
(406,0,o),
(556,86,o),
(556,329,cs),
(556,529,o),
(431,630,o),
(265,630,cs),
(80,630,l)
);
},
{
closed = 1;
nodes = (
(247,588,ls),
(398,588,o),
(502,492,o),
(502,329,cs),
(502,100,o),
(359,42,o),
(221,42,cs),
(132,42,l),
(132,588,l)
);
}
);
vertWidth = 814;
width = 602;
},
{
layerId = master04;
shapes = (
{
closed = 1;
nodes = (
(80,0,l),
(240,0,ls),
(421,0,o),
(576,86,o),
(576,329,cs),
(576,529,o),
(447,630,o),
(275,630,cs),
(80,630,l)
);
},
{
closed = 1;
nodes = (
(257,571,ls),
(402,571,o),
(499,483,o),
(499,329,cs),
(499,112,o),
(364,59,o),
(231,59,cs),
(152,59,l),
(152,571,l)
);
}
);
vertWidth = 1130;
width = 622;
},
{
layerId = master05;
shapes = (
{
closed = 1;
nodes = (
(76,0,l),
(254,0,ls),
(442,0,o),
(602,91,o),
(602,329,cs),
(602,529,o),
(470,630,o),
(286,630,cs),
(76,630,l)
);
},
{
closed = 1;
nodes = (
(268,544,ls),
(401,544,o),
(487,467,o),
(487,329,cs),
(487,134,o),
(368,86,o),
(245,86,cs),
(183,86,l),
(183,544,l)
);
}
);
vertWidth = 1130;
width = 646;
},
{
layerId = master06;
shapes = (
{
closed = 1;
nodes = (
(80,0,l),
(250,0,ls),
(436,0,o),
(596,86,o),
(596,329,cs),
(596,529,o),
(463,630,o),
(285,630,cs),
(80,630,l)
);
},
{
closed = 1;
nodes = (
(267,554,ls),
(406,554,o),
(496,474,o),
(496,329,cs),
(496,124,o),
(369,76,o),
(241,76,cs),
(172,76,l),
(172,554,l)
);
}
);
width = 642;
},
{
layerId = master07;
shapes = (
{
closed = 1;
nodes = (
(73,0,l),
(258,0,ls),
(449,0,o),
(609,95,o),
(609,328,cs),
(609,528,o),
(477,630,o),
(288,630,c),
(73,630,l)
);
},
{
closed = 1;
nodes = (
(270,534,ls),
(397,534,o),
(479,461,o),
(479,328,cs),
(479,144,o),
(367,96,o),
(249,96,cs),
(195,96,l),
(195,534,l)
);
}
);
vertWidth = 1130;
width = 650;
}
);
unicode = 68;
},
{
glyphname = E;
layers = (
{
layerId = master01;
shapes = (
{
closed = 1;
nodes = (
(482,0,l),
(482,106,l),
(206,106,l),
(206,275,l),
(453,275,l),
(453,380,l),
(206,380,l),
(206,524,l),
(479,524,l),
(479,630,l),
(69,630,l),
(69,0,l)
);
}
);
vertWidth = 1130;
width = 517;
},
{
layerId = master02;
shapes = (
{
closed = 1;
nodes = (
(489,0,l),
(489,116,l),
(218,116,l),
(218,270,l),
(460,270,l),
(460,385,l),
(218,385,l),
(218,514,l),
(486,514,l),
(486,630,l),
(66,630,l),
(66,0,l)
);
}
);
vertWidth = 1130;
width = 523;
},
{
layerId = master03;
shapes = (
{
closed = 1;
nodes = (
(443,0,l),
(443,42,l),
(132,42,l),
(132,303,l),
(414,303,l),
(414,345,l),
(132,345,l),
(132,588,l),
(440,588,l),
(440,630,l),
(80,630,l),
(80,0,l)
);
}
);
vertWidth = 814;
width = 487;
},
{
layerId = master04;
shapes = (
{
closed = 1;
nodes = (
(453,0,l),
(453,59,l),
(152,59,l),
(152,296,l),
(424,296,l),
(424,355,l),
(152,355,l),
(152,571,l),
(450,571,l),
(450,630,l),
(80,630,l),
(80,0,l)
);
}
);
vertWidth = 1130;
width = 494;
},
{
layerId = master05;
shapes = (
{
closed = 1;
nodes = (
(469,0,l),
(469,86,l),
(183,86,l),
(183,285,l),
(440,285,l),
(440,370,l),
(183,370,l),
(183,544,l),
(466,544,l),
(466,630,l),
(76,630,l),
(76,0,l)
);
}
);
vertWidth = 1130;
width = 506;
},
{
layerId = master06;
shapes = (
{
closed = 1;
nodes = (
(463,0,l),
(463,76,l),
(172,76,l),
(172,290,l),
(434,290,l),
(434,365,l),
(172,365,l),
(172,554,l),
(460,554,l),
(460,630,l),
(80,630,l),
(80,0,l)
);
}
);
width = 501;
},
{
layerId = master07;
shapes = (
{
closed = 1;
nodes = (
(476,0,l),
(476,96,l),
(195,96,l),
(195,280,l),
(447,280,l),
(447,375,l),
(195,375,l),
(195,534,l),
(473,534,l),
(473,630,l),
(73,630,l),
(73,0,l)
);
}
);
vertWidth = 1130;
width = 512;
}
);
unicode = 69;
},
{
glyphname = F;
layers = (
{
layerId = master01;
shapes = (
{
closed = 1;
nodes = (
(69,0,l),
(206,0,l),
(206,252,l),
(447,252,l),
(447,357,l),
(206,357,l),
(206,524,l),
(469,524,l),
(469,630,l),
(69,630,l)
);
}
);
vertWidth = 1130;
width = 497;
},
{
layerId = master02;
shapes = (
{
closed = 1;
nodes = (
(66,0,l),
(218,0,l),
(218,245,l),
(454,245,l),
(454,360,l),
(218,360,l),
(218,514,l),
(476,514,l),
(476,630,l),
(66,630,l)
);
}
);
vertWidth = 1130;
width = 501;
},
{
layerId = master03;
shapes = (
{
closed = 1;
nodes = (
(80,0,l),
(132,0,l),
(132,295,l),
(408,295,l),
(408,336,l),
(132,336,l),
(132,588,l),
(430,588,l),
(430,630,l),
(80,630,l)
);
}
);
vertWidth = 814;
width = 465;
},
{
layerId = master04;
shapes = (
{
closed = 1;
nodes = (
(80,0,l),
(152,0,l),
(152,285,l),
(418,285,l),
(418,343,l),
(152,343,l),
(152,571,l),
(440,571,l),
(440,630,l),
(80,630,l)
);
}
);
vertWidth = 1130;
width = 475;
},
{
layerId = master05;
shapes = (
{
closed = 1;
nodes = (
(76,0,l),
(183,0,l),
(183,267,l),
(434,267,l),
(434,352,l),
(183,352,l),
(183,544,l),
(456,544,l),
(456,630,l),
(76,630,l)
);
}
);
vertWidth = 1130;
width = 489;
},
{
layerId = master06;
shapes = (
{
closed = 1;
nodes = (
(80,0,l),
(172,0,l),
(172,275,l),
(428,275,l),
(428,350,l),
(172,350,l),
(172,554,l),
(450,554,l),
(450,630,l),
(80,630,l)
);
}
);
width = 485;
},
{
layerId = master07;
shapes = (
{
closed = 1;
nodes = (
(73,0,l),
(195,0,l),
(195,260,l),
(441,260,l),
(441,355,l),
(195,355,l),
(195,534,l),
(463,534,l),
(463,630,l),
(73,630,l)
);
}
);
vertWidth = 1130;
width = 493;
}
);
unicode = 70;
},
{
glyphname = G;
layers = (
{
layerId = master01;
shapes = (
{
closed = 1;
nodes = (
(183,641,o),
(40,526,o),
(40,314,cs),
(40,104,o),
(185,-11,o),
(371,-11,cs),
(460,-11,o),
(529,6,o),
(581,28,c),
(581,347,l),
(346,347,l),
(346,245,l),
(450,245,l),
(450,98,l),
(432,91,o),
(406,88,o),
(372,88,cs),
(253,88,o),
(185,169,o),
(185,314,cs),
(185,476,o),
(276,544,o),
(385,544,cs),
(433,544,o),
(484,534,o),
(530,511,c),
(559,604,l),
(510,627,o),
(449,641,o),
(371,641,cs)
);
}
);
vertWidth = 1130;
width = 631;
},
{
layerId = master02;
shapes = (
{
closed = 1;
nodes = (
(186,642,o),
(38,526,o),
(38,314,cs),
(38,104,o),
(186,-11,o),
(377,-11,cs),
(465,-11,o),
(536,6,o),
(588,28,c),
(588,352,l),
(343,352,l),
(343,240,l),
(442,240,l),
(442,103,l),
(430,98,o),
(406,95,o),
(378,95,cs),
(263,95,o),
(198,174,o),
(198,314,cs),
(198,468,o),
(285,537,o),
(391,537,cs),
(437,537,o),
(490,527,o),
(535,505,c),
(566,605,l),
(518,627,o),
(456,642,o),
(377,642,cs)
);
}
);
vertWidth = 1130;
width = 636;
},
{
layerId = master03;
shapes = (
{
closed = 1;
nodes = (
(175,638,o),
(45,526,o),
(45,314,cs),
(45,104,o),
(186,-8,o),
(354,-8,cs),
(430,-8,o),
(478,4,o),
(522,23,c),
(522,317,l),
(335,317,l),
(335,276,l),
(470,276,l),
(470,52,l),
(453,43,o),
(411,34,o),
(359,34,cs),
(212,34,o),
(97,136,o),
(97,314,cs),
(97,521,o),
(222,596,o),
(359,596,cs),
(409,596,o),
(458,583,o),
(504,560,c),
(517,602,l),
(469,628,o),
(417,638,o),
(348,638,cs)
);
}
);
vertWidth = 814;
width = 580;
},
{
layerId = master04;
shapes = (
{
closed = 1;
nodes = (
(175,638,o),
(45,526,o),
(45,314,cs),
(45,104,o),
(184,-9,o),
(354,-9,cs),
(437,-9,o),
(492,5,o),
(541,25,c),
(541,324,l),
(345,324,l),
(345,268,l),
(472,268,l),
(472,68,l),
(446,57,o),
(408,50,o),
(357,50,cs),
(217,50,o),
(121,145,o),
(121,314,cs),
(121,510,o),
(235,580,o),
(362,580,cs),
(414,580,o),
(462,568,o),
(509,545,c),
(527,602,l),
(477,628,o),
(422,638,o),
(351,638,cs)
);
}
);
vertWidth = 1130;
width = 599;
},
{
layerId = master05;
shapes = (
{
closed = 1;
nodes = (
(178,640,o),
(43,526,o),
(43,314,cs),
(43,104,o),
(183,-10,o),
(360,-10,cs),
(449,-10,o),
(514,7,o),
(567,28,c),
(567,337,l),
(352,337,l),
(352,255,l),
(466,255,l),
(466,89,l),
(437,78,o),
(406,74,o),
(361,74,cs),
(232,74,o),
(158,159,o),
(158,314,cs),
(158,492,o),
(258,557,o),
(372,557,cs),
(424,557,o),
(472,547,o),
(520,524,c),
(544,603,l),
(494,628,o),
(435,640,o),
(360,640,cs)
);
}
);
vertWidth = 1130;
width = 622;
},
{
layerId = master06;
shapes = (
{
closed = 1;
nodes = (
(176,639,o),
(45,526,o),
(45,314,cs),
(45,104,o),
(182,-9,o),
(355,-9,cs),
(444,-9,o),
(507,7,o),
(560,28,c),
(560,332,l),
(355,332,l),
(355,260,l),
(474,260,l),
(474,85,l),
(440,72,o),
(406,67,o),
(355,67,cs),
(222,67,o),
(145,154,o),
(145,314,cs),
(145,500,o),
(249,564,o),
(366,564,cs),
(420,564,o),
(466,554,o),
(515,531,c),
(537,603,l),
(486,629,o),
(428,639,o),
(355,639,cs)
);
}
);
width = 618;
},
{
layerId = master07;
shapes = (
{
closed = 1;
nodes = (
(181,640,o),
(41,526,o),
(41,314,cs),
(41,104,o),
(184,-10,o),
(366,-10,cs),
(454,-10,o),
(521,6,o),
(574,28,c),
(574,342,l),
(349,342,l),
(349,250,l),
(458,250,l),
(458,94,l),
(435,85,o),
(406,81,o),
(366,81,cs),
(242,81,o),
(171,164,o),
(171,314,cs),
(171,484,o),
(267,550,o),
(378,550,cs),
(428,550,o),
(478,540,o),
(525,518,c),
(551,604,l),
(502,628,o),
(442,640,o),
(366,640,cs)
);
}
);
vertWidth = 1130;
width = 627;
}
);
unicode = 71;
},
{
glyphname = H;
layers = (
{
layerId = master01;
shapes = (
{
closed = 1;
nodes = (
(206,272,l),
(445,272,l),
(445,0,l),
(582,0,l),
(582,630,l),
(445,630,l),
(445,380,l),
(206,380,l),
(206,630,l),
(69,630,l),
(69,0,l),
(206,0,l)
);
}
);
vertWidth = 1130;
width = 652;
},
{
layerId = master02;
shapes = (
{
closed = 1;
nodes = (
(218,267,l),
(437,267,l),
(437,0,l),
(589,0,l),
(589,630,l),
(437,630,l),
(437,385,l),
(218,385,l),
(218,630,l),
(66,630,l),
(66,0,l),
(218,0,l)
);
}
);
vertWidth = 1130;
width = 655;
},
{
layerId = master03;
shapes = (
{
closed = 1;
nodes = (
(132,305,l),
(471,305,l),
(471,0,l),
(523,0,l),
(523,630,l),
(471,630,l),
(471,347,l),
(132,347,l),
(132,630,l),
(80,630,l),
(80,0,l),
(132,0,l)
);
}
);
vertWidth = 814;
width = 603;
},
{
layerId = master04;
shapes = (
{
closed = 1;
nodes = (
(152,296,l),
(471,296,l),
(471,0,l),
(543,0,l),
(543,630,l),
(471,630,l),
(471,356,l),
(152,356,l),
(152,630,l),
(80,630,l),
(80,0,l),
(152,0,l)
);
}
);
vertWidth = 1130;
width = 622;
},
{
layerId = master05;
shapes = (
{
closed = 1;
nodes = (
(183,282,l),
(462,282,l),
(462,0,l),
(569,0,l),
(569,630,l),
(462,630,l),
(462,370,l),
(183,370,l),
(183,630,l),
(76,630,l),
(76,0,l),
(183,0,l)
);
}
);
vertWidth = 1130;
width = 645;
},
{
layerId = master06;
shapes = (
{
closed = 1;
nodes = (
(172,287,l),
(471,287,l),
(471,0,l),
(563,0,l),
(563,630,l),
(471,630,l),
(471,365,l),
(172,365,l),
(172,630,l),
(80,630,l),
(80,0,l),
(172,0,l)
);
}
);
width = 642;
},
{
layerId = master07;
shapes = (
{
closed = 1;
nodes = (
(195,277,l),
(454,277,l),
(454,0,l),
(576,0,l),
(576,630,l),
(454,630,l),
(454,375,l),
(195,375,l),
(195,630,l),
(73,630,l),
(73,0,l),
(195,0,l)
);
}
);
vertWidth = 1130;
width = 648;
}
);
unicode = 72;
},
{
glyphname = I;
layers = (
{
layerId = master01;
shapes = (
{
closed = 1;
nodes = (
(69,0,l),
(206,0,l),
(206,630,l),
(69,630,l)
);
}
);
vertWidth = 1130;
width = 276;
},
{
layerId = master02;
shapes = (
{
closed = 1;
nodes = (
(66,0,l),
(218,0,l),
(218,630,l),
(66,630,l)
);
}
);
vertWidth = 1130;
width = 284;
},
{
layerId = master03;
shapes = (
{
closed = 1;
nodes = (
(80,0,l),
(132,0,l),
(132,630,l),
(80,630,l)
);
}
);
vertWidth = 814;
width = 212;
},
{
layerId = master04;
shapes = (
{
closed = 1;
nodes = (
(80,0,l),
(152,0,l),
(152,630,l),
(80,630,l)
);
}
);
vertWidth = 1130;
width = 231;
},
{
layerId = master05;
shapes = (
{
closed = 1;
nodes = (
(76,0,l),
(183,0,l),
(183,630,l),
(76,630,l)
);
}
);
vertWidth = 1130;
width = 259;
},
{
layerId = master06;
shapes = (
{
closed = 1;
nodes = (
(80,0,l),
(172,0,l),
(172,630,l),
(80,630,l)
);
}
);
width = 251;
},
{
layerId = master07;
shapes = (
{
closed = 1;
nodes = (
(73,0,l),
(195,0,l),
(195,630,l),
(73,630,l)
);
}
);
vertWidth = 1130;
width = 267;
}
);
unicode = 73;
},
{
glyphname = J;
layers = (
{
layerId = master01;
shapes = (
{
closed = 1;
nodes = (
(86,63,ls),
(86,21,o),
(81,-16,o),
(57,-37,c),
(41,-53,o),
(16,-65,o),
(-19,-65,c),
(-19,-170,l),
(55,-170,o),
(126,-152,o),
(170,-100,cs),
(213,-50,o),
(223,10,o),
(223,115,cs),
(223,630,l),
(86,630,l)
);
}
);
vertWidth = 1130;
width = 291;
},
{
layerId = master02;
shapes = (
{
closed = 1;
nodes = (
(80,62,ls),
(80,20,o),
(75,-15,o),
(51,-35,cs),
(36,-48,o),
(13,-60,o),
(-20,-60,c),
(-20,-175,l),
(57,-175,o),
(128,-157,o),
(174,-107,cs),
(220,-55,o),
(232,6,o),
(232,115,cs),
(232,630,l),
(80,630,l)
);
}
);
vertWidth = 1130;
width = 298;
},
{
layerId = master03;
shapes = (
{
closed = 1;
nodes = (
(125,69,ls),
(125,12,o),
(116,-36,o),
(81,-66,cs),
(57,-86,o),
(26,-97,o),
(-15,-98,c),
(-15,-135,l),
(41,-134,o),
(108,-117,o),
(144,-61,cs),
(169,-22,o),
(177,21,o),
(177,104,cs),
(177,630,l),
(125,630,l)
);
}
);
vertWidth = 814;
width = 249;
},
{
layerId = master04;
shapes = (
{
closed = 1;
nodes = (
(115,68,ls),
(115,18,o),
(108,-27,o),
(78,-55,cs),
(56,-76,o),
(26,-88,o),
(-15,-89,c),
(-15,-145,l),
(45,-144,o),
(113,-126,o),
(151,-70,cs),
(180,-28,o),
(187,21,o),
(187,109,cs),
(187,630,l),
(115,630,l)
);
}
);
vertWidth = 1130;
width = 259;
},
{
layerId = master05;
shapes = (
{
closed = 1;
nodes = (
(99,66,ls),
(99,24,o),
(94,-17,o),
(70,-41,cs),
(50,-62,o),
(23,-74,o),
(-16,-75,c),
(-16,-160,l),
(51,-159,o),
(121,-141,o),
(163,-86,cs),
(199,-39,o),
(206,18,o),
(206,115,cs),
(206,630,l),
(99,630,l)
);
}
);
vertWidth = 1130;
width = 276;
},
{
layerId = master06;
shapes = (
{
closed = 1;
nodes = (
(105,67,ls),
(105,25,o),
(100,-17,o),
(76,-43,cs),
(55,-66,o),
(26,-79,o),
(-15,-80,c),
(-15,-155,l),
(49,-154,o),
(119,-135,o),
(159,-79,cs),
(192,-33,o),
(197,22,o),
(197,115,cs),
(197,630,l),
(105,630,l)
);
}
);
width = 269;
},
{
layerId = master07;
shapes = (
{
closed = 1;
nodes = (
(92,64,ls),
(92,22,o),
(87,-16,o),
(63,-39,cs),
(45,-57,o),
(19,-70,o),
(-18,-70,c),
(-18,-165,l),
(53,-165,o),
(123,-146,o),
(166,-93,cs),
(206,-44,o),
(214,14,o),
(214,115,cs),
(214,630,l),
(92,630,l)
);
}
);
vertWidth = 1130;
width = 283;
}
);
unicode = 74;
},
{
glyphname = K;
layers = (
{
layerId = master01;
shapes = (
{
closed = 1;
nodes = (
(206,214,l),
(258,269,l),
(444,0,l),
(613,0,l),
(358,355,l),
(593,630,l),
(423,630,l),
(206,365,l),
(206,630,l),
(69,630,l),
(69,0,l),
(206,0,l)
);
}
);
vertWidth = 1130;
width = 612;
},
{
layerId = master02;
shapes = (
{
closed = 1;
nodes = (
(218,208,l),
(269,263,l),
(441,0,l),
(627,0,l),
(380,357,l),
(607,630,l),
(418,630,l),
(218,372,l),
(218,630,l),
(66,630,l),
(66,0,l),
(218,0,l)
);
}
);
vertWidth = 1130;
width = 624;
},
{
layerId = master03;
shapes = (
{
closed = 1;
nodes = (
(132,239,l),
(205,318,l),
(455,0,l),
(522,0,l),
(240,354,l),
(497,630,l),
(431,630,l),
(132,305,l),
(132,630,l),
(80,630,l),
(80,0,l),
(132,0,l)
);
}
);
vertWidth = 814;
width = 512;
},
{
layerId = master04;
shapes = (
{
closed = 1;
nodes = (
(152,235,l),
(215,303,l),
(455,0,l),
(546,0,l),
(265,352,l),
(524,630,l),
(434,630,l),
(152,325,l),
(152,630,l),
(80,630,l),
(80,0,l),
(152,0,l)
);
}
);
vertWidth = 1130;
width = 544;
},
{
layerId = master05;
shapes = (
{
closed = 1;
nodes = (
(183,225,l),
(236,282,l),
(451,0,l),
(585,0,l),
(313,352,l),
(565,630,l),
(432,630,l),
(183,352,l),
(183,630,l),
(76,630,l),
(76,0,l),
(183,0,l)
);
}
);
vertWidth = 1130;
width = 588;
},
{
layerId = master06;
shapes = (
{
closed = 1;
nodes = (
(172,231,l),
(225,288,l),
(455,0,l),
(571,0,l),
(291,351,l),
(551,630,l),
(437,630,l),
(172,345,l),
(172,630,l),
(80,630,l),
(80,0,l),
(172,0,l)
);
}
);
width = 576;
},
{
layerId = master07;
shapes = (
{
closed = 1;
nodes = (
(195,219,l),
(247,275,l),
(448,0,l),
(599,0,l),
(335,354,l),
(579,630,l),
(427,630,l),
(195,358,l),
(195,630,l),
(73,630,l),
(73,0,l),
(195,0,l)
);
}
);
vertWidth = 1130;
width = 600;
}
);
unicode = 75;
},
{
glyphname = L;
layers = (
{
layerId = master01;
shapes = (
{
closed = 1;
nodes = (
(460,0,l),
(460,108,l),
(206,108,l),
(206,630,l),
(69,630,l),
(69,0,l)
);
}
);
vertWidth = 1130;
width = 468;
},
{
layerId = master02;
shapes = (
{
closed = 1;
nodes = (
(467,0,l),
(467,118,l),
(218,118,l),
(218,630,l),
(66,630,l),
(66,0,l)
);
}
);
vertWidth = 1130;
width = 472;
},
{
layerId = master03;
shapes = (
{
closed = 1;
nodes = (
(421,0,l),
(421,42,l),
(132,42,l),
(132,630,l),
(80,630,l),
(80,0,l)
);
}
);
vertWidth = 814;
width = 436;
},
{
layerId = master04;
shapes = (
{
closed = 1;
nodes = (
(431,0,l),
(431,60,l),
(152,60,l),
(152,630,l),
(80,630,l),
(80,0,l)
);
}
);
vertWidth = 1130;
width = 446;
},
{
layerId = master05;
shapes = (
{
closed = 1;
nodes = (
(447,0,l),
(447,88,l),
(183,88,l),
(183,630,l),
(76,630,l),
(76,0,l)
);
}
);
vertWidth = 1130;
width = 460;
},
{
layerId = master06;
shapes = (
{
closed = 1;
nodes = (
(441,0,l),
(441,78,l),
(172,78,l),
(172,630,l),
(80,630,l),
(80,0,l)
);
}
);
width = 456;
},
{
layerId = master07;
shapes = (
{
closed = 1;
nodes = (
(454,0,l),
(454,98,l),
(195,98,l),
(195,630,l),
(73,630,l),
(73,0,l)
);
}
);
vertWidth = 1130;
width = 464;
}
);
unicode = 76;
},
{
glyphname = M;
lastChange = "2022-06-08 14:55:20 +0000";
layers = (
{
layerId = master01;
shapes = (
{
closed = 1;
nodes = (
(191,0,l),
(213,500,l),
(216,500,l),
(363,0,l),
(469,0,l),
(616,500,l),
(619,500,l),
(640,0,l),
(769,0,l),
(722,630,l),
(549,630,l),
(420,176,l),
(416,176,l),
(282,630,l),
(109,630,l),
(64,0,l)
);
}
);
vertWidth = 1130;
width = 833;
},
{
layerId = master02;
shapes = (
{
closed = 1;
nodes = (
(204,0,l),
(221,490,l),
(224,490,l),
(363,0,l),
(477,0,l),
(616,490,l),
(619,490,l),
(635,0,l),
(777,0,l),
(732,630,l),
(542,630,l),
(424,196,l),
(419,196,l),
(297,630,l),
(107,630,l),
(64,0,l)
);
}
);
vertWidth = 1130;
width = 841;
},
{
layerId = master03;
shapes = (
{
closed = 1;
nodes = (
(114,0,l),
(168,582,l),
(170,582,l),
(366,0,l),
(413,0,l),
(609,582,l),
(611,582,l),
(665,0,l),
(717,0,l),
(652,630,l),
(582,630,l),
(392,62,l),
(390,62,l),
(197,630,l),
(129,630,l),
(64,0,l)
);
}
);
vertWidth = 814;
width = 781;
},
{
layerId = master04;
shapes = (
{
closed = 1;
nodes = (
(134,0,l),
(180,556,l),
(182,556,l),
(365,0,l),
(430,0,l),
(613,556,l),
(615,556,l),
(660,0,l),
(732,0,l),
(672,630,l),
(577,630,l),
(400,89,l),
(398,89,l),
(217,630,l),
(123,630,l),
(64,0,l)
);
}
);
vertWidth = 1130;
width = 796;
},
{
layerId = master05;
shapes = (
{
closed = 1;
nodes = (
(166,0,l),
(198,520,l),
(201,520,l),
(363,0,l),
(454,0,l),
(617,520,l),
(619,520,l),
(650,0,l),
(754,0,l),
(702,630,l),
(564,630,l),
(412,135,l),
(409,135,l),
(252,630,l),
(114,630,l),
(64,0,l)
);
}
);
vertWidth = 1130;
width = 818;
},
{
layerId = master06;
shapes = (
{
closed = 1;
nodes = (
(154,0,l),
(191,530,l),
(193,530,l),
(363,0,l),
(447,0,l),
(617,530,l),
(619,530,l),
(655,0,l),
(747,0,l),
(692,630,l),
(572,630,l),
(407,116,l),
(405,116,l),
(237,630,l),
(117,630,l),
(64,0,l)
);
}
);
width = 811;
},
{
layerId = master07;
shapes = (
{
closed = 1;
nodes = (
(179,0,l),
(206,510,l),
(208,510,l),
(363,0,l),
(462,0,l),
(616,510,l),
(619,510,l),
(645,0,l),
(762,0,l),
(712,630,l),
(557,630,l),
(416,155,l),
(412,155,l),
(267,630,l),
(112,630,l),
(64,0,l)
);
}
);
vertWidth = 1130;
width = 826;
}
);
unicode = 77;
},
{
glyphname = N;
layers = (
{
layerId = master01;
shapes = (
{
closed = 1;
nodes = (
(197,0,l),
(197,191,ls),
(197,279,o),
(197,361,o),
(191,453,c),
(193,453,l),
(205,424,o),
(239,360,o),
(274,306,cs),
(476,0,l),
(601,0,l),
(601,630,l),
(474,630,l),
(474,441,ls),
(474,354,o),
(472,267,o),
(480,181,c),
(478,181,l),
(467,205,o),
(440,253,o),
(411,298,cs),
(194,630,l),
(69,630,l),
(69,0,l)
);
}
);
vertWidth = 1130;
width = 670;
},
{
layerId = master02;
shapes = (
{
closed = 1;
nodes = (
(206,0,l),
(206,200,ls),
(206,280,o),
(206,356,o),
(199,439,c),
(201,439,l),
(229,358,o),
(270,285,o),
(318,215,cs),
(464,0,l),
(604,0,l),
(604,630,l),
(464,630,l),
(464,436,ls),
(464,356,o),
(464,274,o),
(471,195,c),
(469,195,l),
(444,258,o),
(393,344,o),
(344,419,cs),
(206,630,l),
(66,630,l),
(66,0,l)
);
}
);
vertWidth = 1130;
width = 670;
},
{
layerId = master03;
shapes = (
{
closed = 1;
nodes = (
(130,0,l),
(130,376,ls),
(130,438,o),
(129,500,o),
(127,562,c),
(129,562,l),
(158,507,o),
(191,449,o),
(227,396,cs),
(493,0,l),
(543,0,l),
(543,630,l),
(493,630,l),
(493,236,ls),
(493,185,o),
(493,133,o),
(495,82,c),
(493,82,l),
(465,127,o),
(435,171,o),
(405,216,cs),
(130,630,l),
(80,630,l),
(80,0,l)
);
}
);
vertWidth = 814;
width = 623;
},
{
layerId = master04;
shapes = (
{
closed = 1;
nodes = (
(150,0,l),
(150,351,ls),
(150,410,o),
(149,469,o),
(146,528,c),
(148,528,l),
(172,483,o),
(200,435,o),
(228,395,cs),
(503,0,l),
(568,0,l),
(568,630,l),
(498,630,l),
(498,258,ls),
(498,209,o),
(498,160,o),
(501,111,c),
(499,111,l),
(477,148,o),
(451,186,o),
(426,223,cs),
(145,630,l),
(80,630,l),
(80,0,l)
);
}
);
vertWidth = 1130;
width = 647;
},
{
layerId = master05;
shapes = (
{
closed = 1;
nodes = (
(179,0,l),
(179,172,ls),
(179,274,o),
(180,376,o),
(174,480,c),
(176,480,l),
(193,447,o),
(219,401,o),
(244,365,cs),
(501,0,l),
(596,0,l),
(596,630,l),
(493,630,l),
(493,450,ls),
(493,351,o),
(491,252,o),
(498,154,c),
(496,154,l),
(482,182,o),
(459,219,o),
(435,253,cs),
(171,630,l),
(76,630,l),
(76,0,l)
);
}
);
vertWidth = 1130;
width = 672;
},
{
layerId = master06;
shapes = (
{
closed = 1;
nodes = (
(170,0,l),
(170,326,ls),
(170,382,o),
(169,438,o),
(166,494,c),
(168,494,l),
(186,459,o),
(209,422,o),
(229,394,cs),
(513,0,l),
(593,0,l),
(593,630,l),
(503,630,l),
(503,281,ls),
(503,234,o),
(504,188,o),
(507,141,c),
(505,141,l),
(489,170,o),
(468,202,o),
(447,231,cs),
(160,630,l),
(80,630,l),
(80,0,l)
);
}
);
width = 672;
},
{
layerId = master07;
shapes = (
{
closed = 1;
nodes = (
(188,0,l),
(188,181,ls),
(188,276,o),
(188,368,o),
(182,466,c),
(184,466,l),
(199,435,o),
(229,381,o),
(259,335,c),
(488,0,l),
(598,0,l),
(598,630,l),
(483,630,l),
(483,445,ls),
(483,353,o),
(481,260,o),
(489,168,c),
(487,168,l),
(474,193,o),
(449,236,o),
(423,276,c),
(183,630,l),
(73,630,l),
(73,0,l)
);
}
);
vertWidth = 1130;
width = 671;
}
);
unicode = 78;
},
{
glyphname = O;
layers = (
{
layerId = master01;
shapes = (
{
closed = 1;
nodes = (
(175,641,o),
(40,517,o),
(40,314,cs),
(40,107,o),
(171,-11,o),
(350,-11,cs),
(529,-11,o),
(664,112,o),
(664,314,cs),
(664,522,o),
(533,641,o),
(354,641,cs)
);
},
{
closed = 1;
nodes = (
(185,463,o),
(258,537,o),
(350,537,cs),
(443,537,o),
(519,468,o),
(519,314,cs),
(519,165,o),
(446,93,o),
(354,93,cs),
(261,93,o),
(185,165,o),
(185,314,cs)
);
}
);
vertWidth = 1130;
width = 704;
},
{
layerId = master02;
shapes = (
{
closed = 1;
nodes = (
(175,642,o),
(38,514,o),
(38,314,cs),
(38,109,o),
(171,-11,o),
(353,-11,cs),
(535,-11,o),
(672,114,o),
(672,314,cs),
(672,519,o),
(539,642,o),
(357,642,cs)
);
},
{
closed = 1;
nodes = (
(198,456,o),
(267,528,o),
(353,528,cs),
(440,528,o),
(512,461,o),
(512,314,cs),
(512,172,o),
(443,103,o),
(357,103,cs),
(270,103,o),
(198,172,o),
(198,314,cs)
);
}
);
vertWidth = 1130;
width = 710;
},
{
layerId = master03;
shapes = (
{
closed = 1;
nodes = (
(172,638,o),
(46,525,o),
(46,315,cs),
(46,100,o),
(169,-8,o),
(321,-8,cs),
(474,-8,o),
(600,105,o),
(600,315,cs),
(600,530,o),
(477,638,o),
(325,638,cs)
);
},
{
closed = 1;
nodes = (
(100,506,o),
(203,596,o),
(321,596,cs),
(440,596,o),
(546,511,o),
(546,315,cs),
(546,124,o),
(443,34,o),
(325,34,cs),
(206,34,o),
(100,124,o),
(100,315,cs)
);
}
);
vertWidth = 814;
width = 646;
},
{
layerId = master04;
shapes = (
{
closed = 1;
nodes = (
(173,638,o),
(46,525,o),
(46,315,cs),
(46,100,o),
(170,-9,o),
(331,-9,cs),
(492,-9,o),
(620,105,o),
(620,315,cs),
(620,530,o),
(496,638,o),
(335,638,cs)
);
},
{
closed = 1;
nodes = (
(123,495,o),
(217,580,o),
(331,580,cs),
(445,580,o),
(543,500,o),
(543,315,cs),
(543,134,o),
(449,49,o),
(335,49,cs),
(220,49,o),
(123,134,o),
(123,315,cs)
);
}
);
vertWidth = 1130;
width = 666;
},
{
layerId = master05;
shapes = (
{
closed = 1;
nodes = (
(175,640,o),
(44,522,o),
(44,315,cs),
(44,102,o),
(171,-10,o),
(344,-10,cs),
(517,-10,o),
(648,107,o),
(648,315,cs),
(648,527,o),
(521,640,o),
(348,640,cs)
);
},
{
closed = 1;
nodes = (
(159,478,o),
(240,556,o),
(344,556,cs),
(448,556,o),
(533,483,o),
(533,315,cs),
(533,152,o),
(452,74,o),
(348,74,cs),
(244,74,o),
(159,152,o),
(159,315,cs)
);
}
);
vertWidth = 1130;
width = 692;
},
{
layerId = master06;
shapes = (
{
closed = 1;
nodes = (
(175,639,o),
(46,525,o),
(46,315,cs),
(46,100,o),
(171,-9,o),
(341,-9,cs),
(511,-9,o),
(640,105,o),
(640,315,cs),
(640,530,o),
(515,639,o),
(345,639,cs)
);
},
{
closed = 1;
nodes = (
(146,485,o),
(231,565,o),
(341,565,cs),
(451,565,o),
(540,490,o),
(540,315,cs),
(540,145,o),
(455,65,o),
(345,65,cs),
(235,65,o),
(146,145,o),
(146,315,cs)
);
}
);
width = 686;
},
{
layerId = master07;
shapes = (
{
closed = 1;
nodes = (
(175,640,o),
(42,519,o),
(42,314,cs),
(42,104,o),
(171,-10,o),
(347,-10,cs),
(523,-10,o),
(656,109,o),
(656,314,cs),
(656,524,o),
(527,640,o),
(351,640,cs)
);
},
{
closed = 1;
nodes = (
(172,470,o),
(249,546,o),
(347,546,cs),
(445,546,o),
(526,475,o),
(526,314,cs),
(526,158,o),
(449,84,o),
(351,84,cs),
(252,84,o),
(172,158,o),
(172,314,cs)
);
}
);
vertWidth = 1130;
width = 698;
}
);
unicode = 79;
},
{
glyphname = P;
layers = (
{
layerId = master01;
shapes = (
{
closed = 1;
nodes = (
(206,0,l),
(206,229,l),
(278,229,ls),
(417,229,o),
(531,294,o),
(531,437,cs),
(531,559,o),
(436,630,o),
(290,630,cs),
(69,630,l),
(69,0,l)
);
},
{
closed = 1;
nodes = (
(273,526,ls),
(340,526,o),
(390,496,o),
(390,431,cs),
(390,357,o),
(332,334,o),
(262,334,cs),
(206,334,l),
(206,526,l)
);
}
);
vertWidth = 1130;
width = 560;
},
{
layerId = master02;
shapes = (
{
closed = 1;
nodes = (
(218,0,l),
(218,224,l),
(282,224,ls),
(423,224,o),
(543,290,o),
(543,437,cs),
(543,559,o),
(446,630,o),
(294,630,cs),
(66,630,l),
(66,0,l)
);
},
{
closed = 1;
nodes = (
(279,516,ls),
(344,516,o),
(387,486,o),
(387,429,cs),
(387,363,o),
(333,339,o),
(273,339,cs),
(218,339,l),
(218,516,l)
);
}
);
vertWidth = 1130;
width = 573;
},
{
layerId = master03;
shapes = (
{
closed = 1;
nodes = (
(132,0,l),
(132,267,l),
(245,267,ls),
(364,267,o),
(457,330,o),
(457,450,cs),
(457,572,o),
(371,630,o),
(253,630,cs),
(80,630,l),
(80,0,l)
);
},
{
closed = 1;
nodes = (
(236,588,ls),
(318,588,o),
(401,558,o),
(401,449,cs),
(401,344,o),
(329,309,o),
(220,309,cs),
(132,309,l),
(132,588,l)
);
}
);
vertWidth = 814;
width = 502;
},
{
layerId = master04;
shapes = (
{
closed = 1;
nodes = (
(152,0,l),
(152,255,l),
(255,255,ls),
(382,255,o),
(477,318,o),
(477,444,cs),
(477,566,o),
(389,630,o),
(265,630,cs),
(80,630,l),
(80,0,l)
);
},
{
closed = 1;
nodes = (
(246,572,ls),
(323,572,o),
(401,542,o),
(401,443,cs),
(401,342,o),
(329,314,o),
(224,314,cs),
(152,314,l),
(152,572,l)
);
}
);
vertWidth = 1130;
width = 512;
},
{
layerId = master05;
shapes = (
{
closed = 1;
nodes = (
(183,0,l),
(183,239,l),
(270,239,ls),
(406,239,o),
(508,302,o),
(508,438,cs),
(508,560,o),
(417,630,o),
(282,630,cs),
(76,630,l),
(76,0,l)
);
},
{
closed = 1;
nodes = (
(262,546,ls),
(333,546,o),
(397,516,o),
(397,436,cs),
(397,346,o),
(330,324,o),
(240,324,cs),
(183,324,l),
(183,546,l)
);
}
);
vertWidth = 1130;
width = 535;
},
{
layerId = master06;
shapes = (
{
closed = 1;
nodes = (
(172,0,l),
(172,244,l),
(266,244,ls),
(401,244,o),
(497,306,o),
(497,439,cs),
(497,561,o),
(408,630,o),
(278,630,cs),
(80,630,l),
(80,0,l)
);
},
{
closed = 1;
nodes = (
(257,556,ls),
(329,556,o),
(401,526,o),
(401,438,cs),
(401,341,o),
(329,319,o),
(229,319,cs),
(172,319,l),
(172,556,l)
);
}
);
width = 523;
},
{
layerId = master07;
shapes = (
{
closed = 1;
nodes = (
(195,0,l),
(195,234,l),
(274,234,ls),
(412,234,o),
(520,298,o),
(520,438,cs),
(520,560,o),
(427,630,o),
(286,630,cs),
(73,630,l),
(73,0,l)
);
},
{
closed = 1;
nodes = (
(268,536,ls),
(336,536,o),
(394,506,o),
(394,433,cs),
(394,352,o),
(331,329,o),
(251,329,cs),
(195,329,l),
(195,536,l)
);
}
);
vertWidth = 1130;
width = 548;
}
);
unicode = 80;
},
{
glyphname = Q;
layers = (
{
layerId = master01;
shapes = (
{
closed = 1;
nodes = (
(174,641,o),
(40,517,o),
(40,314,cs),
(40,138,o),
(135,23,o),
(284,-3,c),
(122,-96,l),
(168,-182,l),
(201,-162,o),
(231,-154,o),
(271,-154,cs),
(358,-154,o),
(439,-215,o),
(552,-215,cs),
(615,-215,o),
(663,-191,o),
(685,-173,c),
(637,-81,l),
(617,-97,o),
(582,-109,o),
(549,-109,cs),
(470,-109,o),
(420,-71,o),
(362,-67,c),
(479,-2,ls),
(595,62,o),
(664,168,o),
(664,314,cs),
(664,522,o),
(532,641,o),
(353,641,cs)
);
},
{
closed = 1;
nodes = (
(185,464,o),
(259,537,o),
(351,537,cs),
(443,537,o),
(519,469,o),
(519,315,cs),
(519,169,o),
(445,90,o),
(350,90,cs),
(258,90,o),
(185,166,o),
(185,315,cs)
);
}
);
vertWidth = 1130;
width = 704;
},
{
layerId = master02;
shapes = (
{
closed = 1;
nodes = (
(174,642,o),
(38,514,o),
(38,314,cs),
(38,142,o),
(132,25,o),
(284,-2,c),
(119,-97,l),
(168,-189,l),
(201,-169,o),
(229,-161,o),
(271,-161,cs),
(358,-161,o),
(436,-222,o),
(556,-222,cs),
(627,-222,o),
(675,-195,o),
(691,-179,c),
(639,-78,l),
(622,-94,o),
(586,-106,o),
(550,-106,cs),
(475,-106,o),
(427,-72,o),
(375,-67,c),
(486,-5,ls),
(598,57,o),
(672,166,o),
(672,314,cs),
(672,519,o),
(538,642,o),
(356,642,cs)
);
},
{
closed = 1;
nodes = (
(198,457,o),
(268,528,o),
(354,528,cs),
(441,528,o),
(512,462,o),
(512,315,cs),
(512,176,o),
(445,100,o),
(355,100,cs),
(269,100,o),
(198,173,o),
(198,315,cs)
);
}
);
vertWidth = 1130;
width = 711;
},
{
layerId = master03;
shapes = (
{
closed = 1;
nodes = (
(168,638,o),
(49,525,o),
(49,315,cs),
(49,125,o),
(149,-3,o),
(317,-7,c),
(130,-114,l),
(151,-150,l),
(187,-128,o),
(225,-118,o),
(266,-118,cs),
(350,-118,o),
(417,-166,o),
(512,-166,cs),
(551,-166,o),
(590,-156,o),
(621,-135,c),
(602,-100,l),
(581,-115,o),
(544,-126,o),
(515,-126,cs),
(422,-126,o),
(357,-78,o),
(277,-78,c),
(429,8,ls),
(556,80,o),
(597,189,o),
(597,315,cs),
(597,530,o),
(484,638,o),
(320,638,cs)
);
},
{
closed = 1;
nodes = (
(103,506,o),
(203,596,o),
(319,596,cs),
(447,596,o),
(543,511,o),
(543,315,cs),
(543,136,o),
(449,34,o),
(323,34,cs),
(205,34,o),
(103,124,o),
(103,315,cs)
);
}
);
vertWidth = 814;
width = 641;
},
{
layerId = master04;
shapes = (
{
closed = 1;
nodes = (
(171,638,o),
(47,525,o),
(47,315,cs),
(47,125,o),
(146,7,o),
(300,-6,c),
(130,-104,l),
(159,-156,l),
(195,-135,o),
(230,-125,o),
(268,-125,cs),
(354,-125,o),
(432,-179,o),
(527,-179,cs),
(566,-179,o),
(609,-168,o),
(643,-146,c),
(616,-95,l),
(592,-111,o),
(557,-121,o),
(530,-121,cs),
(438,-121,o),
(379,-74,o),
(299,-73,c),
(443,8,ls),
(570,79,o),
(618,182,o),
(618,315,cs),
(618,530,o),
(499,638,o),
(332,638,cs)
);
},
{
closed = 1;
nodes = (
(124,495,o),
(217,580,o),
(330,580,cs),
(449,580,o),
(541,500,o),
(541,315,cs),
(541,143,o),
(447,47,o),
(329,47,cs),
(215,47,o),
(124,134,o),
(124,315,cs)
);
}
);
vertWidth = 1130;
width = 661;
},
{
layerId = master05;
shapes = (
{
closed = 1;
nodes = (
(175,640,o),
(44,522,o),
(44,315,cs),
(44,129,o),
(141,20,o),
(284,-4,c),
(127,-94,l),
(168,-169,l),
(202,-149,o),
(234,-139,o),
(271,-139,cs),
(358,-139,o),
(445,-200,o),
(545,-200,cs),
(592,-200,o),
(640,-184,o),
(672,-162,c),
(632,-86,l),
(608,-104,o),
(575,-114,o),
(546,-114,cs),
(459,-114,o),
(407,-70,o),
(335,-68,c),
(465,5,ls),
(588,73,o),
(648,173,o),
(648,315,cs),
(648,527,o),
(521,640,o),
(348,640,cs)
);
},
{
closed = 1;
nodes = (
(159,478,o),
(240,556,o),
(344,556,cs),
(448,556,o),
(533,483,o),
(533,315,cs),
(533,156,o),
(446,70,o),
(341,70,cs),
(237,70,o),
(159,152,o),
(159,315,cs)
);
}
);
vertWidth = 1130;
width = 689;
},
{
layerId = master06;
shapes = (
{
closed = 1;
nodes = (
(175,639,o),
(46,525,o),
(46,315,cs),
(46,125,o),
(144,18,o),
(284,-4,c),
(130,-93,l),
(168,-162,l),
(203,-142,o),
(236,-131,o),
(271,-131,cs),
(358,-131,o),
(448,-192,o),
(542,-192,cs),
(581,-192,o),
(629,-180,o),
(666,-156,c),
(630,-89,l),
(604,-107,o),
(571,-116,o),
(545,-116,cs),
(454,-116,o),
(401,-69,o),
(322,-68,c),
(458,8,ls),
(585,79,o),
(640,176,o),
(640,315,cs),
(640,530,o),
(515,639,o),
(345,639,cs)
);
},
{
closed = 1;
nodes = (
(146,485,o),
(231,565,o),
(341,565,cs),
(451,565,o),
(540,490,o),
(540,315,cs),
(540,150,o),
(446,60,o),
(336,60,cs),
(226,60,o),
(146,145,o),
(146,315,cs)
);
}
);
width = 682;
},
{
layerId = master07;
shapes = (
{
closed = 1;
nodes = (
(174,640,o),
(42,519,o),
(42,314,cs),
(42,133,o),
(138,21,o),
(284,-3,c),
(124,-95,l),
(168,-176,l),
(202,-156,o),
(232,-146,o),
(271,-146,cs),
(358,-146,o),
(442,-207,o),
(549,-207,cs),
(604,-207,o),
(652,-188,o),
(678,-168,c),
(634,-84,l),
(613,-101,o),
(578,-111,o),
(547,-111,cs),
(464,-111,o),
(414,-71,o),
(348,-68,c),
(472,1,ls),
(591,68,o),
(656,171,o),
(656,314,cs),
(656,524,o),
(526,640,o),
(350,640,cs)
);
},
{
closed = 1;
nodes = (
(172,471,o),
(249,546,o),
(347,546,cs),
(446,546,o),
(526,476,o),
(526,315,cs),
(526,163,o),
(445,80,o),
(345,80,cs),
(247,80,o),
(172,159,o),
(172,315,cs)
);
}
);
vertWidth = 1130;
width = 696;
}
);
unicode = 81;
},
{
glyphname = R;
layers = (
{
layerId = master01;
shapes = (
{
closed = 1;
nodes = (
(205,0,l),
(205,232,l),
(278,232,l),
(399,0,l),
(556,0,l),
(402,256,l),
(455,279,o),
(523,333,o),
(523,434,cs),
(523,543,o),
(450,630,o),
(308,630,cs),
(69,630,l),
(69,0,l)
);
},
{
closed = 1;
nodes = (
(274,526,ls),
(344,526,o),
(382,492,o),
(382,432,cs),
(382,365,o),
(331,337,o),
(259,337,cs),
(205,337,l),
(205,526,l)
);
}
);
vertWidth = 1130;
width = 571;
},
{
layerId = master02;
shapes = (
{
closed = 1;
nodes = (
(218,0,l),
(218,227,l),
(281,227,l),
(393,0,l),
(568,0,l),
(417,254,l),
(466,275,o),
(536,329,o),
(536,432,cs),
(536,541,o),
(461,630,o),
(316,630,cs),
(66,630,l),
(66,0,l)
);
},
{
closed = 1;
nodes = (
(279,516,ls),
(344,516,o),
(380,483,o),
(380,431,cs),
(380,369,o),
(333,342,o),
(264,342,cs),
(218,342,l),
(218,516,l)
);
}
);
vertWidth = 1130;
width = 583;
},
{
layerId = master03;
shapes = (
{
closed = 1;
nodes = (
(127,0,l),
(127,267,l),
(278,267,l),
(442,0,l),
(502,0,l),
(326,277,l),
(399,297,o),
(464,358,o),
(464,455,cs),
(464,558,o),
(395,630,o),
(264,630,cs),
(80,630,l),
(80,0,l)
);
},
{
closed = 1;
nodes = (
(244,588,ls),
(353,588,o),
(410,548,o),
(410,453,cs),
(410,356,o),
(340,309,o),
(243,309,cs),
(127,309,l),
(127,588,l)
);
}
);
vertWidth = 814;
width = 520;
},
{
layerId = master04;
shapes = (
{
closed = 1;
nodes = (
(147,0,l),
(147,257,l),
(274,257,l),
(430,0,l),
(512,0,l),
(341,270,l),
(410,293,o),
(474,351,o),
(474,448,cs),
(474,554,o),
(405,630,o),
(274,630,cs),
(80,630,l),
(80,0,l)
);
},
{
closed = 1;
nodes = (
(251,572,ls),
(348,572,o),
(399,533,o),
(399,445,cs),
(399,355,o),
(332,315,o),
(243,315,cs),
(147,315,l),
(147,572,l)
);
}
);
vertWidth = 1130;
width = 528;
},
{
layerId = master05;
shapes = (
{
closed = 1;
nodes = (
(180,0,l),
(180,242,l),
(273,242,l),
(412,0,l),
(533,0,l),
(371,261,l),
(432,286,o),
(498,341,o),
(498,439,cs),
(498,548,o),
(427,630,o),
(293,630,cs),
(76,630,l),
(76,0,l)
);
},
{
closed = 1;
nodes = (
(263,546,ls),
(343,546,o),
(387,509,o),
(387,435,cs),
(387,358,o),
(327,327,o),
(248,327,cs),
(180,327,l),
(180,546,l)
);
}
);
vertWidth = 1130;
width = 548;
},
{
layerId = master06;
shapes = (
{
closed = 1;
nodes = (
(167,0,l),
(167,247,l),
(270,247,l),
(419,0,l),
(522,0,l),
(356,264,l),
(421,290,o),
(485,345,o),
(485,442,cs),
(485,551,o),
(416,630,o),
(285,630,cs),
(80,630,l),
(80,0,l)
);
},
{
closed = 1;
nodes = (
(258,556,ls),
(343,556,o),
(389,518,o),
(389,437,cs),
(389,354,o),
(325,322,o),
(243,322,cs),
(167,322,l),
(167,556,l)
);
}
);
width = 537;
},
{
layerId = master07;
shapes = (
{
closed = 1;
nodes = (
(192,0,l),
(192,237,l),
(275,237,l),
(406,0,l),
(545,0,l),
(386,259,l),
(443,282,o),
(510,337,o),
(510,437,cs),
(510,546,o),
(438,630,o),
(300,630,cs),
(73,630,l),
(73,0,l)
);
},
{
closed = 1;
nodes = (
(268,536,ls),
(343,536,o),
(384,500,o),
(384,434,cs),
(384,361,o),
(329,332,o),
(253,332,cs),
(192,332,l),
(192,536,l)
);
}
);
vertWidth = 1130;
width = 560;
}
);
unicode = 82;
},
{
glyphname = S;
layers = (
{
layerId = master01;
shapes = (
{
closed = 1;
nodes = (
(123,641,o),
(41,563,o),
(41,453,cs),
(41,352,o),
(105,305,o),
(198,272,cs),
(251,254,l),
(338,227,o),
(358,200,o),
(358,167,cs),
(358,121,o),
(321,93,o),
(251,93,cs),
(192,93,o),
(138,109,o),
(81,137,c),
(50,35,l),
(111,5,o),
(183,-11,o),
(257,-11,cs),
(416,-11,o),
(497,74,o),
(497,181,cs),
(497,270,o),
(436,332,o),
(337,365,cs),
(277,384,ls),
(210,405,o),
(180,423,o),
(180,467,cs),
(180,510,o),
(217,537,o),
(281,537,cs),
(329,537,o),
(380,522,o),
(434,496,c),
(465,598,l),
(416,623,o),
(354,641,o),
(273,641,cs)
);
}
);
vertWidth = 1130;
width = 536;
},
{
layerId = master02;
shapes = (
{
closed = 1;
nodes = (
(125,642,o),
(40,561,o),
(40,451,cs),
(40,345,o),
(108,299,o),
(202,264,cs),
(251,247,l),
(337,220,o),
(355,196,o),
(355,168,cs),
(355,128,o),
(325,103,o),
(255,103,cs),
(196,103,o),
(142,120,o),
(85,148,c),
(51,37,l),
(111,7,o),
(184,-11,o),
(262,-11,cs),
(431,-11,o),
(509,79,o),
(509,185,cs),
(509,277,o),
(441,338,o),
(347,370,cs),
(288,389,ls),
(224,410,o),
(194,424,o),
(194,466,cs),
(194,503,o),
(227,528,o),
(288,528,cs),
(336,528,o),
(390,511,o),
(442,485,c),
(476,596,l),
(430,621,o),
(366,642,o),
(279,642,cs)
);
}
);
vertWidth = 1130;
width = 547;
},
{
layerId = master03;
shapes = (
{
closed = 1;
nodes = (
(120,638,o),
(47,574,o),
(47,473,cs),
(47,390,o),
(108,340,o),
(185,315,cs),
(253,293,l),
(355,258,o),
(382,214,o),
(382,157,cs),
(382,74,o),
(317,35,o),
(228,35,cs),
(168,35,o),
(115,47,o),
(61,75,c),
(46,32,l),
(106,3,o),
(169,-8,o),
(232,-8,cs),
(357,-8,o),
(436,58,o),
(436,163,cs),
(436,237,o),
(387,298,o),
(296,329,cs),
(225,353,ls),
(143,381,o),
(101,414,o),
(101,481,cs),
(101,553,o),
(161,596,o),
(248,596,cs),
(296,596,o),
(339,587,o),
(395,561,c),
(409,602,l),
(356,627,o),
(303,638,o),
(246,638,cs)
);
}
);
vertWidth = 814;
width = 483;
},
{
layerId = master04;
shapes = (
{
closed = 1;
nodes = (
(119,638,o),
(45,571,o),
(45,466,cs),
(45,381,o),
(102,332,o),
(186,305,cs),
(251,284,ls),
(349,252,o),
(375,213,o),
(375,160,cs),
(375,86,o),
(314,50,o),
(233,50,cs),
(173,50,o),
(120,62,o),
(65,90,c),
(46,31,l),
(109,2,o),
(174,-9,o),
(237,-9,cs),
(363,-9,o),
(449,59,o),
(449,167,cs),
(449,242,o),
(403,305,o),
(301,339,cs),
(234,361,ls),
(156,386,o),
(119,417,o),
(119,475,cs),
(119,541,o),
(173,580,o),
(254,580,cs),
(302,580,o),
(345,570,o),
(402,544,c),
(420,603,l),
(366,628,o),
(310,638,o),
(251,638,cs)
);
}
);
vertWidth = 1130;
width = 494;
},
{
layerId = master05;
shapes = (
{
closed = 1;
nodes = (
(120,640,o),
(43,567,o),
(43,457,cs),
(43,366,o),
(99,318,o),
(191,288,cs),
(250,269,ls),
(341,240,o),
(365,208,o),
(365,165,cs),
(365,106,o),
(314,74,o),
(243,74,cs),
(183,74,o),
(130,88,o),
(73,116,c),
(48,32,l),
(112,2,o),
(180,-10,o),
(248,-10,cs),
(385,-10,o),
(474,65,o),
(474,174,cs),
(474,255,o),
(425,319,o),
(316,354,cs),
(254,374,ls),
(183,396,o),
(152,421,o),
(152,469,cs),
(152,523,o),
(196,556,o),
(268,556,cs),
(316,556,o),
(361,543,o),
(417,517,c),
(442,602,l),
(389,628,o),
(330,640,o),
(262,640,cs)
);
}
);
vertWidth = 1130;
width = 515;
},
{
layerId = master06;
shapes = (
{
closed = 1;
nodes = (
(119,639,o),
(44,569,o),
(44,459,cs),
(44,373,o),
(96,325,o),
(187,296,cs),
(250,276,ls),
(343,247,o),
(369,212,o),
(369,164,cs),
(369,99,o),
(311,65,o),
(239,65,cs),
(179,65,o),
(126,78,o),
(69,106,c),
(47,31,l),
(112,1,o),
(179,-9,o),
(243,-9,cs),
(370,-9,o),
(463,61,o),
(463,171,cs),
(463,248,o),
(420,313,o),
(306,349,cs),
(243,369,ls),
(169,392,o),
(138,420,o),
(138,470,cs),
(138,530,o),
(186,565,o),
(261,565,cs),
(309,565,o),
(352,554,o),
(409,528,c),
(431,604,l),
(376,630,o),
(318,639,o),
(257,639,cs)
);
}
);
width = 505;
},
{
layerId = master07;
shapes = (
{
closed = 1;
nodes = (
(122,640,o),
(42,565,o),
(42,455,cs),
(42,359,o),
(102,312,o),
(194,280,cs),
(250,261,ls),
(340,233,o),
(362,204,o),
(362,166,cs),
(362,113,o),
(318,84,o),
(247,84,cs),
(187,84,o),
(134,99,o),
(77,127,c),
(49,34,l),
(111,4,o),
(181,-10,o),
(252,-10,cs),
(400,-10,o),
(486,70,o),
(486,178,cs),
(486,262,o),
(430,325,o),
(326,359,cs),
(265,379,ls),
(196,401,o),
(166,422,o),
(166,468,cs),
(166,516,o),
(206,546,o),
(274,546,cs),
(322,546,o),
(371,532,o),
(425,506,c),
(453,600,l),
(403,625,o),
(342,640,o),
(268,640,cs)
);
}
);
vertWidth = 1130;
width = 526;
}
);
unicode = 83;
},
{
glyphname = T;
layers = (
{
layerId = master01;
shapes = (
{
closed = 1;
nodes = (
(10,522,l),
(184,522,l),
(184,0,l),
(321,0,l),
(321,522,l),
(499,522,l),
(499,630,l),
(10,630,l)
);
}
);
vertWidth = 1130;
width = 508;
},
{
layerId = master02;
shapes = (
{
closed = 1;
nodes = (
(10,512,l),
(178,512,l),
(178,0,l),
(330,0,l),
(330,512,l),
(502,512,l),
(502,630,l),
(10,630,l)
);
}
);
vertWidth = 1130;
width = 511;
},
{
layerId = master03;
shapes = (
{
closed = 1;
nodes = (
(10,588,l),
(223,588,l),
(223,0,l),
(275,0,l),
(275,588,l),
(492,588,l),
(492,630,l),
(10,630,l)
);
}
);
vertWidth = 814;
width = 501;
},
{
layerId = master04;
shapes = (
{
closed = 1;
nodes = (
(10,570,l),
(213,570,l),
(213,0,l),
(285,0,l),
(285,570,l),
(492,570,l),
(492,630,l),
(10,630,l)
);
}
);
vertWidth = 1130;
width = 501;
},
{
layerId = master05;
shapes = (
{
closed = 1;
nodes = (
(10,542,l),
(197,542,l),
(197,0,l),
(304,0,l),
(304,542,l),
(494,542,l),
(494,630,l),
(10,630,l)
);
}
);
vertWidth = 1130;
width = 503;
},
{
layerId = master06;
shapes = (
{
closed = 1;
nodes = (
(10,552,l),
(203,552,l),
(203,0,l),
(295,0,l),
(295,552,l),
(492,552,l),
(492,630,l),
(10,630,l)
);
}
);
width = 501;
},
{
layerId = master07;
shapes = (
{
closed = 1;
nodes = (
(10,532,l),
(190,532,l),
(190,0,l),
(312,0,l),
(312,532,l),
(497,532,l),
(497,630,l),
(10,630,l)
);
}
);
vertWidth = 1130;
width = 506;
}
);
unicode = 84;
},
{
glyphname = U;
layers = (
{
layerId = master01;
shapes = (
{
closed = 1;
nodes = (
(67,73,o),
(168,-11,o),
(333,-11,cs),
(504,-11,o),
(593,76,o),
(593,251,cs),
(593,630,l),
(456,630,l),
(456,241,ls),
(456,155,o),
(420,94,o),
(333,94,cs),
(245,94,o),
(204,149,o),
(204,253,cs),
(204,630,l),
(67,630,l),
(67,256,ls)
);
}
);
vertWidth = 1130;
width = 661;
},
{
layerId = master02;
shapes = (
{
closed = 1;
nodes = (
(66,75,o),
(169,-11,o),
(337,-11,cs),
(514,-11,o),
(602,78,o),
(602,254,cs),
(602,630,l),
(450,630,l),
(450,241,ls),
(450,162,o),
(417,104,o),
(337,104,cs),
(256,104,o),
(218,159,o),
(218,253,cs),
(218,630,l),
(66,630,l),
(66,259,ls)
);
}
);
vertWidth = 1130;
width = 668;
},
{
layerId = master03;
shapes = (
{
closed = 1;
nodes = (
(78,69,o),
(168,-8,o),
(312,-8,cs),
(455,-8,o),
(534,72,o),
(534,244,cs),
(534,630,l),
(482,630,l),
(482,241,ls),
(482,118,o),
(434,34,o),
(312,34,cs),
(189,34,o),
(130,97,o),
(130,253,cs),
(130,630,l),
(78,630,l),
(78,249,ls)
);
}
);
vertWidth = 814;
width = 612;
},
{
layerId = master04;
shapes = (
{
closed = 1;
nodes = (
(75,69,o),
(166,-9,o),
(316,-9,cs),
(465,-9,o),
(551,72,o),
(551,244,cs),
(551,630,l),
(479,630,l),
(479,241,ls),
(479,127,o),
(431,50,o),
(316,50,cs),
(200,50,o),
(147,107,o),
(147,253,cs),
(147,630,l),
(75,630,l),
(75,249,ls)
);
}
);
vertWidth = 1130;
width = 626;
},
{
layerId = master05;
shapes = (
{
closed = 1;
nodes = (
(70,70,o),
(165,-10,o),
(324,-10,cs),
(485,-10,o),
(576,73,o),
(576,246,cs),
(576,630,l),
(469,630,l),
(469,241,ls),
(469,142,o),
(425,75,o),
(324,75,cs),
(222,75,o),
(177,128,o),
(177,253,cs),
(177,630,l),
(70,630,l),
(70,251,ls)
);
}
);
vertWidth = 1130;
width = 647;
},
{
layerId = master06;
shapes = (
{
closed = 1;
nodes = (
(72,69,o),
(164,-9,o),
(320,-9,cs),
(475,-9,o),
(568,72,o),
(568,244,cs),
(568,630,l),
(476,630,l),
(476,241,ls),
(476,136,o),
(428,66,o),
(320,66,cs),
(211,66,o),
(164,118,o),
(164,253,cs),
(164,630,l),
(72,630,l),
(72,249,ls)
);
}
);
width = 640;
},
{
layerId = master07;
shapes = (
{
closed = 1;
nodes = (
(69,72,o),
(166,-10,o),
(328,-10,cs),
(494,-10,o),
(585,75,o),
(585,249,cs),
(585,630,l),
(463,630,l),
(463,241,ls),
(463,149,o),
(422,85,o),
(328,85,cs),
(233,85,o),
(191,138,o),
(191,253,cs),
(191,630,l),
(69,630,l),
(69,254,ls)
);
}
);
vertWidth = 1130;
width = 654;
}
);
unicode = 85;
},
{
glyphname = V;
lastChange = "2022-06-08 14:56:36 +0000";
layers = (
{
layerId = master01;
shapes = (
{
closed = 1;
nodes = (
(383,0,l),
(608,630,l),
(467,630,l),
(309,132,l),
(306,132,l),
(151,630,l),
(6,630,l),
(234,0,l)
);
}
);
vertWidth = 1130;
width = 613;
},
{
layerId = master02;
shapes = (
{
closed = 1;
nodes = (
(401,0,l),
(618,630,l),
(462,630,l),
(318,140,l),
(315,140,l),
(170,630,l),
(9,630,l),
(232,0,l)
);
}
);
vertWidth = 1130;
width = 624;
},
{
layerId = master03;
shapes = (
{
closed = 1;
nodes = (
(293,0,l),
(535,630,l),
(479,630,l),
(270,62,l),
(268,62,l),
(60,630,l),
(3,630,l),
(242,0,l)
);
}
);
vertWidth = 814;
width = 537;
},
{
layerId = master04;
shapes = (
{
closed = 1;
nodes = (
(314,0,l),
(559,630,l),
(483,630,l),
(282,86,l),
(280,86,l),
(80,630,l),
(3,630,l),
(244,0,l)
);
}
);
vertWidth = 1130;
width = 561;
},
{
layerId = master05;
shapes = (
{
closed = 1;
nodes = (
(347,0,l),
(587,630,l),
(476,630,l),
(295,117,l),
(293,117,l),
(113,630,l),
(0,630,l),
(238,0,l)
);
}
);
vertWidth = 1130;
width = 586;
},
{
layerId = master06;
shapes = (
{
closed = 1;
nodes = (
(329,0,l),
(577,630,l),
(481,630,l),
(288,110,l),
(286,110,l),
(94,630,l),
(-3,630,l),
(240,0,l)
);
}
);
width = 574;
},
{
layerId = master07;
shapes = (
{
closed = 1;
nodes = (
(365,0,l),
(597,630,l),
(471,630,l),
(302,125,l),
(299,125,l),
(132,630,l),
(3,630,l),
(236,0,l)
);
}
);
vertWidth = 1130;
width = 599;
}
);
unicode = 86;
},
{
glyphname = W;
layers = (
{
layerId = master01;
shapes = (
{
closed = 1;
nodes = (
(172,0,l),
(319,0,l),
(397,326,ls),
(410,380,o),
(421,429,o),
(431,485,c),
(433,485,l),
(444,429,o),
(455,378,o),
(468,325,cs),
(549,0,l),
(699,0,l),
(860,630,l),
(722,630,l),
(656,340,ls),
(647,302,o),
(628,195,o),
(619,145,c),
(617,145,l),
(609,193,o),
(587,306,o),
(579,340,cs),
(506,630,l),
(363,630,l),
(290,339,ls),
(281,303,o),
(260,196,o),
(253,145,c),
(251,145,l),
(244,194,o),
(223,305,o),
(216,339,c),
(147,630,l),
(8,630,l)
);
}
);
vertWidth = 1130;
width = 868;
},
{
layerId = master02;
shapes = (
{
closed = 1;
nodes = (
(171,0,l),
(337,0,l),
(398,269,ls),
(413,336,o),
(428,406,o),
(440,478,c),
(442,478,l),
(455,406,o),
(470,335,o),
(486,268,cs),
(549,0,l),
(717,0,l),
(870,630,l),
(717,630,l),
(663,367,ls),
(650,302,o),
(635,231,o),
(626,157,c),
(624,157,l),
(614,231,o),
(602,299,o),
(586,367,cs),
(525,630,l),
(362,630,l),
(302,367,ls),
(287,300,o),
(273,230,o),
(263,157,c),
(261,157,l),
(253,230,o),
(242,296,o),
(226,367,cs),
(170,630,l),
(15,630,l)
);
}
);
vertWidth = 1130;
width = 883;
},
{
layerId = master03;
shapes = (
{
closed = 1;
nodes = (
(190,0,l),
(242,0,l),
(361,422,ls),
(375,471,o),
(388,519,o),
(400,568,c),
(402,568,l),
(414,519,o),
(428,470,o),
(442,422,cs),
(564,0,l),
(617,0,l),
(794,630,l),
(741,630,l),
(640,259,ls),
(622,193,o),
(606,128,o),
(592,62,c),
(590,62,l),
(574,128,o),
(555,193,o),
(536,259,cs),
(426,630,l),
(377,630,l),
(269,259,ls),
(250,194,o),
(232,128,o),
(217,62,c),
(215,62,l),
(202,128,o),
(184,194,o),
(166,259,cs),
(62,630,l),
(8,630,l)
);
}
);
vertWidth = 814;
width = 802;
},
{
layerId = master04;
shapes = (
{
closed = 1;
nodes = (
(194,0,l),
(266,0,l),
(379,405,ls),
(391,449,o),
(403,493,o),
(414,538,c),
(416,538,l),
(428,487,o),
(445,434,o),
(460,378,c),
(569,0,l),
(642,0,l),
(823,630,l),
(750,630,l),
(648,259,ls),
(634,210,o),
(618,144,o),
(607,86,c),
(605,86,l),
(592,143,o),
(575,209,o),
(561,259,c),
(449,630,l),
(383,630,l),
(274,259,ls),
(260,209,o),
(242,142,o),
(231,86,c),
(229,86,l),
(219,142,o),
(202,210,o),
(188,259,cs),
(82,630,l),
(8,630,l)
);
}
);
vertWidth = 1130;
width = 831;
},
{
layerId = master05;
shapes = (
{
closed = 1;
nodes = (
(188,0,l),
(298,0,l),
(388,339,ls),
(403,395,o),
(414,440,o),
(428,500,c),
(430,500,l),
(445,440,o),
(456,393,o),
(471,337,cs),
(564,0,l),
(676,0,l),
(853,630,l),
(745,630,l),
(655,286,ls),
(644,245,o),
(629,169,o),
(620,122,c),
(618,122,l),
(610,168,o),
(592,253,o),
(582,286,cs),
(482,630,l),
(380,630,l),
(281,284,ls),
(270,248,o),
(253,169,o),
(246,122,c),
(244,122,l),
(237,169,o),
(220,249,o),
(211,284,cs),
(116,630,l),
(7,630,l)
);
}
);
vertWidth = 1130;
width = 860;
},
{
layerId = master06;
shapes = (
{
closed = 1;
nodes = (
(197,0,l),
(289,0,l),
(382,335,ls),
(396,386,o),
(414,448,o),
(427,508,c),
(429,508,l),
(444,447,o),
(458,403,o),
(477,335,cs),
(573,0,l),
(666,0,l),
(851,630,l),
(758,630,l),
(655,259,ls),
(646,228,o),
(630,160,o),
(621,110,c),
(619,110,l),
(611,159,o),
(595,225,o),
(585,259,cs),
(471,630,l),
(389,630,l),
(279,259,ls),
(269,225,o),
(252,157,o),
(244,110,c),
(242,110,l),
(236,157,o),
(219,226,o),
(209,259,cs),
(102,630,l),
(8,630,l)
);
}
);
width = 859;
},
{
layerId = master07;
shapes = (
{
closed = 1;
nodes = (
(179,0,l),
(308,0,l),
(392,332,ls),
(406,387,o),
(416,434,o),
(428,493,c),
(430,493,l),
(443,435,o),
(454,385,o),
(469,331,c),
(556,0,l),
(686,0,l),
(855,630,l),
(732,630,l),
(654,313,l),
(645,273,o),
(627,182,o),
(618,133,c),
(616,133,l),
(608,181,o),
(588,279,o),
(579,313,cs),
(493,630,l),
(370,630,l),
(284,312,l),
(275,276,o),
(256,183,o),
(248,133,c),
(246,133,l),
(240,181,o),
(221,277,o),
(212,312,cs),
(131,630,l),
(6,630,l)
);
}
);
vertWidth = 1130;
width = 861;
}
);
unicode = 87;
},
{
glyphname = X;
layers = (
{
layerId = master01;
shapes = (
{
closed = 1;
nodes = (
(218,320,l),
(13,0,l),
(169,0,l),
(307,230,l),
(451,0,l),
(613,0,l),
(400,320,l),
(603,630,l),
(446,630,l),
(314,410,l),
(182,630,l),
(22,630,l)
);
}
);
vertWidth = 1130;
width = 626;
},
{
layerId = master02;
shapes = (
{
closed = 1;
nodes = (
(219,320,l),
(15,0,l),
(190,0,l),
(319,221,l),
(457,0,l),
(638,0,l),
(426,320,l),
(628,630,l),
(452,630,l),
(329,419,l),
(203,630,l),
(24,630,l)
);
}
);
vertWidth = 1130;
width = 653;
},
{
layerId = master03;
shapes = (
{
closed = 1;
nodes = (
(217,320,l),
(6,0,l),
(67,0,l),
(251,286,l),
(438,0,l),
(502,0,l),
(284,320,l),
(492,630,l),
(431,630,l),
(251,354,l),
(78,630,l),
(15,630,l)
);
}
);
vertWidth = 814;
width = 507;
},
{
layerId = master04;
shapes = (
{
closed = 1;
nodes = (
(216,320,l),
(6,0,l),
(87,0,l),
(261,271,l),
(436,0,l),
(521,0,l),
(303,320,l),
(511,630,l),
(430,630,l),
(261,369,l),
(99,630,l),
(15,630,l)
);
}
);
vertWidth = 1130;
width = 526;
},
{
layerId = master05;
shapes = (
{
closed = 1;
nodes = (
(217,320,l),
(8,0,l),
(128,0,l),
(283,247,l),
(440,0,l),
(564,0,l),
(349,320,l),
(554,630,l),
(435,630,l),
(285,393,l),
(141,630,l),
(17,630,l)
);
}
);
vertWidth = 1130;
width = 572;
},
{
layerId = master06;
shapes = (
{
closed = 1;
nodes = (
(216,320,l),
(6,0,l),
(107,0,l),
(271,256,l),
(434,0,l),
(540,0,l),
(323,320,l),
(530,630,l),
(429,630,l),
(271,384,l),
(120,630,l),
(15,630,l)
);
}
);
width = 545;
},
{
layerId = master07;
shapes = (
{
closed = 1;
nodes = (
(217,320,l),
(10,0,l),
(148,0,l),
(295,238,l),
(445,0,l),
(589,0,l),
(374,320,l),
(579,630,l),
(440,630,l),
(300,401,l),
(161,630,l),
(19,630,l)
);
}
);
vertWidth = 1130;
width = 599;
}
);
unicode = 88;
},
{
glyphname = Y;
layers = (
{
layerId = master01;
shapes = (
{
closed = 1;
nodes = (
(225,260,l),
(225,0,l),
(362,0,l),
(362,260,l),
(582,630,l),
(433,630,l),
(297,385,l),
(163,630,l),
(9,630,l)
);
}
);
vertWidth = 1130;
width = 587;
},
{
layerId = master02;
shapes = (
{
closed = 1;
nodes = (
(227,259,l),
(227,0,l),
(379,0,l),
(379,259,l),
(602,630,l),
(435,630,l),
(307,398,l),
(180,630,l),
(9,630,l)
);
}
);
vertWidth = 1130;
width = 609;
},
{
layerId = master03;
shapes = (
{
closed = 1;
nodes = (
(228,264,l),
(228,0,l),
(280,0,l),
(280,264,l),
(498,630,l),
(435,630,l),
(255,317,l),
(76,630,l),
(15,630,l)
);
}
);
vertWidth = 814;
width = 498;
},
{
layerId = master04;
shapes = (
{
closed = 1;
nodes = (
(223,264,l),
(223,0,l),
(295,0,l),
(295,264,l),
(510,630,l),
(430,630,l),
(261,332,l),
(93,630,l),
(12,630,l)
);
}
);
vertWidth = 1130;
width = 510;
},
{
layerId = master05;
shapes = (
{
closed = 1;
nodes = (
(220,263,l),
(220,0,l),
(327,0,l),
(327,263,l),
(543,630,l),
(428,630,l),
(278,360,l),
(128,630,l),
(10,630,l)
);
}
);
vertWidth = 1130;
width = 544;
},
{
layerId = master06;
shapes = (
{
closed = 1;
nodes = (
(218,264,l),
(218,0,l),
(310,0,l),
(310,264,l),
(523,630,l),
(426,630,l),
(268,348,l),
(111,630,l),
(10,630,l)
);
}
);
width = 523;
},
{
layerId = master07;
shapes = (
{
closed = 1;
nodes = (
(222,261,l),
(222,0,l),
(344,0,l),
(344,261,l),
(562,630,l),
(430,630,l),
(287,373,l),
(145,630,l),
(9,630,l)
);
}
);
vertWidth = 1130;
width = 566;
}
);
unicode = 89;
},
